<svg width="597" height="429" viewBox="0 0 597 429" fill="none" xmlns="http://www.w3.org/2000/svg">
<g clip-path="url(#clip0_64_6)">
<path d="M592.35 210.971C585.16 203.771 579.35 205.413 576.2 207.376C579.36 204.612 584.14 200.046 582.56 198.854C580.26 197.122 575.36 198.854 575.36 198.854C575.36 198.854 579.68 189.912 578.24 187.609C576.8 185.306 578.82 186.167 576.22 184.435C573.63 182.702 567.01 185.586 567.01 185.586L572.48 174.05C572.48 174.05 574.21 173.47 571.04 172.028C570.92 171.978 570.79 171.928 570.65 171.887C574.17 170.025 576.37 166.901 573.63 161.644C568.8 152.401 560.77 152.491 556.77 153.222C557.63 152.651 558.34 151.57 558.08 149.527C557.87 147.815 557.29 146.974 556.66 146.603C562.2 146.343 575.46 144.71 571.32 134.827C566.14 122.43 553.18 117.523 553.18 117.523C553.18 117.523 545.77 115.36 540.8 115.791C535.83 116.222 534.97 116.652 534.97 116.652C534.97 116.652 539.29 106.488 534.54 104.756C529.79 103.024 520.5 112.977 520.5 112.977C520.5 112.977 523.52 97.6263 517.48 97.1957C511.43 96.7651 505.17 102.172 505.17 102.172C505.17 102.172 506.47 87.6827 501.28 87.6827C496.09 87.6827 485.08 98.7077 485.08 98.7077C485.08 98.7077 488.75 78.6003 483.14 75.9967C477.53 73.4032 461.33 86.8115 461.33 86.8115C461.33 86.8115 472.13 58.0523 461.76 54.8079C451.39 51.5635 437.14 78.8106 437.14 78.8106C437.14 78.8106 441.03 51.994 432.82 53.5061C424.61 55.0182 423.97 78.37 423.97 78.37C423.97 78.37 419.87 64.5311 415.12 67.1246C410.37 69.7182 404.97 86.3709 404.97 86.3709C404.97 86.3709 401.51 64.3108 394.6 67.7756C387.69 71.2403 382.29 93.5106 382.29 93.5106C382.29 93.5106 382.29 74.044 374.3 76.8579C366.31 79.6717 364.15 85.9403 364.15 85.9403C364.15 85.9403 369.33 67.345 363.93 66.2635C358.53 65.182 343.85 82.9162 343.85 82.9162C343.85 82.9162 347.52 70.369 342.99 64.9717C338.45 59.5643 326.58 69.0774 326.58 69.0774C326.58 69.0774 335.65 48.5293 325.72 43.5625C315.79 38.5857 312.33 50.9126 312.33 50.9126C312.33 50.9126 316 28.6421 307.58 26.0486C299.16 23.4551 293.11 50.0514 293.11 50.0514C293.11 50.0514 297.21 31.2357 289.87 29.7237C282.53 28.2116 275.83 35.5616 275.83 35.5616C275.83 35.5616 280.15 14.5831 270.22 11.9895C260.29 9.39598 259.42 23.6654 259.42 23.6654C259.42 23.6654 257.26 4.6394 248.84 2.25615C240.42 -0.127093 241.28 18.2581 241.28 18.2581C241.28 18.2581 234.8 0.523809 227.67 6.15148C220.54 11.7691 223.57 31.8866 223.57 31.8866C223.57 31.8866 217.09 22.1533 212.56 24.3163C208.02 26.4792 210.18 38.1552 210.18 38.1552C210.18 38.1552 201.97 24.0959 196.14 26.0486C190.31 27.9913 201.54 48.5394 201.54 48.5394C201.54 48.5394 192.69 42.0505 189.23 47.6782C187.29 50.8325 189.97 56.1497 192.69 60.2252C189.79 57.141 185.87 54.2771 182.32 56.1196C175.63 59.5844 178.22 68.0159 178.22 68.0159C178.22 68.0159 174.33 58.9335 168.07 60.6659C161.81 62.3982 162.46 70.6094 162.46 70.6094C162.46 70.6094 158.79 49.2002 149.93 51.5834C141.08 53.9667 139.13 66.7241 139.13 66.7241C139.13 66.7241 132.87 48.3391 122.29 49.6408C111.71 50.9426 116.03 71.4806 116.03 71.4806C116.03 71.4806 110.85 58.7232 103.94 64.1306C97.03 69.5379 114.52 88.3537 114.52 88.3537C114.52 88.3537 106.1 84.4583 100.7 89.0045C95.3 93.5406 110.85 109.112 110.85 109.112C110.85 109.112 94.22 101.331 87.31 106.298C80.4 111.275 85.8 122.73 85.8 122.73C85.8 122.73 76.95 108.02 70.25 111.705C63.56 115.38 68.52 125.765 68.52 125.765C68.52 125.765 62.26 116.462 55.35 121.008C48.44 125.554 59.89 136.79 59.89 136.79C59.89 136.79 45.64 129.87 39.37 137.22C33.11 144.57 47.14 154.734 47.14 154.734C47.14 154.734 34.18 156.467 35.91 163.596C37.64 170.736 51.67 175.492 51.67 175.492C51.67 175.492 42.6 174.842 41.09 178.306C39.58 181.771 42.82 185.005 42.82 185.005C42.82 185.005 31.37 180.9 28.14 187.599C25.8 192.436 32.45 199.065 36.34 202.389C32.42 199.465 24.83 194.659 18.86 196.04C12.04 197.613 15.7 207.556 17.34 211.281C15.31 207.156 8.79 195.52 0.939999 198.203C-8.56 201.448 0.0799999 224.369 0.0799999 224.369C0.0799999 224.369 -5.75 217.229 -12.88 220.043C-20.01 222.857 -11.15 239.72 -11.15 239.72C-11.15 239.72 -17.52 237.597 -22 237.938V341.188C-20.94 361.526 -19.9 379.521 -19.35 388.994C-16.33 390.906 -13.74 396.073 -13.74 396.073C-13.74 396.073 -16.33 386.851 -12.01 390.015C-7.69 393.189 -6.83 396.073 -6.83 396.073H-3.09C-3.09 396.073 -11.15 385.689 -4.82 386.56C1.51 387.421 6.41 393.77 6.41 393.77C6.41 393.77 4.68 388.293 8.43 388.873C12.17 389.454 15.05 394.06 15.05 394.06C15.05 394.06 13.03 370.418 19.94 375.605C26.85 380.792 23.11 390.305 23.11 390.305C23.11 390.305 29.73 380.332 32.32 385.469C34.91 390.596 30.59 392.619 30.59 392.619C30.59 392.619 40.38 390.025 39.8 393.48C39.22 396.934 36.92 398.386 36.92 398.386L43.83 400.69C43.83 400.69 47.57 395.502 51.03 394.06C54.49 392.618 55.35 397.525 55.35 397.525L53.14 398.957C54.72 398.166 56.8 397.525 58.8 398.106C62.83 399.258 63.41 400.7 63.41 400.7L67.15 403.293C67.15 403.293 68.52 395.002 71.43 393.81C74.35 392.618 74.67 397.705 74.67 397.705C74.67 397.705 78.56 394.461 82.66 394.782C86.76 395.102 90 398.457 88.92 399.648C87.84 400.84 80.5 401.38 81.04 405.486C81.58 409.592 94.86 403.543 94.86 403.543C94.86 403.543 95.08 412.846 99.61 411.975C104.15 411.114 106.41 404.515 106.41 404.515C106.41 404.515 106.66 415.98 118.11 413.667C129.56 411.364 124.23 401.05 124.23 401.05C124.23 401.05 130.56 407.108 135.68 405.086C140.79 403.063 141.8 393.91 141.8 393.91L468.04 413.968C468.04 413.968 506.55 406.457 513.46 400.69C520.37 394.922 504.75 391.106 504.75 391.106C504.75 391.106 527.43 386.56 522.89 382.244C518.35 377.919 510.15 377.268 510.15 377.268C510.15 377.268 514.36 374.784 514.25 372.401C514.14 370.018 512.31 369.117 508.71 368.976C507.66 368.936 507.04 368.916 506.69 368.916C507.48 368.546 511.73 366.403 511.73 362.347C511.73 359.223 506.73 358.983 503.72 359.133C507.4 358.642 513.98 356.91 509.71 350.822C503.95 342.6 491.57 354.136 491.57 354.136C491.57 354.136 494.02 344.473 489.84 341.879C487.91 340.678 485.95 340.838 484.4 341.359C488.15 339.166 493.84 335.31 492.21 332.947C489.83 329.482 483.14 329.923 483.14 329.923L489.19 325.597C489.19 325.597 495.45 334.68 497.83 331.005C500.21 327.329 494.81 323.004 494.81 323.004C494.81 323.004 512.73 333.818 513.81 329.703C514.89 325.597 510.57 315.644 510.57 315.644C510.57 315.644 527.2 327.54 533.89 322.994C540.58 318.447 533.89 308.934 533.89 308.934C533.89 308.934 548.36 323.204 555.27 319.749C562.18 316.284 558.73 304.829 558.73 304.829C558.73 304.829 566.72 315.644 568.88 311.528C570.2 309.005 570.31 306 570.19 304.058C570.61 305.45 571.77 306.721 574.92 304.829C580.32 301.584 578.16 292.933 578.16 292.933C578.16 292.933 575.93 287.235 571.32 287.235H566.77C570.54 287.105 578.52 286.153 578.58 280.315C578.66 272.675 564.4 269.21 564.4 269.21C564.4 269.21 590.03 264.594 584.84 254.791C579.66 244.987 567.56 251.907 567.56 251.907C567.56 251.907 570.15 248.732 566.98 246.72C564.57 245.187 562.66 245.147 561.89 245.227C563.86 244.917 572.9 243.215 571.88 238.078C571.02 233.762 567.08 234.343 565.16 234.903C571.33 232.67 602.18 220.854 592.32 210.971H592.35Z" fill="#BCD982" stroke="black" stroke-width="3" stroke-miterlimit="10"/>
<path d="M519.588 249.674C528.898 245.778 545.238 237.597 538.268 230.548C534.828 227.063 531.738 225.921 529.208 225.901C527.978 225.891 527.298 224.479 528.118 223.568C529.568 221.946 530.498 220.454 529.738 219.873C528.778 219.142 527.308 219.112 526.028 219.272C524.968 219.412 524.148 218.351 524.548 217.359C525.548 214.866 526.768 211.241 525.968 209.959C524.718 207.927 526.468 208.688 524.208 207.166C523.048 206.384 520.978 206.675 519.218 207.136C518.058 207.446 517.068 206.264 517.578 205.183L520.938 198.023C520.938 198.023 522.448 197.512 519.678 196.241C519.568 196.191 519.448 196.161 519.318 196.131C522.398 194.488 524.328 191.735 521.928 187.098C518.588 180.639 513.498 179.358 509.798 179.418C508.938 179.438 508.228 178.667 508.368 177.826C508.428 177.425 508.438 176.964 508.368 176.424C508.318 176.043 508.258 175.713 508.178 175.432C507.938 174.601 508.558 173.76 509.408 173.67C514.808 173.099 523.028 170.996 519.918 163.466C515.598 153.012 505.078 148.606 504.168 148.245C504.118 148.225 504.088 148.215 504.048 148.205C503.378 148.015 497.398 146.343 493.318 146.703C492.158 146.803 491.248 146.903 490.548 147.004C489.538 147.144 488.728 146.192 489.018 145.211C489.838 142.447 490.658 138.011 487.858 136.98C485.288 136.039 481.198 139.043 478.468 141.466C477.518 142.307 476.038 141.546 476.148 140.284C476.498 136.259 476.388 130.541 472.988 130.301C469.828 130.07 466.608 131.693 464.528 133.024C463.598 133.625 462.368 132.934 462.378 131.823C462.418 128.058 461.998 121.909 458.868 121.909C455.928 121.909 450.838 126.025 447.638 128.899C446.678 129.76 445.158 128.979 445.308 127.687C445.938 122.33 446.468 113.207 443.048 111.615C440.838 110.584 436.748 112.426 432.928 114.76C432.718 114.89 432.548 115.08 432.428 115.3C431.858 116.342 431.088 117.283 430.038 118.064C429.288 118.625 428.448 119.055 427.568 119.386C427.388 119.456 427.228 119.556 427.098 119.686C426.118 120.648 425.018 121.519 423.768 122.27C422.378 123.101 420.998 123.672 419.408 123.982C417.718 124.323 414.698 123.512 413.718 125.394C413.118 126.546 414.168 129.56 414.268 130.821C414.368 132.173 414.308 133.425 414.148 134.717C413.758 137.701 410.938 140.024 407.938 139.764C405.318 139.533 402.598 139.583 400.058 140.224C396.508 141.115 396.488 141.476 398.298 144.42C400.408 147.845 397.618 151.76 393.958 151.99C388.848 152.311 385.118 149.667 380.368 148.475C376.418 147.494 369.928 149.587 370.728 154.704C371.428 159.2 367.548 162.254 363.348 160.382C358.558 158.239 356.438 150.759 354.408 146.423C353.028 143.489 351.678 140.164 349.608 137.641C349.268 137.23 348.758 136.559 348.348 136.219C348.228 136.309 348.068 136.449 347.848 136.669C345.238 139.193 340.308 138.242 339.458 134.446C338.288 129.299 337.458 123.952 339.378 118.875C339.568 118.374 339.788 117.904 340.018 117.433C340.068 117.333 340.108 117.233 340.128 117.123C341.168 112.296 342.528 103.704 339.158 103.023C335.998 102.383 329.208 109.202 325.068 113.768C324.148 114.79 322.468 114.009 322.638 112.647C323.078 109.092 323.088 104.526 320.898 101.882C318.438 98.918 313.498 101.041 310.118 103.074C309.018 103.735 307.678 102.663 308.068 101.441C309.848 95.8337 311.878 86.0804 305.828 83.0162C301.818 80.9835 299.018 82.2252 297.168 84.1478C296.288 85.059 294.728 84.3481 294.788 83.0864C295.068 77.1383 294.588 69.0072 290.018 67.5853C282.678 65.3022 277.408 88.7441 277.408 88.7441C277.408 88.7441 280.988 72.1615 274.588 70.8297C270.908 70.0586 267.418 71.8811 265.108 73.5634C264.128 74.2844 262.758 73.4933 262.888 72.2816C263.488 66.7641 263.648 56.8406 257.448 55.1984C253.118 54.0568 250.768 56.6302 249.498 59.4841C248.958 60.6958 247.178 60.5155 246.848 59.2238C245.588 54.227 243.148 47.8583 238.808 46.6166C234.448 45.3749 232.948 50.562 232.438 54.998C232.288 56.3499 230.478 56.7104 229.828 55.5188C227.608 51.4933 224.088 47.0673 220.358 50.0413C216.178 53.3759 216.008 62.4882 216.338 68.0959C216.418 69.3976 214.818 70.0886 213.928 69.1473C211.958 67.0545 209.318 65.0117 207.178 66.0532C205.178 67.0145 204.668 70.1388 204.658 72.9726C204.658 74.3345 202.948 74.9052 202.128 73.8238C199.578 70.4592 195.868 66.5639 192.868 67.5752C189.308 68.7769 193.038 78.0094 195.598 83.4368C196.138 84.5784 194.998 85.8001 193.828 85.3395C191.428 84.3882 188.458 83.9775 186.848 86.6311C185.948 88.1132 186.188 90.1459 186.978 92.2588C187.418 93.4304 186.248 94.5119 185.098 94.0312C183.688 93.4404 182.228 93.3303 180.828 94.0613C178.268 95.4031 177.268 97.5862 176.948 99.6089C176.768 100.781 175.318 101.191 174.518 100.32C173.008 98.6876 170.928 97.3558 168.408 98.0568C166.508 98.5875 165.338 99.8091 164.618 101.171C164.048 102.262 162.418 102.052 162.068 100.881C160.448 95.5534 157.398 88.7541 152.598 90.0559C147.878 91.3376 145.408 96.0441 144.208 99.5088C143.798 100.7 142.158 100.77 141.618 99.6389C139.378 94.9325 134.828 87.5625 128.498 88.3436C122.888 89.0345 122.078 96.014 122.308 101.371C122.368 102.703 120.738 103.374 119.858 102.383C117.988 100.26 115.418 98.7978 112.488 101.111C108.198 104.506 114.688 113.868 118.778 118.995C119.578 119.997 118.718 121.429 117.448 121.238C115.028 120.878 112.008 121.028 109.658 123.021C106.668 125.564 111.058 132.043 114.658 136.429C115.548 137.511 114.468 139.093 113.138 138.652C108.378 137.08 101.628 135.618 97.9882 138.272C95.3082 140.224 94.7482 143.308 94.9582 146.132C95.0582 147.464 93.4082 148.155 92.5282 147.164C89.8082 144.13 86.1982 141.316 83.1182 143.028C80.2082 144.64 79.8282 147.725 80.1682 150.408C80.3182 151.6 78.9582 152.411 77.9782 151.71C75.8782 150.218 73.0682 149.267 70.1182 151.219C66.5682 153.582 68.5782 157.998 70.8282 161.223C71.5782 162.304 70.5982 163.746 69.3282 163.396C65.2282 162.264 59.4582 161.633 56.1882 165.519C52.2282 170.215 57.5682 176.213 60.8082 179.157C61.6282 179.908 61.2982 181.25 60.2282 181.551C56.9882 182.452 52.1582 184.525 53.1782 188.77C54.0182 192.265 58.1682 195.119 61.6982 196.962C62.8682 197.572 62.6382 199.315 61.3482 199.575C59.7082 199.916 58.2082 200.547 57.6982 201.728C57.1882 202.9 57.2982 204.051 57.6182 205.023C57.9582 206.034 57.0782 207.015 56.0282 206.835C52.8482 206.274 48.1882 206.184 46.3982 209.929C45.4682 211.882 46.1782 214.165 47.5482 216.348C48.2882 217.53 47.1082 218.932 45.8182 218.411C43.3082 217.38 40.6582 216.819 38.2982 217.369C35.5982 218 34.7882 220.143 34.8282 222.617C34.8482 223.908 33.1982 224.519 32.3682 223.528C29.7782 220.444 26.3982 217.99 22.6682 219.272C16.8982 221.265 18.8082 231.679 20.4882 237.817C20.8182 239.039 19.5182 240.05 18.4282 239.4C16.3982 238.188 13.6382 237.317 10.6182 238.518C6.0882 240.331 8.9682 248.722 10.8582 253.138C11.3182 254.2 10.3682 255.321 9.2382 255.051C7.2582 254.58 4.6282 254.11 2.5082 254.3C2.0382 254.34 1.6282 254.59 1.3782 254.991C-1.0618 258.946 -0.191797 267.227 0.808203 270.812C2.5482 277.061 3.9582 280.546 8.3682 285.472C11.6382 289.127 18.8082 294.284 13.4482 295.075C9.8882 295.606 7.3782 295.967 6.4182 298.901C6.3182 299.211 6.3482 299.552 6.4782 299.852C7.4382 302.125 8.3682 304.368 10.9082 305.78C11.3082 306 11.6482 306.291 11.9382 306.621C12.1882 306.761 12.4082 306.882 12.6582 307.022C16.5882 307.653 16.9882 312.149 15.0382 314.842C16.7882 315.493 18.4782 316.435 20.0282 317.726C23.2482 320.41 24.9882 323.674 25.4682 327.109C28.0482 327.7 30.5882 329.042 32.6682 330.914C33.9482 330.434 35.4382 330.263 37.1782 330.524C41.8982 331.225 44.2282 334.419 45.3882 338.314C47.3482 338.545 49.2182 339.526 50.7382 340.918C51.1282 341.278 51.4982 341.649 51.8582 342.029C53.9182 342.17 55.9382 342.1 57.8682 341.719C58.5882 341.579 59.3482 341.409 60.1282 341.238C60.5282 339.856 61.0882 338.515 61.8882 337.283C66.1682 330.664 74.2282 331.155 79.7082 335.811C86.2882 341.409 91.3582 353.145 89.8382 362.608C93.1582 364.781 95.0082 368.325 95.3982 372.301C102.528 375.095 107.908 382.415 107.078 390.355C107.008 391.036 106.878 391.707 106.708 392.378C106.938 392.448 107.158 392.528 107.388 392.598C108.168 391.577 109.188 390.676 110.498 389.975C116.368 386.821 124.368 388.242 130.548 389.474C135.348 390.435 140.498 391.727 145.078 393.83C145.148 393.53 145.208 393.249 145.258 392.999C145.388 392.298 146.018 391.807 146.728 391.857L429.658 409.441C429.778 409.441 429.898 409.441 430.018 409.421C432.618 408.901 463.668 402.622 469.438 397.745C473.028 394.721 469.648 392.308 466.338 390.846C465.118 390.305 465.248 388.533 466.538 388.202C472.108 386.75 480.348 384.077 477.668 381.493C475.378 379.28 472.008 378.159 469.578 377.608C468.508 377.368 468.138 376.046 468.898 375.255C469.598 374.524 470.178 373.663 470.138 372.821C470.048 370.729 468.448 369.928 465.308 369.807C464.388 369.767 463.858 369.757 463.548 369.747C464.238 369.427 467.948 367.534 467.948 363.959C467.948 362.888 467.288 362.197 466.328 361.766C465.348 361.326 465.278 360.014 466.118 359.353C467.528 358.252 468.078 356.509 466.188 353.785C462.768 348.849 456.668 351.993 453.128 354.506C452.148 355.197 450.818 354.436 450.918 353.245C451.138 350.611 450.958 347.227 448.868 345.915C448.588 345.735 448.308 345.594 448.028 345.484C447.028 345.074 446.878 343.722 447.738 343.071C450.038 341.349 451.868 339.406 450.938 338.034C449.998 336.652 448.288 335.971 446.698 335.651C445.488 335.4 445.138 333.848 446.138 333.127L447.178 332.376C447.798 331.936 448.648 332.056 449.108 332.657C450.708 334.73 454.258 338.795 455.838 336.322C456.388 335.471 456.458 334.569 456.268 333.718C456.008 332.536 457.208 331.575 458.278 332.146C462.928 334.609 469.178 337.433 469.758 335.18C470.278 333.167 469.348 329.552 468.418 326.749C468.008 325.507 469.358 324.425 470.478 325.106C475.148 327.93 483.258 332.036 487.268 329.282C489.908 327.47 490.158 324.756 489.638 322.333C489.368 321.051 490.878 320.16 491.898 320.981C496.118 324.345 502.238 328.291 505.908 326.428C509.158 324.786 509.778 321.081 509.658 318.027C509.608 316.745 511.188 316.104 512.078 317.025C514.178 319.208 516.738 321.171 517.768 319.178C518.408 317.947 518.718 316.595 518.858 315.333C518.938 314.562 519.628 313.971 520.388 314.091C521.008 314.191 521.868 313.981 523.038 313.27C527.378 310.637 526.118 303.947 525.888 302.916C525.868 302.826 525.848 302.756 525.808 302.676C525.488 301.935 523.548 297.769 519.888 297.769H515.928C519.218 297.659 526.178 296.818 526.228 291.671C526.268 287.665 521.898 284.972 518.348 283.44C517.128 282.909 517.238 281.146 518.518 280.796C524.798 279.064 534.868 275.248 531.698 269.19C528.628 263.332 522.798 264.253 519.358 265.455C518.458 265.766 517.568 265.115 517.508 264.153C517.458 263.442 517.108 262.701 516.138 262.07C516.118 262.06 516.098 262.04 516.078 262.03C515.108 261.42 515.188 259.958 516.248 259.537C518.638 258.586 520.908 256.994 520.408 254.45C520.178 253.309 519.718 252.558 519.128 252.077C518.318 251.416 518.588 250.094 519.548 249.694L519.588 249.674Z" fill="url(#paint0_linear_64_6)"/>
<path d="M519.588 249.674C528.898 245.778 545.238 237.597 538.268 230.548C534.828 227.063 531.738 225.921 529.208 225.901C527.978 225.891 527.298 224.479 528.118 223.568C529.568 221.946 530.498 220.454 529.738 219.873C528.778 219.142 527.308 219.112 526.028 219.272C524.968 219.412 524.148 218.351 524.548 217.359C525.548 214.866 526.768 211.241 525.968 209.959C524.718 207.927 526.468 208.688 524.208 207.166C523.048 206.384 520.978 206.675 519.218 207.136C518.058 207.446 517.068 206.264 517.578 205.183L520.938 198.023C520.938 198.023 522.448 197.512 519.678 196.241C519.568 196.191 519.448 196.161 519.318 196.131C522.398 194.488 524.328 191.735 521.928 187.098C518.588 180.639 513.498 179.358 509.798 179.418C508.938 179.438 508.228 178.667 508.368 177.826C508.428 177.425 508.438 176.964 508.368 176.424C508.318 176.043 508.258 175.713 508.178 175.432C507.938 174.601 508.558 173.76 509.408 173.67C514.808 173.099 523.028 170.996 519.918 163.466C515.598 153.012 505.078 148.606 504.168 148.245C504.118 148.225 504.088 148.215 504.048 148.205C503.378 148.015 497.398 146.343 493.318 146.703C492.158 146.803 491.248 146.903 490.548 147.004C489.538 147.144 488.728 146.192 489.018 145.211C489.838 142.447 490.658 138.011 487.858 136.98C485.288 136.039 481.198 139.043 478.468 141.466C477.518 142.307 476.038 141.546 476.148 140.284C476.498 136.259 476.388 130.541 472.988 130.301C469.828 130.07 466.608 131.693 464.528 133.024C463.598 133.625 462.368 132.934 462.378 131.823C462.418 128.058 461.998 121.909 458.868 121.909C455.928 121.909 450.838 126.025 447.638 128.899C446.678 129.76 445.158 128.979 445.308 127.687C445.938 122.33 446.468 113.207 443.048 111.615C440.838 110.584 436.748 112.426 432.928 114.76C432.718 114.89 432.548 115.08 432.428 115.3C431.858 116.342 431.088 117.283 430.038 118.064C429.288 118.625 428.448 119.055 427.568 119.386C427.388 119.456 427.228 119.556 427.098 119.686C426.118 120.648 425.018 121.519 423.768 122.27C422.378 123.101 420.998 123.672 419.408 123.982C417.718 124.323 414.698 123.512 413.718 125.394C413.118 126.546 414.168 129.56 414.268 130.821C414.368 132.173 414.308 133.425 414.148 134.717C413.758 137.701 410.938 140.024 407.938 139.764C405.318 139.533 402.598 139.583 400.058 140.224C396.508 141.115 396.488 141.476 398.298 144.42C400.408 147.845 397.618 151.76 393.958 151.99C388.848 152.311 385.118 149.667 380.368 148.475C376.418 147.494 369.928 149.587 370.728 154.704C371.428 159.2 367.548 162.254 363.348 160.382C358.558 158.239 356.438 150.759 354.408 146.423C353.028 143.489 351.678 140.164 349.608 137.641C349.268 137.23 348.758 136.559 348.348 136.219C348.228 136.309 348.068 136.449 347.848 136.669C345.238 139.193 340.308 138.242 339.458 134.446C338.288 129.299 337.458 123.952 339.378 118.875C339.568 118.374 339.788 117.904 340.018 117.433C340.068 117.333 340.108 117.233 340.128 117.123C341.168 112.296 342.528 103.704 339.158 103.023C335.998 102.383 329.208 109.202 325.068 113.768C324.148 114.79 322.468 114.009 322.638 112.647C323.078 109.092 323.088 104.526 320.898 101.882C318.438 98.918 313.498 101.041 310.118 103.074C309.018 103.735 307.678 102.663 308.068 101.441C309.848 95.8337 311.878 86.0804 305.828 83.0162C301.818 80.9835 299.018 82.2252 297.168 84.1478C296.288 85.059 294.728 84.3481 294.788 83.0864C295.068 77.1383 294.588 69.0072 290.018 67.5853C282.678 65.3022 277.408 88.7441 277.408 88.7441C277.408 88.7441 280.988 72.1615 274.588 70.8297C270.908 70.0586 267.418 71.8811 265.108 73.5634C264.128 74.2844 262.758 73.4933 262.888 72.2816C263.488 66.7641 263.648 56.8406 257.448 55.1984C253.118 54.0568 250.768 56.6302 249.498 59.4841C248.958 60.6958 247.178 60.5155 246.848 59.2238C245.588 54.227 243.148 47.8583 238.808 46.6166C234.448 45.3749 232.948 50.562 232.438 54.998C232.288 56.3499 230.478 56.7104 229.828 55.5188C227.608 51.4933 224.088 47.0673 220.358 50.0413C216.178 53.3759 216.008 62.4882 216.338 68.0959C216.418 69.3976 214.818 70.0886 213.928 69.1473C211.958 67.0545 209.318 65.0117 207.178 66.0532C205.178 67.0145 204.668 70.1388 204.658 72.9726C204.658 74.3345 202.948 74.9052 202.128 73.8238C199.578 70.4592 195.868 66.5639 192.868 67.5752C189.308 68.7769 193.038 78.0094 195.598 83.4368C196.138 84.5784 194.998 85.8001 193.828 85.3395C191.428 84.3882 188.458 83.9775 186.848 86.6311C185.948 88.1132 186.188 90.1459 186.978 92.2588C187.418 93.4304 186.248 94.5119 185.098 94.0312C183.688 93.4404 182.228 93.3303 180.828 94.0613C178.268 95.4031 177.268 97.5862 176.948 99.6089C176.768 100.781 175.318 101.191 174.518 100.32C173.008 98.6876 170.928 97.3558 168.408 98.0568C166.508 98.5875 165.338 99.8091 164.618 101.171C164.048 102.262 162.418 102.052 162.068 100.881C160.448 95.5534 157.398 88.7541 152.598 90.0559C147.878 91.3376 145.408 96.0441 144.208 99.5088C143.798 100.7 142.158 100.77 141.618 99.6389C139.378 94.9325 134.828 87.5625 128.498 88.3436C122.888 89.0345 122.078 96.014 122.308 101.371C122.368 102.703 120.738 103.374 119.858 102.383C117.988 100.26 115.418 98.7978 112.488 101.111C108.198 104.506 114.688 113.868 118.778 118.995C119.578 119.997 118.718 121.429 117.448 121.238C115.028 120.878 112.008 121.028 109.658 123.021C106.668 125.564 111.058 132.043 114.658 136.429C115.548 137.511 114.468 139.093 113.138 138.652C108.378 137.08 101.628 135.618 97.9882 138.272C95.3082 140.224 94.7482 143.308 94.9582 146.132C95.0582 147.464 93.4082 148.155 92.5282 147.164C89.8082 144.13 86.1982 141.316 83.1182 143.028C80.2082 144.64 79.8282 147.725 80.1682 150.408C80.3182 151.6 78.9582 152.411 77.9782 151.71C75.8782 150.218 73.0682 149.267 70.1182 151.219C66.5682 153.582 68.5782 157.998 70.8282 161.223C71.5782 162.304 70.5982 163.746 69.3282 163.396C65.2282 162.264 59.4582 161.633 56.1882 165.519C52.2282 170.215 57.5682 176.213 60.8082 179.157C61.6282 179.908 61.2982 181.25 60.2282 181.551C56.9882 182.452 52.1582 184.525 53.1782 188.77C54.0182 192.265 58.1682 195.119 61.6982 196.962C62.8682 197.572 62.6382 199.315 61.3482 199.575C59.7082 199.916 58.2082 200.547 57.6982 201.728C57.1882 202.9 57.2982 204.051 57.6182 205.023C57.9582 206.034 57.0782 207.015 56.0282 206.835C52.8482 206.274 48.1882 206.184 46.3982 209.929C45.4682 211.882 46.1782 214.165 47.5482 216.348C48.2882 217.53 47.1082 218.932 45.8182 218.411C43.3082 217.38 40.6582 216.819 38.2982 217.369C35.5982 218 34.7882 220.143 34.8282 222.617C34.8482 223.908 33.1982 224.519 32.3682 223.528C29.7782 220.444 26.3982 217.99 22.6682 219.272C16.8982 221.265 18.8082 231.679 20.4882 237.817C20.8182 239.039 19.5182 240.05 18.4282 239.4C16.3982 238.188 13.6382 237.317 10.6182 238.518C6.0882 240.331 8.9682 248.722 10.8582 253.138C11.3182 254.2 10.3682 255.321 9.2382 255.051C7.2582 254.58 4.6282 254.11 2.5082 254.3C2.0382 254.34 1.6282 254.59 1.3782 254.991C-1.0618 258.946 -0.191797 267.227 0.808203 270.812C2.5482 277.061 3.9582 280.546 8.3682 285.472C11.6382 289.127 18.8082 294.284 13.4482 295.075C9.8882 295.606 7.3782 295.967 6.4182 298.901C6.3182 299.211 6.3482 299.552 6.4782 299.852C7.4382 302.125 8.3682 304.368 10.9082 305.78C11.3082 306 11.6482 306.291 11.9382 306.621C12.1882 306.761 12.4082 306.882 12.6582 307.022C16.5882 307.653 16.9882 312.149 15.0382 314.842C16.7882 315.493 18.4782 316.435 20.0282 317.726C23.2482 320.41 24.9882 323.674 25.4682 327.109C28.0482 327.7 30.5882 329.042 32.6682 330.914C33.9482 330.434 35.4382 330.263 37.1782 330.524C41.8982 331.225 44.2282 334.419 45.3882 338.314C47.3482 338.545 49.2182 339.526 50.7382 340.918C51.1282 341.278 51.4982 341.649 51.8582 342.029C53.9182 342.17 55.9382 342.1 57.8682 341.719C58.5882 341.579 59.3482 341.409 60.1282 341.238C60.5282 339.856 61.0882 338.515 61.8882 337.283C66.1682 330.664 74.2282 331.155 79.7082 335.811C86.2882 341.409 91.3582 353.145 89.8382 362.608C93.1582 364.781 95.0082 368.325 95.3982 372.301C102.528 375.095 107.908 382.415 107.078 390.355C107.008 391.036 106.878 391.707 106.708 392.378C106.938 392.448 107.158 392.528 107.388 392.598C108.168 391.577 109.188 390.676 110.498 389.975C116.368 386.821 124.368 388.242 130.548 389.474C135.348 390.435 140.498 391.727 145.078 393.83C145.148 393.53 145.208 393.249 145.258 392.999C145.388 392.298 146.018 391.807 146.728 391.857L429.658 409.441C429.778 409.441 429.898 409.441 430.018 409.421C432.618 408.901 463.668 402.622 469.438 397.745C473.028 394.721 469.648 392.308 466.338 390.846C465.118 390.305 465.248 388.533 466.538 388.202C472.108 386.75 480.348 384.077 477.668 381.493C475.378 379.28 472.008 378.159 469.578 377.608C468.508 377.368 468.138 376.046 468.898 375.255C469.598 374.524 470.178 373.663 470.138 372.821C470.048 370.729 468.448 369.928 465.308 369.807C464.388 369.767 463.858 369.757 463.548 369.747C464.238 369.427 467.948 367.534 467.948 363.959C467.948 362.888 467.288 362.197 466.328 361.766C465.348 361.326 465.278 360.014 466.118 359.353C467.528 358.252 468.078 356.509 466.188 353.785C462.768 348.849 456.668 351.993 453.128 354.506C452.148 355.197 450.818 354.436 450.918 353.245C451.138 350.611 450.958 347.227 448.868 345.915C448.588 345.735 448.308 345.594 448.028 345.484C447.028 345.074 446.878 343.722 447.738 343.071C450.038 341.349 451.868 339.406 450.938 338.034C449.998 336.652 448.288 335.971 446.698 335.651C445.488 335.4 445.138 333.848 446.138 333.127L447.178 332.376C447.798 331.936 448.648 332.056 449.108 332.657C450.708 334.73 454.258 338.795 455.838 336.322C456.388 335.471 456.458 334.569 456.268 333.718C456.008 332.536 457.208 331.575 458.278 332.146C462.928 334.609 469.178 337.433 469.758 335.18C470.278 333.167 469.348 329.552 468.418 326.749C468.008 325.507 469.358 324.425 470.478 325.106C475.148 327.93 483.258 332.036 487.268 329.282C489.908 327.47 490.158 324.756 489.638 322.333C489.368 321.051 490.878 320.16 491.898 320.981C496.118 324.345 502.238 328.291 505.908 326.428C509.158 324.786 509.778 321.081 509.658 318.027C509.608 316.745 511.188 316.104 512.078 317.025C514.178 319.208 516.738 321.171 517.768 319.178C518.408 317.947 518.718 316.595 518.858 315.333C518.938 314.562 519.628 313.971 520.388 314.091C521.008 314.191 521.868 313.981 523.038 313.27C527.378 310.637 526.118 303.947 525.888 302.916C525.868 302.826 525.848 302.756 525.808 302.676C525.488 301.935 523.548 297.769 519.888 297.769H515.928C519.218 297.659 526.178 296.818 526.228 291.671C526.268 287.665 521.898 284.972 518.348 283.44C517.128 282.909 517.238 281.146 518.518 280.796C524.798 279.064 534.868 275.248 531.698 269.19C528.628 263.332 522.798 264.253 519.358 265.455C518.458 265.766 517.568 265.115 517.508 264.153C517.458 263.442 517.108 262.701 516.138 262.07C516.118 262.06 516.098 262.04 516.078 262.03C515.108 261.42 515.188 259.958 516.248 259.537C518.638 258.586 520.908 256.994 520.408 254.45C520.178 253.309 519.718 252.558 519.128 252.077C518.318 251.416 518.588 250.094 519.548 249.694L519.588 249.674Z" fill="url(#paint1_linear_64_6)"/>
<path d="M122.721 175.08C122.721 175.08 108.041 167.73 117.111 163.835C126.181 159.939 131.791 161.672 131.791 161.672C131.791 161.672 120.781 156.915 128.231 154.752C135.681 152.589 139.241 153.671 139.241 153.671C139.241 153.671 119.261 145.56 125.421 138.971C131.571 132.372 139.241 137.349 139.241 137.349C139.241 137.349 135.461 129.888 142.701 129.568C149.931 129.247 153.071 133.573 153.071 133.573C153.071 133.573 144.541 110.973 158.041 108.71C171.541 106.436 165.271 123.41 165.271 123.41C165.271 123.41 169.271 116.17 175.851 116.921C182.441 117.682 184.161 128.597 184.161 128.597C184.161 128.597 188.051 118.753 195.931 119.294C203.811 119.835 208.021 126.644 208.021 126.644" stroke="black" stroke-width="3" stroke-miterlimit="10"/>
<path d="M413.177 131.613C413.177 131.613 409.717 117.984 419.007 119.286C428.297 120.588 428.297 129.019 428.297 129.019C428.297 129.019 431.967 105.668 439.307 109.773C446.647 113.879 444.057 127.938 444.057 127.938C444.057 127.938 453.557 117.774 457.667 123.832C461.767 129.891 458.967 137.671 458.967 137.671C458.967 137.671 472.787 123.832 477.107 131.403C481.427 138.973 468.037 148.917 468.037 148.917C468.037 148.917 481.647 147.405 480.127 154.534C478.617 161.674 472.567 165.559 472.567 165.559" stroke="black" stroke-width="3" stroke-miterlimit="10"/>
<path d="M213.641 62.5176L219.791 65.6519" stroke="black" stroke-width="2" stroke-miterlimit="10"/>
<path d="M218.07 54.627L224.55 62.5177" stroke="black" stroke-width="2" stroke-miterlimit="10"/>
<path d="M229.078 52.3555V60.036" stroke="black" stroke-width="2" stroke-miterlimit="10"/>
<path d="M241.172 51.7031L236.852 59.0633" stroke="black" stroke-width="2" stroke-miterlimit="10"/>
<path d="M346.877 116.692C346.877 116.692 346.657 114.098 350.547 112.797C354.437 111.495 356.157 111.715 356.157 111.715" fill="#BCD982"/>
<path d="M346.877 116.692C346.877 116.692 346.657 114.098 350.547 112.797C354.437 111.495 356.157 111.715 356.157 111.715" stroke="black" stroke-width="2" stroke-miterlimit="10"/>
<path d="M26.8398 262.008L37.4198 265.252" stroke="black" stroke-width="2" stroke-miterlimit="10"/>
<path d="M36.1219 251.195C36.1219 251.195 34.8219 256.813 37.4219 257.464C40.0119 258.115 42.3919 259.847 42.3919 259.847" fill="#BCD982"/>
<path d="M36.1219 251.195C36.1219 251.195 34.8219 256.813 37.4219 257.464C40.0119 258.115 42.3919 259.847 42.3919 259.847" stroke="black" stroke-width="2" stroke-miterlimit="10"/>
<path d="M49.5087 242.652C49.5087 242.652 49.0787 246.548 50.6987 248.6L52.3187 250.653" fill="#BCD982"/>
<path d="M49.5087 242.652C49.5087 242.652 49.0787 246.548 50.6987 248.6L52.3187 250.653" stroke="black" stroke-width="2" stroke-miterlimit="10"/>
<path d="M62.0392 243.195L59.4492 250.655" stroke="black" stroke-width="2" stroke-miterlimit="10"/>
<path d="M187.222 420.906C187.222 420.906 149.932 417.271 146.482 419.434C143.022 421.597 143.022 420.736 143.022 420.736C143.022 420.736 152.522 413.236 160.732 410.932C168.942 408.629 179.882 408.479 179.882 408.479C179.882 408.479 155.772 397.374 136.982 394.78C118.192 392.187 110.422 392.187 110.422 392.187C110.422 392.187 132.662 383.325 153.402 386.349C174.132 389.373 188.822 395.211 188.822 395.211L130.732 346.775C130.732 346.775 122.962 339.205 123.822 338.343L124.682 337.482L202.212 367.974C202.212 367.974 197.322 355.146 169.602 340.296C156.152 333.086 145.632 327.108 145.632 327.108C145.632 327.108 157.292 323.433 186.882 331.003C216.472 338.574 228.342 350.901 228.342 350.901C228.342 350.901 219.052 329.551 188.172 313.299C157.292 297.047 144.762 292.511 144.762 292.511C144.762 292.511 159.662 289.266 186.872 296.186C214.082 303.105 228.332 315.212 228.332 315.212L214.292 291.319C214.292 291.319 217.852 290.558 225.522 297.267C236.912 307.221 260.502 333.377 260.722 332.295C260.942 331.214 229.192 290.198 213.432 277.01C197.672 263.822 180.172 247.099 180.172 247.099C180.172 247.099 196.452 247.56 219.262 259.426C243.092 271.823 286.212 313.299 286.212 313.299C286.212 313.299 271.312 274.777 265.692 257.263C260.082 239.749 258.782 234.342 261.152 235.423C263.532 236.505 289.872 266.345 295.702 287.104C301.532 307.862 304.122 335.54 304.122 335.54C304.122 335.54 302.822 308.723 305.632 295.966C308.442 283.208 311.892 279.313 311.892 279.313L314.702 320.399C314.702 320.399 319.452 279.964 327.232 264.823C335.002 249.683 340.192 243.194 341.702 243.194C343.212 243.194 332.852 269.139 331.332 282.547C329.822 295.956 327.442 329.692 327.442 329.692C327.442 329.692 332.552 310.305 335.362 303.386C339.102 294.163 345.222 291.72 345.222 291.72L343.202 319.097C343.202 319.097 350.632 296.146 371.782 270.801C381.282 259.416 388.192 255.38 394.602 251.845C399.452 249.172 403.022 248.601 403.022 248.601C403.022 248.601 393.302 265.905 384.232 279.093C375.162 292.281 367.172 318.236 367.172 318.236C367.172 318.236 381.422 302.014 391.572 298.129C401.722 294.243 402.372 295.105 403.022 296.396C403.672 297.698 390.932 310.666 384.452 317.155C377.972 323.643 367.172 340.506 367.172 341.808C367.172 343.11 389.412 322.342 414.032 317.585C438.652 312.829 468.022 316.724 468.022 316.724C468.022 316.724 410.362 338.353 396.972 349.809C383.582 361.275 368.902 374.673 368.902 376.626C368.902 378.578 388.772 366.031 398.922 365.811C409.072 365.591 433.042 370.357 438.442 375.754C443.842 381.162 418.142 377.266 404.752 382.023C391.362 386.779 380.132 401.269 380.132 401.269C380.132 401.269 408.062 393.769 423.542 397.594C432.852 399.897 439.092 403.212 439.092 403.212L349.982 422.178" fill="#AEDF79"/>
<path d="M187.222 420.906C187.222 420.906 149.932 417.271 146.482 419.434C143.022 421.597 143.022 420.736 143.022 420.736C143.022 420.736 152.522 413.236 160.732 410.932C168.942 408.629 179.882 408.479 179.882 408.479C179.882 408.479 155.772 397.374 136.982 394.78C118.192 392.187 110.422 392.187 110.422 392.187C110.422 392.187 132.662 383.325 153.402 386.349C174.132 389.373 188.822 395.211 188.822 395.211L130.732 346.775C130.732 346.775 122.962 339.205 123.822 338.343L124.682 337.482L202.212 367.974C202.212 367.974 197.322 355.146 169.602 340.296C156.152 333.086 145.632 327.108 145.632 327.108C145.632 327.108 157.292 323.433 186.882 331.003C216.472 338.574 228.342 350.901 228.342 350.901C228.342 350.901 219.052 329.551 188.172 313.299C157.292 297.047 144.762 292.511 144.762 292.511C144.762 292.511 159.662 289.266 186.872 296.186C214.082 303.105 228.332 315.212 228.332 315.212L214.292 291.319C214.292 291.319 217.852 290.558 225.522 297.267C236.912 307.221 260.502 333.377 260.722 332.295C260.942 331.214 229.192 290.198 213.432 277.01C197.672 263.822 180.172 247.099 180.172 247.099C180.172 247.099 196.452 247.56 219.262 259.426C243.092 271.823 286.212 313.299 286.212 313.299C286.212 313.299 271.312 274.777 265.692 257.263C260.082 239.749 258.782 234.342 261.152 235.423C263.532 236.505 289.872 266.345 295.702 287.104C301.532 307.862 304.122 335.54 304.122 335.54C304.122 335.54 302.822 308.723 305.632 295.966C308.442 283.208 311.892 279.313 311.892 279.313L314.702 320.399C314.702 320.399 319.452 279.964 327.232 264.823C335.002 249.683 340.192 243.194 341.702 243.194C343.212 243.194 332.852 269.139 331.332 282.547C329.822 295.956 327.442 329.692 327.442 329.692C327.442 329.692 332.552 310.305 335.362 303.386C339.102 294.163 345.222 291.72 345.222 291.72L343.202 319.097C343.202 319.097 350.632 296.146 371.782 270.801C381.282 259.416 388.192 255.38 394.602 251.845C399.452 249.172 403.022 248.601 403.022 248.601C403.022 248.601 393.302 265.905 384.232 279.093C375.162 292.281 367.172 318.236 367.172 318.236C367.172 318.236 381.422 302.014 391.572 298.129C401.722 294.243 402.372 295.105 403.022 296.396C403.672 297.698 390.932 310.666 384.452 317.155C377.972 323.643 367.172 340.506 367.172 341.808C367.172 343.11 389.412 322.342 414.032 317.585C438.652 312.829 468.022 316.724 468.022 316.724C468.022 316.724 410.362 338.353 396.972 349.809C383.582 361.275 368.902 374.673 368.902 376.626C368.902 378.578 388.772 366.031 398.922 365.811C409.072 365.591 433.042 370.357 438.442 375.754C443.842 381.162 418.142 377.266 404.752 382.023C391.362 386.779 380.132 401.269 380.132 401.269C380.132 401.269 408.062 393.769 423.542 397.594C432.852 399.897 439.092 403.212 439.092 403.212L349.982 422.178" stroke="black" stroke-width="3" stroke-miterlimit="10"/>
<path d="M187.302 415.56L187.261 415.58L188.222 415.71L188.181 415.681L188.631 416.131L188.601 416.081L188.771 416.712V416.652C188.711 416.862 188.651 417.072 188.601 417.283L188.631 417.233L187.881 417.803L187.972 417.773H187.311C187.211 417.753 187.161 417.683 187.311 417.763C187.401 417.803 187.481 417.853 187.571 417.904C187.711 417.984 187.851 418.054 187.981 418.134C188.291 418.314 188.591 418.494 188.891 418.685C189.481 419.055 190.041 419.446 190.601 419.856C190.661 419.906 190.731 419.956 190.791 419.996C190.691 419.916 190.751 419.966 190.821 420.016C190.961 420.127 191.101 420.237 191.231 420.347C191.491 420.557 191.741 420.777 191.991 420.998C192.521 421.468 193.031 421.969 193.521 422.48C193.971 422.96 194.841 422.97 195.291 422.48C195.741 421.989 195.771 421.218 195.291 420.707C193.971 419.315 192.491 418.064 190.901 416.992C190.151 416.482 189.371 416.001 188.571 415.59C188.181 415.39 187.761 415.23 187.311 415.35C186.861 415.47 186.431 415.821 186.321 416.301C186.111 417.243 186.952 418.314 187.972 417.954C188.592 417.743 189.061 417.082 188.841 416.411C188.641 415.801 187.962 415.31 187.302 415.54V415.56Z" fill="black"/>
<path d="M193.189 413.807C194.009 414.177 194.779 414.628 195.509 415.159C195.829 415.389 195.339 415.008 195.649 415.259C195.729 415.319 195.809 415.389 195.889 415.449C196.059 415.589 196.229 415.739 196.389 415.9C196.719 416.21 197.029 416.53 197.319 416.871C197.449 417.021 197.579 417.181 197.709 417.341C197.579 417.171 197.789 417.442 197.809 417.482C197.879 417.582 197.949 417.682 198.019 417.782C198.269 418.153 198.509 418.533 198.719 418.934C198.819 419.114 198.909 419.294 198.999 419.474C199.049 419.584 199.099 419.695 199.149 419.805C199.239 420.005 199.149 419.775 199.189 419.905C199.359 420.346 199.509 420.786 199.639 421.237C199.819 421.888 200.529 422.288 201.179 422.108C201.829 421.928 202.229 421.227 202.049 420.566C200.969 416.681 198.139 413.296 194.439 411.644C193.819 411.373 193.099 411.463 192.729 412.094C192.419 412.625 192.559 413.526 193.179 413.807H193.189Z" fill="black"/>
<path d="M202.983 421.618C202.983 421.258 202.993 420.887 203.013 420.527C203.023 420.366 203.033 420.206 203.053 420.046C203.053 420.046 203.093 419.705 203.073 419.856C203.053 419.986 203.093 419.746 203.093 419.725C203.153 419.365 203.233 419.015 203.343 418.674C203.393 418.504 203.453 418.334 203.523 418.163C203.483 418.264 203.493 418.234 203.523 418.153C203.563 418.083 203.593 418.003 203.633 417.933C203.763 417.683 203.913 417.452 204.083 417.222C203.983 417.352 204.023 417.302 204.103 417.202C204.143 417.152 204.193 417.102 204.233 417.052C204.333 416.942 204.443 416.842 204.543 416.741C204.593 416.701 204.643 416.661 204.693 416.611C204.573 416.721 204.603 416.681 204.713 416.611C204.823 416.541 204.933 416.471 205.043 416.411C205.113 416.371 205.183 416.341 205.253 416.301C205.383 416.231 205.313 416.291 205.223 416.311C205.383 416.261 205.533 416.211 205.683 416.171C206.323 416.01 206.763 415.259 206.553 414.629C206.343 413.998 205.693 413.587 205.013 413.757C203.503 414.128 202.253 415.239 201.513 416.581C200.663 418.113 200.463 419.896 200.453 421.628C200.453 422.279 201.033 422.91 201.703 422.88C202.373 422.85 202.953 422.329 202.953 421.628L202.983 421.618Z" fill="black"/>
<path d="M210.394 423.66C210.704 423.119 211.024 422.588 211.374 422.078C211.454 421.957 211.544 421.837 211.634 421.707C211.674 421.657 211.714 421.597 211.754 421.547C211.914 421.337 211.604 421.737 211.754 421.547C211.944 421.307 212.144 421.066 212.364 420.846C212.564 420.636 212.774 420.425 212.994 420.235C213.064 420.175 213.284 420.045 213.324 419.955C213.174 420.065 213.154 420.085 213.254 420.005L213.314 419.955C213.374 419.905 213.444 419.865 213.504 419.825C213.744 419.664 213.994 419.524 214.254 419.394C214.324 419.364 214.394 419.334 214.464 419.294C214.384 419.334 214.154 419.454 214.464 419.294C214.614 419.234 214.764 419.194 214.914 419.144C215.544 418.963 215.994 418.252 215.784 417.602C215.574 416.951 214.924 416.54 214.244 416.73C211.444 417.521 209.594 419.955 208.214 422.378C207.894 422.949 208.064 423.77 208.664 424.09C209.264 424.411 210.024 424.251 210.374 423.64L210.394 423.66Z" fill="black"/>
<path d="M217.703 424.772C217.863 424.441 218.053 424.121 218.273 423.83L218.073 424.081C218.363 423.7 218.703 423.37 219.083 423.069L218.833 423.27C219.193 422.999 219.573 422.769 219.983 422.599L219.683 422.729C219.783 422.689 219.883 422.649 219.983 422.609C220.293 422.499 220.563 422.328 220.733 422.038C220.893 421.768 220.953 421.377 220.863 421.077C220.773 420.776 220.573 420.486 220.293 420.326C220.013 420.165 219.643 420.085 219.333 420.195C217.713 420.776 216.303 421.938 215.553 423.51C215.403 423.82 215.333 424.131 215.423 424.471C215.503 424.762 215.723 425.072 215.993 425.222C216.283 425.372 216.633 425.453 216.953 425.352C217.253 425.252 217.563 425.072 217.703 424.782V424.772Z" fill="black"/>
<path d="M226.771 423.84C226.871 423.71 226.961 423.57 227.061 423.44L226.861 423.69C227.461 422.919 228.151 422.228 228.921 421.627L228.671 421.828C228.961 421.607 229.261 421.397 229.571 421.197C229.841 421.027 230.061 420.766 230.141 420.446C230.221 420.125 230.191 419.745 230.011 419.484C229.651 418.934 228.891 418.663 228.301 419.034C226.831 419.955 225.591 421.157 224.601 422.569C224.421 422.819 224.401 423.25 224.471 423.53C224.541 423.81 224.771 424.131 225.041 424.281C225.331 424.431 225.681 424.511 226.001 424.411C226.321 424.311 226.551 424.111 226.751 423.84H226.771Z" fill="black"/>
<path d="M270.151 423.697C272.111 423.947 274.181 423.767 276.071 424.448C277.841 425.089 278.931 426.751 279.891 428.273C280.741 429.635 282.911 428.383 282.051 427.011C280.781 424.989 279.341 423.086 277.061 422.165C274.781 421.244 272.441 421.484 270.141 421.194C269.471 421.114 268.891 421.835 268.891 422.445C268.891 423.196 269.471 423.607 270.141 423.697H270.151Z" fill="black"/>
<path d="M278.4 418.921C278.79 418.84 278.29 418.921 278.51 418.921C278.63 418.921 278.41 418.87 278.62 418.921C278.65 418.921 278.94 419.021 278.84 418.981C278.76 418.95 279.04 419.091 279.05 419.091C279.46 419.321 279.6 419.461 279.96 419.802C280.54 420.362 281.18 421.063 281.62 421.624C282.06 422.185 282.58 422.986 282.97 423.687C283.18 424.068 283.38 424.458 283.57 424.859C283.61 424.939 283.64 425.019 283.68 425.099C283.68 425.099 283.81 425.389 283.77 425.309C283.8 425.389 283.93 425.72 283.99 425.89C284.22 426.501 284.85 426.981 285.53 426.761C286.13 426.571 286.65 425.88 286.4 425.219C285.66 423.206 284.62 421.374 283.28 419.712C281.94 418.049 280.09 415.986 277.74 416.497C277.1 416.637 276.67 417.418 276.87 418.039C277.09 418.71 277.72 419.061 278.41 418.91L278.4 418.921Z" fill="black"/>
<path d="M290.669 415.988C290.809 419.052 290.309 422.056 289.209 424.92C288.969 425.551 289.479 426.292 290.079 426.462C290.789 426.652 291.369 426.222 291.619 425.591C292.799 422.547 293.319 419.252 293.169 415.998C293.139 415.327 292.619 414.746 291.919 414.746C291.269 414.746 290.639 415.317 290.669 415.998V415.988Z" fill="black"/>
<path d="M296.078 425.962C296.168 425.651 296.278 425.341 296.398 425.031C296.418 424.991 296.548 424.68 296.418 424.971C296.448 424.9 296.488 424.82 296.518 424.75C296.588 424.6 296.658 424.45 296.738 424.31C296.888 424.019 297.048 423.739 297.228 423.458C297.328 423.308 297.428 423.158 297.528 423.008C297.568 422.958 297.608 422.898 297.638 422.848C297.668 422.808 297.868 422.557 297.678 422.788C298.098 422.277 298.528 421.796 299.018 421.356C299.138 421.245 299.268 421.145 299.388 421.035C299.418 421.005 299.688 420.815 299.448 420.985C299.518 420.935 299.578 420.885 299.648 420.835C299.928 420.635 300.218 420.444 300.518 420.274C301.078 419.944 301.328 419.133 300.968 418.562C300.608 417.991 299.858 417.761 299.258 418.111C296.568 419.693 294.548 422.297 293.668 425.291C293.488 425.922 293.888 426.683 294.538 426.833C295.188 426.983 295.878 426.633 296.078 425.962Z" fill="black"/>
<path d="M300.428 427.983C300.598 427.783 300.778 427.593 300.968 427.413C301.058 427.323 301.148 427.242 301.238 427.162C301.298 427.102 301.478 426.902 301.558 426.902C301.508 426.902 301.378 427.032 301.528 426.932C301.578 426.892 301.628 426.862 301.678 426.822C301.788 426.742 301.908 426.662 302.028 426.591C302.248 426.451 302.478 426.321 302.708 426.211C302.818 426.161 302.928 426.101 303.038 426.051C303.228 425.961 302.998 426.071 302.998 426.071C302.998 426.071 303.158 426.011 303.168 426.001C303.408 425.911 303.658 425.83 303.918 425.76C304.178 425.69 304.428 425.63 304.688 425.59C304.738 425.59 304.828 425.59 304.868 425.56C304.758 425.62 304.658 425.59 304.858 425.56C304.918 425.56 304.978 425.55 305.038 425.54C305.178 425.53 305.258 425.59 304.988 425.51L304.438 425.19L304.478 425.24L304.108 424.358V424.399C304.228 424.108 304.348 423.808 304.468 423.517L304.438 423.537L304.988 423.217H304.948C305.168 423.227 305.388 423.227 305.608 423.227H305.578C305.868 423.507 306.158 423.798 306.448 424.098V424.068C306.328 423.417 305.508 422.997 304.908 423.197C304.218 423.417 303.918 424.048 304.038 424.739V424.769C304.118 425.19 304.528 425.54 304.918 425.64C305.838 425.891 306.868 425.019 306.548 424.038C306.308 423.287 305.618 422.997 304.878 423.067C304.078 423.147 303.288 423.297 302.528 423.577C301.038 424.128 299.678 425.009 298.638 426.221C298.208 426.712 298.118 427.513 298.638 427.993C299.108 428.424 299.948 428.524 300.408 427.993L300.428 427.983Z" fill="black"/>
<path d="M336.702 421.536C336.682 421.727 336.752 421.406 336.712 421.506C336.682 421.576 336.782 421.376 336.792 421.356C336.852 421.256 336.912 421.166 336.982 421.076C336.912 421.176 337.022 421.036 337.042 421.016C337.182 420.855 337.322 420.685 337.472 420.535C337.532 420.475 337.592 420.415 337.652 420.355C337.672 420.335 337.902 420.144 337.822 420.205C337.752 420.265 338.012 420.084 338.012 420.084C338.082 420.044 338.162 420.004 338.232 419.964C338.012 420.054 338.602 419.884 338.472 419.904C338.332 419.934 338.642 419.894 338.672 419.894C338.752 419.894 338.832 419.894 338.922 419.894C339.292 419.894 338.812 419.864 339.022 419.894C339.122 419.914 339.222 419.934 339.332 419.964C339.972 420.134 340.432 420.445 340.942 420.966C341.102 421.126 341.242 421.286 341.392 421.456C341.452 421.526 341.502 421.596 341.562 421.667C341.472 421.546 341.622 421.747 341.652 421.787C341.902 422.127 342.142 422.478 342.382 422.828C342.762 423.389 343.482 423.629 344.092 423.279C344.642 422.958 344.922 422.127 344.542 421.566C343.312 419.744 341.852 417.781 339.512 417.451C338.242 417.271 337.082 417.571 336.102 418.402C335.122 419.233 334.342 420.275 334.222 421.526C334.162 422.177 334.842 422.808 335.472 422.778C336.202 422.748 336.662 422.227 336.722 421.526L336.702 421.536Z" fill="black"/>
<path d="M344.4 417.141C345.12 417.652 345.85 418.162 346.56 418.683C346.62 418.723 346.86 418.843 346.62 418.723C346.69 418.763 346.79 418.863 346.85 418.913C346.99 419.044 347.11 419.174 347.24 419.314C347.44 419.544 347.1 419.094 347.27 419.344C347.32 419.424 347.37 419.494 347.42 419.574C347.52 419.724 347.61 419.885 347.69 420.055C347.73 420.135 347.77 420.215 347.81 420.305C347.84 420.375 347.96 420.636 347.83 420.345C347.91 420.515 347.97 420.696 348.03 420.866C348.16 421.216 348.26 421.577 348.38 421.927C348.48 422.228 348.59 422.508 348.83 422.718C349.23 423.069 349.74 423.199 350.25 422.989C351.27 422.558 351.27 421.216 350.38 420.656C349.94 420.375 349.21 420.445 348.87 420.856L348.85 420.876C348.42 421.367 348.33 422.168 348.85 422.648C349.32 423.079 350.16 423.179 350.62 422.648L350.64 422.628L349.13 422.829L349.15 422.849L348.7 422.398L348.72 422.428L348.55 421.797V421.837C348.76 421.477 348.96 421.116 349.17 420.756L349.14 420.776L350.1 420.646H350.05C350.23 420.746 350.42 420.856 350.6 420.956C350.87 421.186 350.88 421.527 350.78 421.226C350.76 421.156 350.73 421.076 350.71 421.006C350.66 420.856 350.62 420.706 350.57 420.566C350.47 420.265 350.37 419.975 350.25 419.684C349.95 418.963 349.61 418.313 349.12 417.692C348.68 417.131 348.11 416.72 347.53 416.31C346.91 415.869 346.28 415.419 345.66 414.978C345.13 414.597 344.25 414.868 343.95 415.429C343.61 416.069 343.83 416.73 344.4 417.141Z" fill="black"/>
<path d="M353.752 420.877C353.682 420.176 353.672 419.465 353.752 418.754C353.752 418.664 353.772 418.574 353.782 418.494C353.762 418.634 353.782 418.494 353.792 418.434C353.822 418.264 353.852 418.084 353.892 417.913C353.972 417.543 354.072 417.182 354.182 416.822C354.562 415.64 355.302 414.378 356.152 413.457C356.612 412.956 356.642 412.176 356.152 411.685C355.692 411.224 354.842 411.184 354.382 411.685C352.112 414.138 350.912 417.533 351.252 420.867C351.322 421.518 351.782 422.149 352.502 422.119C353.122 422.089 353.822 421.568 353.752 420.867V420.877Z" fill="black"/>
<path d="M359.943 419.856C360.823 416.391 362.893 413.227 365.763 411.134C366.303 410.733 366.573 410.042 366.213 409.422C365.903 408.881 365.053 408.57 364.503 408.971C361.083 411.474 358.583 415.069 357.533 419.195C357.363 419.846 357.743 420.557 358.403 420.737C359.063 420.917 359.773 420.517 359.943 419.866V419.856Z" fill="black"/>
<path d="M366.694 418.703C367.184 417.041 368.244 415.599 369.444 414.317C370.854 412.815 372.414 411.443 374.044 410.182C374.574 409.771 374.474 408.85 374.044 408.409C373.514 407.878 372.814 407.999 372.274 408.409C370.564 409.731 368.924 411.173 367.474 412.765C366.024 414.357 364.884 416.019 364.284 418.032C364.094 418.683 364.514 419.394 365.154 419.574C365.794 419.754 366.494 419.354 366.694 418.703Z" fill="black"/>
<path d="M497.594 330.426C497.398 330.647 497.739 330.921 497.609 330.699C497.587 330.624 497.573 330.579 497.64 330.527L497.934 330.31L497.702 330.378L497.594 330.426Z" fill="#020102"/>
<path d="M481.307 345.425L485.756 344.117C484.246 344.455 482.76 344.892 481.307 345.425Z" fill="#BA9462"/>
<path d="M501.656 328.885C505.689 327.764 509.711 326.606 513.723 325.443L501.656 328.885Z" fill="#B99461"/>
<path d="M498.177 330.12C498.879 329.767 499.61 329.476 500.363 329.249C499.598 329.439 498.863 329.732 498.177 330.12Z" fill="#B99461"/>
<path d="M497.69 330.337L497.922 330.268L498.155 330.119L497.69 330.337Z" fill="#B99461"/>
<path d="M536.716 358.26L536.574 358.301L536.521 358.48C536.591 358.411 536.657 358.338 536.716 358.26Z" fill="#B99462"/>
<path d="M570.648 427.416C575.518 427.947 580.428 428.108 585.328 427.897L570.648 427.416Z" fill="#5B8493"/>
<path d="M570.648 428.668C575.518 429.199 580.428 429.359 585.328 429.149C586.928 429.079 586.938 426.576 585.328 426.646C580.428 426.856 575.528 426.696 570.648 426.165C569.978 426.095 569.398 426.796 569.398 427.417C569.398 428.158 569.978 428.598 570.648 428.668Z" fill="black"/>
<path d="M558.492 425.725C563.152 422.481 569.132 421.199 574.712 422.25L558.492 425.725Z" fill="#5B8493"/>
<path d="M559.12 426.805C563.55 423.761 569.08 422.499 574.38 423.46C575.95 423.751 576.63 421.338 575.04 421.047C569.09 419.966 562.86 421.207 557.85 424.642C556.53 425.543 557.78 427.716 559.11 426.805H559.12Z" fill="black"/>
<path d="M550.25 427.337C552 420.918 557.98 415.902 564.6 415.301L550.25 427.337Z" fill="#5B8493"/>
<path d="M551.461 427.666C553.101 421.788 558.511 417.142 564.601 416.551C565.271 416.481 565.851 416.021 565.851 415.3C565.851 414.669 565.281 413.978 564.601 414.048C557.391 414.749 551.011 419.986 549.051 427.006C548.621 428.558 551.031 429.219 551.461 427.666Z" fill="black"/>
<path d="M564.219 388.694C568.829 387.563 573.759 387.773 578.249 389.295C579.029 389.556 579.949 390.146 579.749 390.938" fill="#5B8493"/>
<path d="M564.551 389.905C567.031 389.314 569.581 389.114 572.131 389.304C573.341 389.395 574.551 389.595 575.731 389.875C576.381 390.025 577.021 390.206 577.651 390.416C577.861 390.486 578.021 390.536 578.211 390.636C578.521 390.796 578.491 390.967 578.541 390.606C578.441 391.277 578.701 391.948 579.411 392.148C580.001 392.309 580.851 391.948 580.951 391.277C581.191 389.655 580.111 388.664 578.681 388.133C577.141 387.562 575.501 387.222 573.881 387.001C570.541 386.541 567.171 386.711 563.891 387.492C562.331 387.862 562.991 390.286 564.551 389.905Z" fill="black"/>
<path d="M579.453 383.377C581.663 384.488 583.913 385.63 585.723 387.332C587.533 389.035 588.873 391.388 588.783 393.871" fill="#5B8493"/>
<path d="M578.822 384.458C582.562 386.341 587.662 388.964 587.532 393.861C587.492 395.473 589.992 395.473 590.032 393.861C590.102 391.157 588.782 388.624 586.912 386.731C585.042 384.839 582.502 383.507 580.082 382.285C579.482 381.985 578.732 382.125 578.372 382.736C578.052 383.297 578.212 384.148 578.822 384.448V384.458Z" fill="black"/>
<path d="M587.164 381.375C589.264 383.147 591.394 384.94 592.984 387.183C594.574 389.426 595.594 392.2 595.204 394.913" fill="#5B8493"/>
<path d="M586.273 382.265C590.063 385.459 594.653 389.414 593.943 394.922C593.853 395.593 594.583 396.174 595.193 396.174C595.943 396.174 596.353 395.593 596.443 394.922C597.243 388.744 592.313 384.097 588.033 380.492C587.513 380.062 586.773 379.982 586.263 380.492C585.813 380.943 585.743 381.824 586.263 382.265H586.273Z" fill="black"/>
</g>
<defs>
<linearGradient id="paint0_linear_64_6" x1="-0.161797" y1="227.944" x2="539.948" y2="227.944" gradientUnits="userSpaceOnUse">
<stop stop-color="#D3FD99"/>
<stop offset="1" stop-color="#D8FE9C"/>
</linearGradient>
<linearGradient id="paint1_linear_64_6" x1="-0.161797" y1="227.944" x2="539.948" y2="227.944" gradientUnits="userSpaceOnUse">
<stop stop-color="#D3FD99"/>
<stop offset="1" stop-color="#D8FE9C"/>
</linearGradient>
<clipPath id="clip0_64_6">
<rect width="597" height="429" fill="white"/>
</clipPath>
</defs>
</svg>