<svg width="99" height="104" viewBox="0 0 99 104" fill="none" xmlns="http://www.w3.org/2000/svg">
<path d="M47.3274 82.7664C42.9704 83.4129 38.6301 84.2376 34.1866 83.84C32.1207 83.6562 30.0177 83.581 28.0152 83.1169C22.9409 81.9406 18.2031 79.8843 13.8434 77.0014C12.963 76.4188 12.0677 75.8574 11.1761 75.2907C8.083 73.3188 5.34232 70.9379 2.99606 68.1224C2.51076 67.5416 2.10328 66.8731 1.77328 66.196C1.40226 65.4423 1.62285 64.861 2.33862 64.4315C2.70927 64.2099 3.11473 64.0287 3.52329 63.8656C5.18617 63.2176 6.88789 62.6605 8.5082 61.9269C11.6564 60.4895 14.7894 59.0176 17.8646 57.4256C20.7574 55.9346 23.3863 54.0431 25.6214 51.6433C27.4051 49.7251 29.1766 47.7904 30.9656 45.876C31.3114 45.5101 31.6806 45.1447 32.1014 44.8634C32.7306 44.4441 33.4327 44.5836 33.809 45.341C34.7478 47.2094 36.0547 48.8148 37.5746 50.2535C39.9035 52.4543 42.5527 54.1681 45.476 55.4493C48.1278 56.61 50.9203 57.0219 53.8047 56.6981C55.327 56.5294 55.3118 56.4949 55.6333 55.0416C56.7993 49.6904 56.9859 44.2892 56.4747 38.8547C56.3077 37.072 56.0624 35.2656 56.4871 33.5206C57.0527 31.2172 58.0681 30.2067 60.4202 31.0287C63.064 31.9539 65.7539 32.7689 68.4591 33.4838C72.3768 34.5245 76.3604 35.1916 80.4405 35.15C83.7282 35.1192 86.9948 34.9388 90.1658 33.9852C91.1779 33.6859 92.1954 33.3903 93.2138 33.127C94.5162 32.7871 94.9068 33.0869 95.098 34.4428C95.2501 35.5174 95.0032 36.5399 94.772 37.5735C93.8934 41.5423 92.1673 45.1738 89.9407 48.5149C86.1 54.2746 82.0426 59.8811 77.0958 64.7719C74.8164 67.0214 72.5907 69.3406 70.1788 71.4411C66.3688 74.7571 61.937 77.1581 57.3581 79.6216C54.2206 80.9317 50.9107 82.239 47.338 82.7739L47.3274 82.7664ZM69.2866 42.2732C68.8667 44.3703 68.0222 46.2943 66.8051 48.0501C65.9078 49.3422 64.7848 50.348 63.1933 50.6818C62.5611 50.8137 62.2747 51.1741 62.186 51.7931C62.0155 52.9092 61.845 54.0254 61.612 55.129C60.3773 61.0261 58.1017 66.4333 54.2361 71.129C51.8919 73.9748 49.4712 76.727 46.4523 78.8899C45.8112 79.3484 45.1754 79.8107 44.5066 80.2972C44.856 80.7898 45.2272 80.6796 45.5632 80.6079C47.5884 80.1763 49.6601 79.8807 51.6242 79.2553C57.5815 77.3538 63.0075 74.3871 67.7659 70.3462C74.1789 64.9062 79.2016 58.3489 82.6162 50.6235C82.7732 50.2667 82.891 49.8981 83.0499 49.4714C82.7059 49.3076 82.4584 49.1643 82.1953 49.0655C79.7418 48.1402 78.6868 46.6494 78.6398 44.024C78.6426 43.9864 78.6364 43.9503 78.6392 43.9127C78.762 42.4378 78.8594 42.356 77.0663 42.2461C74.9254 42.1124 72.7973 41.8371 70.6568 41.6244C70.3021 41.5878 69.946 41.5421 69.3729 41.478C69.3435 41.7664 69.3313 42.0193 69.2813 42.2694L69.2866 42.2732ZM51.0782 64.3471C47.0416 64.0468 43.2898 62.9172 39.9144 60.6269C39.7082 60.4812 39.4706 60.3687 39.2756 60.2072C38.7588 59.7943 38.2838 59.7599 37.6881 60.1316C36.9154 60.6081 36.0706 60.9622 35.2531 61.3674C33.0138 62.4721 30.9455 62.1123 29.0234 60.6033C28.8247 60.447 28.6282 60.2764 28.4407 60.1043C27.4336 59.1626 27.4147 59.1334 26.372 59.9581C24.1473 61.7152 21.5732 62.8449 19.0455 64.0549C18.7489 64.1941 18.4524 64.3333 18.1642 64.4943C18.0749 64.5421 18.0129 64.641 17.8302 64.821C18.0665 65.1148 18.2862 65.4208 18.5337 65.6987C19.0915 66.3228 19.6897 66.9121 20.2182 67.5551C21.6054 69.2489 21.8193 71.0885 20.8531 73.0613C20.7563 73.2544 20.679 73.4535 20.5525 73.7446C21.1269 74.0871 21.6765 74.42 22.2207 74.7491C22.7808 75.0895 23.3297 75.4457 23.901 75.7702C26.546 77.2432 29.4245 77.9933 32.356 78.6461C34.0074 79.0126 35.4952 78.7244 37.0212 78.0906C42.86 75.6615 47.4317 71.7501 50.7974 66.4158C51.1595 65.8473 51.6635 65.3473 51.8248 64.5022C51.4835 64.4354 51.2733 64.374 51.0655 64.354L51.0782 64.3471ZM83.1775 54.3495C85.105 51.7007 87.0944 49.0876 88.9072 46.3656C90.9388 43.3226 92.425 39.9972 93.4194 36.459C93.5148 36.1222 93.5371 35.7653 93.6182 35.2916C93.2452 35.3371 92.9892 35.3068 92.7857 35.3928C86.1095 38.1656 79.2129 38.4124 72.1843 37.2421C68.2203 36.581 64.3842 35.4473 60.5811 34.1548C60.1469 34.0064 59.6949 33.9169 59.0958 33.7551C59.0952 34.3729 59.0523 34.8262 59.0974 35.2782C59.4493 38.6501 59.6265 42.0334 59.5126 45.4249C59.3532 49.9576 58.7089 54.4249 57.2284 58.7294C56.0907 62.0553 54.4943 65.1442 52.4739 68.0366C50.1413 71.3821 47.503 74.4085 44.1782 76.7912C41.9781 78.3675 39.576 79.5792 37.0394 80.5213C36.769 80.6235 36.4949 80.731 36.2382 80.8587C36.1526 80.9013 36.0975 81.0129 35.9455 81.183C36.1959 81.2886 36.4052 81.4523 36.6099 81.4543C37.4807 81.4673 38.3595 81.4463 39.23 81.4036C39.5106 81.3878 39.8218 81.3065 40.0611 81.1586C42.6401 79.5171 45.336 78.0692 47.708 76.115C50.2673 74.0078 52.244 71.4016 54.2138 68.7827C56.8729 65.2557 58.4586 61.2397 59.5098 57.0044C59.9819 55.1026 60.1345 53.1256 60.437 51.1833C60.4698 50.9687 60.5207 50.7509 60.5444 50.5378C60.6451 49.6102 61.1893 49.0197 62.0647 48.925C64.2678 48.6905 65.4284 47.2277 66.3813 45.4755C67.1717 44.0206 67.7693 42.5246 67.6026 40.7976C67.4995 39.7656 68.1055 39.3457 69.2223 39.4928C70.8134 39.6978 72.3943 39.951 73.9836 40.0913C75.2898 40.2059 76.5999 40.1805 77.9155 40.2145C78.3122 40.2253 78.7185 40.2113 79.1129 40.2364C80.5169 40.3249 80.9885 40.8802 80.8788 42.2692C80.8315 42.8857 80.7698 43.5001 80.7745 44.1217C80.7744 45.9052 81.6113 46.9644 83.3482 47.423C83.6639 47.5034 83.9974 47.5251 84.3094 47.6108C85.0313 47.8119 85.2666 48.208 85.0279 48.9272C84.844 49.4789 84.5659 49.9958 84.3127 50.5224C83.7623 51.6713 83.1977 52.818 82.6563 53.9653C82.523 54.2437 82.441 54.5504 82.3341 54.8474C82.3976 54.8922 82.4557 54.9333 82.5192 54.9782C82.7439 54.7723 83.0072 54.6017 83.1791 54.3585L83.1775 54.3495ZM28.9729 79.4736C26.3025 78.7992 23.8091 77.6949 21.4362 76.3191C20.6618 75.867 19.9986 75.2239 19.2958 74.6479C18.8583 74.2912 18.8635 73.8351 19.0794 73.3614C19.232 73.0333 19.4238 72.717 19.5659 72.3814C20.1185 71.0835 20.1055 69.8456 19.2342 68.667C18.4008 67.5469 17.4783 66.5303 16.3103 65.7603C15.0999 64.9604 15.1609 64.3694 16.4978 63.6891C18.219 62.8128 19.9622 61.9838 21.6303 61.0144C23.26 60.0655 24.8282 59.0019 26.3859 57.9307C27.4951 57.1688 27.8059 57.1665 28.875 58.0092C29.6116 58.5933 30.3813 59.1531 31.1927 59.6314C32.3754 60.3246 33.6319 60.2852 34.8648 59.7296C35.6577 59.3704 36.4717 59.0262 37.2152 58.5687C38.0847 58.0338 38.7986 58.134 39.6315 58.683C40.8116 59.4695 42.0441 60.182 43.3071 60.8288C44.0759 61.2216 44.9298 61.4604 45.7655 61.7022C46.7777 61.9974 47.8063 62.2805 48.8397 62.4559C49.9499 62.646 51.0754 62.7359 52.2031 62.8115C52.4899 62.8319 52.9408 62.6987 53.0579 62.4882C53.6269 61.4476 54.109 60.3615 54.3954 59.0815C54.0221 59.0713 53.7788 59.0341 53.5479 59.0692C50.0699 59.56 46.7317 59.135 43.5304 57.6415C40.0878 56.0408 37.024 53.9151 34.4065 51.1695C33.9071 50.6422 33.4834 50.0415 33.0081 49.4915C32.7818 49.2285 32.5187 48.9951 32.1988 48.6738C31.8094 49.0566 31.5015 49.3463 31.2111 49.6563C29.1018 51.923 27.0394 54.2467 24.5428 56.097C23.2284 57.0706 21.855 57.9707 20.427 58.7688C18.4278 59.8926 16.3908 60.9579 14.3118 61.9143C11.3086 63.3035 8.27272 64.638 5.03622 65.4263C4.79944 65.4809 4.58253 65.5972 4.19949 65.7466C4.46994 66.1042 4.65426 66.393 4.88432 66.6507C7.44213 69.481 10.2773 71.9524 13.6355 73.8184C15.7659 74.999 17.7903 76.3743 19.9469 77.5179C22.1298 78.6801 24.4283 79.6228 26.8396 80.2489C27.899 80.522 28.9027 80.4703 29.9018 80.1221C29.9171 80.022 29.9377 79.9255 29.953 79.8254C29.6258 79.7051 29.3082 79.5599 28.9782 79.4773L28.9729 79.4736Z" fill="black"/>
<path d="M69.3733 41.4788C69.3439 41.7672 69.3317 42.0201 69.2817 42.2702C68.8618 44.3674 68.0173 46.2914 66.8003 48.0471C65.9029 49.3392 64.7799 50.345 63.1885 50.6788C62.5562 50.8107 62.2698 51.1711 62.1811 51.7901C62.0106 52.9063 61.8401 54.0224 61.6071 55.126C60.3724 61.0232 58.0968 66.4303 54.2312 71.126C51.887 73.9719 49.4663 76.7241 46.4475 78.887C45.8063 79.3455 45.1705 79.8077 44.5017 80.2942C44.8511 80.7869 45.2223 80.6766 45.5583 80.605C47.5835 80.1734 49.6553 79.8778 51.6193 79.2523C57.5767 77.3508 63.0027 74.3842 67.761 70.3432C74.174 64.9032 79.1967 58.3459 82.6113 50.6205C82.7683 50.2638 82.8861 49.8952 83.045 49.4684C82.7011 49.3046 82.4535 49.1614 82.1904 49.0626C79.7369 48.1372 78.6819 46.6465 78.6349 44.0211C78.6377 43.9834 78.6315 43.9473 78.6343 43.9097C78.7571 42.4348 78.8545 42.3531 77.0614 42.2432C74.9205 42.1094 72.7924 41.8342 70.6519 41.6214C70.2973 41.5848 69.9411 41.5392 69.3681 41.4751L69.3733 41.4788Z" fill="white"/>
<path d="M51.8337 64.4905C51.4924 64.4237 51.2822 64.3623 51.0743 64.3423C47.0377 64.042 43.2859 62.9124 39.9105 60.622C39.7043 60.4763 39.4667 60.3639 39.2717 60.2023C38.7549 59.7895 38.2799 59.755 37.6842 60.1268C36.9115 60.6032 36.0667 60.9574 35.2492 61.3626C33.0099 62.4673 30.9416 62.1074 29.0196 60.5984C28.8208 60.4422 28.6243 60.2716 28.4368 60.0994C27.4297 59.1578 27.4108 59.1285 26.3681 59.9533C24.1434 61.7103 21.5693 62.84 19.0416 64.05C18.745 64.1892 18.4485 64.3284 18.1603 64.4894C18.071 64.5373 18.009 64.6362 17.8263 64.8162C18.0626 65.11 18.2823 65.4159 18.5298 65.6939C19.0876 66.318 19.6858 66.9072 20.2143 67.5502C21.6015 69.244 21.8154 71.0837 20.8492 73.0564C20.7524 73.2496 20.6751 73.4486 20.5486 73.7397C21.1231 74.0823 21.6726 74.4152 22.2168 74.7443C22.7769 75.0846 23.3258 75.4409 23.8971 75.7654C26.5422 77.2383 29.4206 77.9885 32.3521 78.6413C34.0035 79.0078 35.4913 78.7196 37.0173 78.0858C42.8562 75.6566 47.4278 71.7453 50.7935 66.4109C51.1556 65.8424 51.6596 65.3425 51.8209 64.4973L51.8337 64.4905Z" fill="white"/>
<path d="M82.5131 54.9672C82.7378 54.7614 83.0011 54.5907 83.173 54.3475C85.1005 51.6987 87.0899 49.0857 88.9027 46.3636C90.9343 43.3207 92.4205 39.9953 93.4149 36.4571C93.5103 36.1202 93.5325 35.7634 93.6137 35.2896C93.2407 35.3352 92.9847 35.3048 92.7811 35.3909C86.1049 38.1637 79.2084 38.4105 72.1797 37.2402C68.2158 36.579 64.3796 35.4454 60.5766 34.1528C60.1424 34.0045 59.6904 33.9149 59.0913 33.7531C59.0906 34.371 59.0478 34.8242 59.0929 35.2763C59.4447 38.6482 59.622 42.0315 59.5081 45.423C59.3487 49.9556 58.7044 54.4229 57.2239 58.7274C56.0862 62.0533 54.4897 65.1423 52.4694 68.0347C50.1367 71.3801 47.4985 74.4066 44.1736 76.7893C41.9736 78.3656 39.5715 79.5772 37.0349 80.5193C36.7645 80.6215 36.4904 80.729 36.2336 80.8567C36.1481 80.8993 36.0929 81.011 35.941 81.181C36.1914 81.2866 36.4007 81.4504 36.6054 81.4524C37.4761 81.4653 38.355 81.4444 39.2255 81.4016C39.5061 81.3859 39.8172 81.3046 40.0566 81.1566C42.6356 79.5152 45.3314 78.0673 47.7034 76.1131C50.2628 74.0059 52.2394 71.3997 54.2093 68.7807C56.8683 65.2537 58.4541 61.2377 59.5052 57.0024C59.9773 55.1006 60.1299 53.1237 60.4325 51.1813C60.4653 50.9667 60.5161 50.749 60.5399 50.5359C60.6406 49.6082 61.1847 49.0178 62.0602 48.9231C64.2632 48.6885 65.4238 47.2258 66.3768 45.4736C67.1672 44.0187 67.7647 42.5226 67.598 40.7956C67.495 39.7637 68.101 39.3437 69.2177 39.4909C70.8089 39.6959 72.3897 39.9491 73.9791 40.0893C75.2853 40.2039 76.5954 40.1785 77.911 40.2126C78.3076 40.2234 78.7139 40.2093 79.1084 40.2344C80.5123 40.3229 80.984 40.8782 80.8743 42.2672C80.827 42.8838 80.7653 43.4982 80.7699 44.1197C80.7699 45.9033 81.6067 46.9624 83.3437 47.421C83.6594 47.5015 83.9929 47.5231 84.3048 47.6089C85.0268 47.8099 85.2621 48.2061 85.0234 48.9252C84.8395 49.477 84.5614 49.9939 84.3082 50.5204C83.7578 51.6693 83.1931 52.816 82.6518 53.9634C82.5185 54.2417 82.4365 54.5484 82.3296 54.8455C82.3931 54.8903 82.4512 54.9314 82.5146 54.9762L82.5131 54.9672Z" fill="white"/>
<path d="M29.9467 79.8208C29.6195 79.7005 29.302 79.5554 28.9719 79.4727C26.3015 78.7983 23.8081 77.6941 21.4352 76.3183C20.6608 75.8661 19.9976 75.223 19.2948 74.6471C18.8573 74.2903 18.8625 73.8342 19.0784 73.3606C19.231 73.0324 19.4228 72.7162 19.5649 72.3806C20.1175 71.0827 20.1045 69.8448 19.2332 68.6662C18.3998 67.546 17.4773 66.5295 16.3093 65.7595C15.0989 64.9596 15.1599 64.3685 16.4968 63.6883C18.218 62.812 19.9612 61.9829 21.6293 61.0136C23.259 60.0647 24.8273 59.001 26.3849 57.9298C27.4941 57.168 27.8049 57.1656 28.874 58.0084C29.6106 58.5924 30.3803 59.1522 31.1917 59.6305C32.3744 60.3237 33.6309 60.2843 34.8638 59.7288C35.6567 59.3696 36.4707 59.0253 37.2142 58.5678C38.0837 58.0329 38.7976 58.1332 39.6305 58.6821C40.8106 59.4686 42.0431 60.1811 43.3061 60.828C44.0749 61.2207 44.9288 61.4595 45.7646 61.7014C46.7767 61.9966 47.8053 62.2797 48.8387 62.4551C49.9489 62.6452 51.0744 62.7351 52.2021 62.8107C52.4889 62.8311 52.9398 62.6979 53.0569 62.4873C53.6259 61.4467 54.1081 60.3606 54.3944 59.0806C54.0211 59.0705 53.7778 59.0333 53.5469 59.0683C50.0689 59.5591 46.7307 59.1341 43.5294 57.6406C40.0868 56.0399 37.023 53.9143 34.4055 51.1686C33.9061 50.6413 33.4825 50.0407 33.0071 49.4907C32.7808 49.2277 32.5177 48.9942 32.1978 48.673C31.8084 49.0557 31.5005 49.3455 31.2101 49.6555C29.1008 51.9222 27.0384 54.2459 24.5418 56.0961C23.2274 57.0697 21.854 57.9699 20.426 58.768C18.4268 59.8918 16.3898 60.9571 14.3108 61.9135C11.3076 63.3027 8.27173 64.6371 5.03523 65.4255C4.79845 65.4801 4.58154 65.5963 4.19849 65.7457C4.46895 66.1034 4.65327 66.3922 4.88333 66.6499C7.44114 69.4802 10.2763 71.9516 13.6345 73.8176C15.7649 74.9982 17.7894 76.3734 19.9459 77.517C22.1288 78.6793 24.4273 79.622 26.8386 80.248C27.898 80.5212 28.9017 80.4695 29.9008 80.1213C29.9161 80.0211 29.9367 79.9247 29.952 79.8245L29.9467 79.8208Z" fill="white"/>
<path d="M65.8909 56.2842C66.4658 56.3505 66.938 56.4023 67.4145 56.4557C68.1921 56.545 68.9672 56.6284 69.7432 56.722C70.2369 56.782 70.2843 56.7607 70.4331 56.2663C70.6021 55.7059 70.7866 55.1563 71.1725 54.6981C71.7115 54.0572 72.3665 53.8096 73.2113 53.9293C74.6826 54.135 75.347 55.1552 75.8119 56.3897C75.9415 56.7342 75.993 57.1031 76.0505 57.4692C76.0859 57.6992 76.193 57.8186 76.4176 57.8746C76.7041 57.9492 76.9883 58.0425 77.2692 58.1445C77.4513 58.2089 77.6042 58.3113 77.5961 58.5395C77.5882 58.7283 77.4432 58.8896 77.2004 58.9201C76.9941 58.945 76.7752 58.9256 76.5649 58.9095C76.1083 58.8686 76.0371 58.9005 75.9489 59.3392C75.8551 59.8053 75.6857 60.2376 75.4148 60.6264C75.3189 60.7621 75.2015 60.8896 75.0718 60.9977C74.9648 61.0849 74.8104 61.1934 74.697 61.0518C74.636 60.9794 74.6589 60.816 74.6869 60.7036C74.7181 60.5827 74.8112 60.4804 74.8613 60.3617C75.0056 60.0083 75.1687 59.6572 75.2786 59.2908C75.3918 58.9157 75.3069 58.7899 74.9267 58.7289C73.7922 58.5431 72.6561 58.3617 71.515 58.1931C71.1752 58.1425 71.0887 58.2277 71.0563 58.5843C71.0158 59.0657 70.9709 59.5455 70.9449 60.0275C70.9014 60.7881 70.6388 61.4654 70.2139 62.0908C69.5933 63.0106 67.8841 63.7277 66.5098 62.9441C65.2433 62.2261 64.5502 61.1261 64.3095 59.7161C64.207 59.1065 64.2163 58.5001 64.3436 57.8943C64.3601 57.812 64.3826 57.7271 64.3905 57.6416C64.4144 57.385 64.355 57.3083 64.1007 57.2657C63.819 57.2175 63.5366 57.1839 63.2598 57.1228C62.8964 57.0435 62.701 56.8462 62.715 56.6154C62.7288 56.4239 62.9558 56.2152 63.2848 56.178C63.6052 56.1376 63.9388 56.1268 64.2594 56.1504C64.6263 56.1818 64.8613 56.0941 65.0379 55.7334C65.4793 54.8191 66.0623 53.9981 66.7948 53.2881C66.9662 53.1221 67.1531 52.967 67.3427 52.8178C67.4313 52.7531 67.543 52.6923 67.6512 52.6794C67.7696 52.6654 67.9192 52.6731 68.0023 52.7392C68.0559 52.7792 68.0496 52.9638 68.0024 53.0491C67.8683 53.2982 67.7057 53.5314 67.5389 53.7631C67.0768 54.4087 66.6017 55.0495 66.1482 55.6984C66.049 55.8427 65.9992 56.0254 65.8882 56.2783L65.8909 56.2842ZM65.3307 57.9502C65.1345 58.9183 65.3944 60.252 65.9825 61.0463C66.1958 61.339 66.4743 61.6024 66.7725 61.8143C67.6616 62.4379 68.7565 62.2495 69.4199 61.3853C69.6922 61.0314 69.8965 60.6369 69.953 60.1911C70.0295 59.6152 70.0845 59.031 70.1276 58.4523C70.1582 58.0359 70.0698 57.958 69.6557 57.9086C69.1055 57.842 68.5586 57.7667 68.0052 57.7086C67.3114 57.6315 66.6219 57.5561 65.9259 57.4978C65.459 57.4579 65.4222 57.5029 65.3291 57.9545L65.3307 57.9502ZM71.8951 57.0391C72.7311 57.1949 73.5671 57.3507 74.4015 57.5108C74.5676 57.5396 74.7332 57.5829 74.9009 57.6074C75.2381 57.652 75.3144 57.5679 75.2455 57.2318C75.1127 56.5467 74.8207 55.9437 74.3475 55.4291C73.8465 54.8843 73.2094 54.7747 72.5202 54.8666C72.2466 54.9003 72.0075 55.0503 71.8648 55.2961C71.689 55.603 71.5072 55.9126 71.3873 56.2408C71.1555 56.8757 71.2165 56.9481 71.8935 57.0434L71.8951 57.0391Z" fill="black"/>
<path d="M60.1732 66.6461C60.6055 66.6959 60.9606 66.7348 61.3189 66.775C61.9037 66.8422 62.4865 66.9049 63.0701 66.9753C63.4413 67.0204 63.477 67.0043 63.5888 66.6326C63.7159 66.2112 63.8547 65.7979 64.1449 65.4533C64.5502 64.9713 65.0428 64.7852 65.678 64.8752C66.7844 65.0299 67.2841 65.7971 67.6336 66.7254C67.7311 66.9844 67.7698 67.2618 67.813 67.5372C67.8397 67.7101 67.9202 67.7999 68.0891 67.842C68.3045 67.8981 68.5183 67.9683 68.7295 68.045C68.8665 68.0934 68.9814 68.1704 68.9753 68.342C68.9694 68.484 68.8603 68.6052 68.6777 68.6282C68.5227 68.6469 68.358 68.6323 68.1999 68.6203C67.8565 68.5895 67.803 68.6135 67.7366 68.9433C67.6661 69.2938 67.5387 69.619 67.335 69.9113C67.2629 70.0134 67.1746 70.1092 67.0771 70.1905C66.9967 70.2561 66.8805 70.3377 66.7953 70.2312C66.7494 70.1768 66.7666 70.0539 66.7876 69.9694C66.8111 69.8785 66.8811 69.8015 66.9188 69.7123C67.0273 69.4465 67.1499 69.1825 67.2326 68.9069C67.3177 68.6249 67.2539 68.5303 66.968 68.4844C66.1149 68.3447 65.2605 68.2083 64.4025 68.0815C64.1469 68.0435 64.0819 68.1075 64.0575 68.3757C64.027 68.7377 63.9933 69.0984 63.9738 69.4609C63.9411 70.0329 63.7436 70.5422 63.424 71.0125C62.9574 71.7042 61.6721 72.2435 60.6386 71.6542C59.6863 71.1142 59.165 70.287 58.984 69.2268C58.9069 68.7684 58.914 68.3124 59.0096 67.8568C59.0221 67.7949 59.039 67.7311 59.045 67.6668C59.0629 67.4739 59.0182 67.4162 58.827 67.3841C58.6151 67.3479 58.4028 67.3226 58.1947 67.2766C57.9214 67.2171 57.7744 67.0686 57.785 66.8951C57.7954 66.7511 57.9661 66.5941 58.2135 66.5662C58.4544 66.5358 58.7053 66.5277 58.9464 66.5454C59.2222 66.569 59.399 66.5031 59.5318 66.2318C59.8637 65.5443 60.3021 64.9269 60.8529 64.393C60.9818 64.2682 61.1224 64.1516 61.265 64.0394C61.3316 63.9907 61.4155 63.945 61.4969 63.9353C61.586 63.9248 61.6985 63.9306 61.7609 63.9802C61.8013 64.0104 61.7965 64.1491 61.761 64.2133C61.6602 64.4006 61.5379 64.576 61.4125 64.7502C61.0649 65.2357 60.7078 65.7176 60.3667 66.2055C60.2921 66.314 60.2546 66.4514 60.1712 66.6416L60.1732 66.6461ZM59.752 67.8988C59.6044 68.6269 59.7998 69.6297 60.2421 70.2271C60.4025 70.4472 60.6119 70.6453 60.8361 70.8045C61.5048 71.2735 62.3281 71.1318 62.8269 70.482C63.0317 70.2159 63.1853 69.9192 63.2278 69.584C63.2853 69.1509 63.3267 68.7116 63.3592 68.2764C63.3821 67.9633 63.3156 67.9047 63.0042 67.8676C62.5905 67.8174 62.1793 67.7608 61.7631 67.7171C61.2414 67.6592 60.7229 67.6025 60.1995 67.5587C59.8484 67.5286 59.8208 67.5625 59.7507 67.9021L59.752 67.8988ZM64.6883 67.2137C65.3169 67.3309 65.9456 67.448 66.573 67.5684C66.698 67.59 66.8224 67.6226 66.9486 67.641C67.2021 67.6746 67.2595 67.6114 67.2077 67.3586C67.1078 66.8434 66.8883 66.39 66.5324 66.003C66.1557 65.5933 65.6766 65.5109 65.1583 65.58C64.9526 65.6053 64.7728 65.7182 64.6655 65.903C64.5333 66.1338 64.3966 66.3666 64.3064 66.6134C64.1321 67.0909 64.178 67.1453 64.6871 67.217L64.6883 67.2137Z" fill="black"/>
</svg>