<svg width="24" height="24" viewBox="0 0 24 24" fill="none" xmlns="http://www.w3.org/2000/svg">
<path fill-rule="evenodd" clip-rule="evenodd" d="M18.4425 18.951V18.9492L18.4591 18.9097L21.2115 5.03268V4.98863C21.2115 4.64262 21.083 4.34067 20.8059 4.15986C20.5626 4.00108 20.2827 3.99007 20.0863 4.00475C19.9035 4.02129 19.7231 4.05823 19.5485 4.11489C19.474 4.13889 19.4005 4.16584 19.3282 4.19565L19.3163 4.20024L3.97079 10.22L3.9662 10.2219C3.91955 10.2378 3.87388 10.2565 3.82945 10.2779C3.72031 10.3269 3.6156 10.3852 3.51648 10.4522C3.31916 10.5881 2.94378 10.9075 3.00711 11.4141C3.05942 11.8344 3.34853 12.1006 3.54402 12.2392C3.65941 12.32 3.78346 12.3878 3.91389 12.4411L3.94326 12.4539L3.95243 12.4567L3.95886 12.4595L6.64432 13.3635C6.63514 13.5314 6.65166 13.7031 6.69663 13.8729L8.0412 18.9749C8.11465 19.253 8.27337 19.5011 8.49507 19.6844C8.71676 19.8676 8.9903 19.9769 9.27726 19.9967C9.56422 20.0166 9.85019 19.946 10.095 19.795C10.3398 19.644 10.5312 19.4201 10.6422 19.1547L12.7421 16.9098L16.3481 19.6742L16.3995 19.6962C16.7272 19.8394 17.0328 19.8844 17.3127 19.8468C17.5927 19.8082 17.8148 19.6907 17.9818 19.5577C18.175 19.401 18.329 19.2015 18.4315 18.9749L18.4389 18.9593L18.4416 18.9538L18.4425 18.951ZM8.02743 13.5223C8.01254 13.4656 8.01608 13.4058 8.03754 13.3513C8.05899 13.2968 8.09724 13.2506 8.14674 13.2194L17.2522 7.4373C17.2522 7.4373 17.7882 7.11148 17.7689 7.4373C17.7689 7.4373 17.8643 7.4942 17.5771 7.76128C17.3054 8.01551 11.0873 14.0188 10.4577 14.6264C10.4227 14.6604 10.3982 14.7037 10.3871 14.7512L9.372 18.6243L8.02743 13.5213V13.5223Z" fill="#EEEEEE"/>
</svg>