<svg xmlns="http://www.w3.org/2000/svg" xmlns:xlink="http://www.w3.org/1999/xlink" version="1.1" viewBox="0 0 1430 1323">
  <defs>
    <style>
      .cls-1, .cls-2, .cls-3, .cls-4 {
        fill: none;
      }

      .cls-5, .cls-6 {
        fill: #ddbe8d;
      }

      .cls-5, .cls-6, .cls-3, .cls-4 {
        stroke: #000;
        stroke-miterlimit: 10;
      }

      .cls-7 {
        fill: #b5afaf;
      }

      .cls-6, .cls-4 {
        stroke-width: 3px;
      }

      .cls-2 {
        stroke: #231f20;
        stroke-linecap: round;
        stroke-linejoin: round;
        stroke-width: 1.8px;
      }

      .cls-8 {
        fill: #a1c451;
      }

      .cls-9 {
        fill: #c6a683;
      }

      .cls-10 {
        clip-path: url(#clippath-1);
      }

      .cls-11 {
        fill: #dfedf1;
      }

      .cls-12 {
        fill: #fff;
      }

      .cls-13 {
        fill: #02304f;
      }

      .cls-14 {
        fill: #d3e9ef;
      }

      .cls-15 {
        fill: #f4f8ee;
      }

      .cls-3 {
        stroke-width: 2px;
      }

      .cls-16 {
        fill: #fbfbf7;
      }

      .cls-17 {
        fill: #c3a27d;
      }

      .cls-18 {
        fill: #c7e0a0;
      }

      .cls-19 {
        clip-path: url(#clippath);
      }

      .cls-20 {
        fill: #9cba63;
      }

      .cls-21 {
        fill: #c3e1ea;
      }
    </style>
    <clipPath id="clippath">
      <rect class="cls-1" y="358" width="1430" height="965"/>
    </clipPath>
    <clipPath id="clippath-1">
      <rect class="cls-1" x="420" width="591" height="442"/>
    </clipPath>
  </defs>
  <!-- Generator: Adobe Illustrator 28.6.0, SVG Export Plug-In . SVG Version: 1.2.0 Build 709)  -->
  <g>
    <g id="Layer_1">
      <g class="cls-19">
        <g>
          <path class="cls-5" d="M-16.1,362.3s40.2-4.5,75.2-3.4c35,1.1,334,7.9,362.3,3.4,28.3-4.5,92.7-3.2,97.2-1,4.5,2.2,9,7.2,9,7.2,0,0,70.5-2.3,137.9-2.3s283.6-4,321.8-2.6c38.2,1.4,120.4-2.6,198.8,0,78.4,2.6,142.9-6.1,172.1-4.9,29.2,1.2,37.7,4.9,37.7,4.9v931.5l-1412.9-12.3.8-920.5h0Z"/>
          <path class="cls-5" d="M1425.2,1322.1h-29.2V365c0-3,3-2.8,3-2.8h29.5l-3.3,960Z"/>
          <path class="cls-17" d="M444.4,474.1c0,.2-.2.3-.3.5-1.7,2.9-4.3,4.3-7.6,4.1-1.2,0-2.2-.5-2.9-1.1-1.6.6-3.1,1.3-4.2,1.5-4.2.7-8.5.7-12.8.7-9.2,0-18.4-.7-27.6-.4-8.1.2-16.2.9-24.4,1.1-8.4.2-16.5-.9-24.8-1.6-16.4-1.4-32.9-.7-49.3-.2-17,.5-34,1.1-51,.9-8,0-16-.7-24-1.4-6.5-.5-12.5.4-18.6-2.4-1-.4-1.6-1-2-1.7h-11.3v21.6h275.3v-21.6h-14.5Z"/>
          <path class="cls-17" d="M172.9,474.1h-18.3c2.4,2.6,2.3,7.2-2,7.9-7.5,1.2-14.2-.8-21.5-2.4-8.6-1.9-17.6-2.3-26.4-2.3-17.7,0-35.4.4-53,.6-13.3.1-26.6,1.8-39.8,2.7-6.2.5-16.3,0-17.9-6.6h-10.3v21.6h189.2v-21.6Z"/>
          <path class="cls-9" d="M757,474.1c-1.8.4-3.5,1.4-5.2,1.9-1,.3-1.9.3-2.7,0-1.4.4-2.7.8-4.1,1.1-3.6.7-7.1.8-10.7.8-8.9,0-17.8,0-26.7.5-18.2.8-36.1,1.7-54.3,1.3-33.3-.7-67.6,3.6-100.2-4.9-.7-.2-1.2-.5-1.7-.8h-26.3v21.6h275v-21.6h-43Z"/>
          <path class="cls-9" d="M1091.8,474.1c-.8,1.1-2.1,2-3.8,2.1-7.1.5-14-.6-21-1.3-.3,0-.6,0-.9,0-7.4.4-14.8,1.2-22.1,1.3-1.2,0-2.1-.3-2.8-.8-2.6.3-5.1.5-7.6.6-34.1,2-68.2-.3-102.3-.8-33.7-.5-67.5.2-101.2.2-1.4,0-2.5-.5-3.3-1.3h-10.2v21.6h288.8v-21.6h-13.4,0Z"/>
          <path class="cls-9" d="M1388.3,477.5c-6.7,1.3-13,4.7-20,4.4-3.2-.1-5.3-.9-8.1-2.3-1.4-.7-1.9-1.3-3.6-1.4-1.9-.1-3.8,0-5.6,0-15.7-.1-31.2,0-46.9.5-15.8.6-31.7.8-47.5.9-7.3,0-14.6.3-21.9-.4-5.6-.5-11.4-1-16.3-4.1-.5-.3-1-.7-1.3-1.2h-5.7c-7.3,1.7-14.8,2.6-22.3,3.6-8.6,1.2-17.2,2.8-25.9,3.6-8.4.8-17.2,1-25.6-.6-4.9-.9-11.3-2.6-14.5-6.7h-4.2v21.6h272.4v-20.3c-.5,1-1.5,1.9-3.1,2.2h0Z"/>
          <path class="cls-17" d="M428.2,380.3c-5.7-.5-11.5-.5-17.2-1.2-5.6-.7-10.9-2.3-16.6-2.3-1.2,0-2.2-.4-3-1H-16.1l-.2,14.7h475.2l-1.1-9.2c-9.7,1.1-19.9-.3-29.6-1.1h0Z"/>
          <path class="cls-9" d="M803.3,376.7l-278.1,3.9-.4,10h278.6v-13.9Z"/>
          <path class="cls-9" d="M1105.2,378.6l-290.4-1.6,1.6,13.6h288.8v-11.9Z"/>
          <path class="cls-9" d="M1117.8,380.5l1.1,10h277.1l-.3-10.8-277.9.8Z"/>
          <path class="cls-17" d="M155.6,375.3v100.4c.6,1.4.7,3,0,4.2v57.2h15.8v-161.9h-15.8Z"/>
          <path class="cls-17" d="M446.9,380v90.3c.5,1.1.6,2.4,0,3.7v66h14.4v-160.2h-14.4c0,.1,0,.1,0,.1Z"/>
          <path class="cls-9" d="M804,383.2h-11.9v159h11.9v-159Z"/>
          <path class="cls-9" d="M1105.2,379.7h-11.9v156.3h11.9v-156.3Z"/>
          <path class="cls-9" d="M1396.4,1047.6l-16.5-7.6V379.7h15.8s.7,667.8.7,667.8Z"/>
          <path class="cls-9" d="M1379.9,784.4h-86.8v16.6h86.8v-16.6Z"/>
          <path class="cls-9" d="M1381.8,899h-88.6v-14.4l49.2-4.3,37.5,2.4,1.8,16.3Z"/>
          <path class="cls-9" d="M1384.3,695.2h-91.2v-13.4c0,0,59.8-4,59.8-4l29.8.9,1.6,16.5Z"/>
          <path class="cls-9" d="M1380.6,585.2l-3.7-.6c-.8.8-1.9,1.3-3.3,1.4-5.2.3-10.6-.9-14.6-4.4l-10.1-1.7-55.9.9v16.3h89l-1.6-12Z"/>
          <path class="cls-17" d="M946.4,1054.5h-441.4v11.9h441.4v-11.9Z"/>
          <path class="cls-17" d="M802.8,1076h-14.7v215.1h14.7v-215.1Z"/>
          <path class="cls-17" d="M594.3,1192c-1.6.2-3.2.3-4.8.5-6,.5-11.9,1-18,1.1-5.6.1-11.5-.2-17,.9-7.1,1.4-14.9,4.3-20.6-2.1-.1-.1-.2-.3-.3-.4h-6.1v17.6h260.6v-17.6h-193.8,0Z"/>
          <path class="cls-17" d="M794.6,1066.2c-.2.6-.6,1.2-1.1,1.7-2,1.9-4.1,3.2-6.3,4.2-1.2,1-2.4,2-4,2.4-2,.5-4,.5-5.9,0-9.4.7-19.6-1.7-28.4-1.7s-16.6,2.7-25.1,4.2c-8.8,1.7-17.8,1-26.8.8-2.5,0-5.1-.1-7.6-.2-6.8,0-13.5,0-20.3,0h-.5c-8.9.3-17.8,1.1-26.7,1.1-3.9,0-7.7-.2-11.6-.4-9.6.3-19.3.6-28.9.6s-22.8,1.8-31.7-3.6c-.8,0-1.7-.1-2.5-.2-5.2-.4-10.2-1.1-15.3-2.5-5.2-1.5-10.3-3.2-15.8-3.1-2.6,0-4.1-1.5-4.6-3.4h-6l1.9,29.6h275.3l1.2-29.6h-9.4,0Z"/>
          <path class="cls-17" d="M129.6,888.7H-16.4v15.8h146v-15.8Z"/>
          <path class="cls-17" d="M81,783.3c-15.9.2-31.8.7-47.8.8-8.7,0-17.4-.3-26,0-5.3.2-9-.5-11.2-4.9l-12.4-.6v25.2h146v-18.1l-48.6-2.4h0Z"/>
          <path class="cls-17" d="M81,989.6c-15.9.2-31.7-.2-47.6,0-8.7,0-17.3.1-26,.4-5.3.2-10.7.4-12.2-5.1l-11.5-1v23.9h146v-18.1h-48.6s0,0,0,0Z"/>
          <path class="cls-17" d="M131.1,686.6H-16.4v14.7h147.4v-14.7Z"/>
          <path class="cls-17" d="M132.9,601H-16.4v-19.1c2.7-4.3,8.4-5.3,12.4-2.3l2.9,2.3h133.9v19.1Z"/>
          <path class="cls-13" d="M-16.1,375.9h374.2s43.1,1.1,61.9,3.3c16.4,1.9,42.1,1.2,42.1,1.2"/>
          <path class="cls-4" d="M-16.1,375.9h374.2s43.1,1.1,61.9,3.3c16.4,1.9,42.1,1.2,42.1,1.2"/>
          <path class="cls-4" d="M1.9,424l-18,11.9"/>
          <path class="cls-4" d="M107.2,417.5s13,10.9,18.7,14.7c5.7,3.8,19.6,8.3,19.6,8.3"/>
          <path class="cls-4" d="M130.8,426.1s1.7,2.5,5.5,4c3.8,1.5,7.2,2.5,7.2,2.5"/>
          <path class="cls-4" d="M172.7,375.9v155.7"/>
          <path class="cls-4" d="M183.8,375.9v157.3"/>
          <path class="cls-4" d="M201,450.1s24.2-7,36.9-14.2c12.7-7.2,24.6-18.4,24.6-18.4"/>
          <path class="cls-4" d="M255.5,454.5s13.6-7.9,20.8-14c7.2-6.2,8.9-7.9,8.9-7.9"/>
          <path class="cls-4" d="M276.7,447.1l10-7.6"/>
          <path class="cls-4" d="M-16.9,474.3s6.7-6.8,7.8-3.4c1,3.4,4.4,8.2,8.4,8.8,4,.6,66.1-2,91.8-1.7,25.7.3,36.5.5,42.4,1.8,5.9,1.3,6.5,4.2,16.1,3.3,9.6-.8,16.7-6.5,16.7-6.5"/>
          <path class="cls-4" d="M-16.1,527s22,16.8,37.6,23.5c22.6,9.6,43.8,12.7,43.8,12.7"/>
          <path class="cls-4" d="M-10.4,545.1s19.2,15.6,28,18.1c8.8,2.5,14.1,0,14.1,0"/>
          <path class="cls-4" d="M-16.1,576.8s1.8-3.4,5.7-2.8c4,.6,9.9,7.4,9.9,7.4h121.8"/>
          <path class="cls-4" d="M-16.1,779.7s1.8-3.4,5.7-2.8c4,.6,9.9,7.4,9.9,7.4h121.8"/>
          <path class="cls-4" d="M-11.8,982.6c5.1-.6,8.1,4.4,11.1,7.4h122.1"/>
          <path class="cls-4" d="M-16.1,631.4s30.7,18.9,38.5,22.9c14.7,7.6,41.3,11.9,41.3,11.9"/>
          <path class="cls-4" d="M-9,647.8s19.5,14.9,25,16.4c5.5,1.6,15.7,2,15.7,2"/>
          <path class="cls-4" d="M-16.1,684.6H120.2"/>
          <path class="cls-4" d="M1.3,697.6s7.6,5.2,10,8.8c2.4,3.5,4.8,9.6,4.8,9.6"/>
          <path class="cls-4" d="M1.3,900.5s4.7,1.1,10,8.5c5.4,7.4,4.8,10.8,4.8,10.8"/>
          <path class="cls-4" d="M-10.5,837.1c21.8,17.6,49.8,24.6,76.7,30.9"/>
          <path class="cls-4" d="M-10.1,852.1s11.3,5.1,17.2,9.1c5.9,4,11,8.3,17.9,8.8,3.7.3,5.8.1,5.8.1"/>
          <path class="cls-4" d="M189.7,470s4.5,8,13.3,8.6c8.8.6,197,1.7,197,1.7,0,0,32-.7,42.7-3.6,8.3-2.3,11.9-6.6,11.9-6.6"/>
          <path class="cls-4" d="M309.5,508.3l26-10.2"/>
          <path class="cls-4" d="M326.8,508.3l17-7.9"/>
          <path class="cls-4" d="M345.1,508.3l7.9-7.9"/>
          <path class="cls-4" d="M408.9,526.7s18.7-10.5,26.1-18.4c7.4-7.9,11.5-16.6,11.5-16.6"/>
          <path class="cls-4" d="M425.2,528.8l12.7-15.1"/>
          <path class="cls-4" d="M462.1,377v155.1"/>
          <path class="cls-4" d="M515.8,360.7v171.4"/>
          <path class="cls-4" d="M525.1,365.9v166.1"/>
          <path class="cls-4" d="M480.8,415.5s-1.4,5.4-2.3,11.9c-.9,6.5,0,9.3,0,9.3"/>
          <path class="cls-4" d="M486.2,407.8s5.4-7.4,11.6-2.5c6.2,4.8-7.6,36.9-7.6,36.9l-10.6,23.8"/>
          <path class="cls-4" d="M487.1,472.1s8.6-16.8,10.7-21.9c3.7-8.9,5.1-18.7,5.1-18.7"/>
          <path class="cls-4" d="M471.5,531.2s-1.3-13.6,0-23.1c1.3-9.6,4-18.7,4-18.7"/>
          <path class="cls-4" d="M525.1,380.5s126.5-3.1,151.1-2.3c24.6.8,61,2.6,80.1,2.3,19.1-.3,24.3-3.5,43.5-3.8,19.2-.3,279.5,3.8,279.5,3.8"/>
          <path class="cls-4" d="M804.2,377v154.2"/>
          <path class="cls-4" d="M814.8,377v154.2"/>
          <path class="cls-4" d="M541,485.5s-4,2.5-4.2,7.6c-.2,5.1,0,24.8,0,24.8"/>
          <path class="cls-4" d="M543.9,493v8.8"/>
          <path class="cls-4" d="M573.8,525.2l8.9,6.9"/>
          <path class="cls-4" d="M670.1,422.3s6.8,6.8,15.5,9.2c8.8,2.4,14.4,1.6,14.4,1.6"/>
          <path class="cls-4" d="M626.9,411.2s30.8,23.2,39.3,27.2c8.5,4,25.2,4,25.2,4"/>
          <path class="cls-4" d="M532.5,467.6s0,12.7,102.3,12.4c102.3-.3,117.6-3.8,122.7-4.2,6.6-.6,11.4-1.6,14.1-.9,4.4,1.1,8.5,1.5,12.5.6,7.8-1.7,11.9-6.8,11.9-6.8"/>
          <path class="cls-4" d="M833.8,386.6s22.9,4,35.6,4.5c12.7.6,22.6,0,22.6,0"/>
          <path class="cls-4" d="M951.9,444.3l-7.1-11.3"/>
          <path class="cls-4" d="M1013.2,468.7s53.1,0,67.5-10.8c9.1-6.8,9.2-13.9,9.2-13.9"/>
          <path class="cls-4" d="M945.8,421.4l8.9,15.3"/>
          <path class="cls-4" d="M821.6,471.5s5.7,5.5,25.3,5c19.6-.6,233.3.3,233.3.3,0,0,9.1.2,13.9-.2,3.7-.3,4.2-3,4.2-3"/>
          <path class="cls-4" d="M1059.4,505.1l7.2,8.5"/>
          <path class="cls-4" d="M1055.4,512.5l11.2,14.2"/>
          <path class="cls-4" d="M1105.1,444.3v88.6"/>
          <path class="cls-4" d="M1396,380.5h-278.2v152.4"/>
          <path class="cls-4" d="M1123,474.2s.4,9.3,42.5,6.7c42.1-2.5,48.6-9.3,48.6-9.3,0,0,3.7,6.8,14.7,7.1,11,.3,124.3,0,124.3,0,0,0,9.9,3.1,20.4,2.7,10.5-.4,17.5-4.5,17.5-4.5"/>
          <path class="cls-4" d="M1298.7,441s21.4-.2,31.4-3.8c10-3.6,21.6-6.6,21.6-6.6"/>
          <path class="cls-4" d="M1332.8,444.3s15.5-4,25.9-4.9c10.4-.9,16.7-.7,16.7-.7"/>
          <path class="cls-4" d="M1412.2,362.1l-3,693.5"/>
          <path class="cls-4" d="M1293.2,580s54.1-.2,57.9,0c3.8.2,11.2,6.4,20.6,5.7,9.3-.6,18.4-4.9,18.4-4.9"/>
          <path class="cls-4" d="M1293.2,681.9s58.4-4.2,65.8-4.2c10.8-.1,12.4,1.4,17.5,1.1,5.1-.3,13.6-6.2,13.6-6.2"/>
          <path class="cls-4" d="M1293.2,783.9s48.3-1.9,58.3,0c10,1.9,11.4,3.4,20.3,3,8.9-.4,19.7-3.8,19.7-3.8"/>
          <path class="cls-4" d="M1293.2,884.5s53.2-5.5,62.7-4.5c9.5,1.1,13.6,2.8,19.7,2.2,6.2-.7,15.9-9,15.9-9"/>
          <path class="cls-4" d="M1294.1,512.3l3.8,23.8"/>
          <path class="cls-4" d="M1304,515.5l2,15.8"/>
          <path class="cls-4" d="M1305,618.4v14.7"/>
          <path class="cls-4" d="M1294.1,616.3l3.8,21.2"/>
          <path class="cls-4" d="M1425.2,366.2s-3.3,12.2-2.2,19.8c1.1,7.6,2.2,11.3,2.2,11.3"/>
          <path class="cls-4" d="M1428.2,435.8l-.2,12"/>
          <path class="cls-4" d="M1424,411.9s-2.8,8.5-3.2,15.5c-.4,7,0,15.3,0,15.3"/>
          <path class="cls-4" d="M1419.1,507.4s2.8,14.2,6.1,21.2l3.3,7"/>
          <path class="cls-4" d="M1420.8,609.9s0,13,3,20c2.9,7,4.7,9.6,4.7,9.6"/>
          <path class="cls-4" d="M1420.2,812s-1.9,11.5,2.3,20c4.2,8.5,6,10.4,6,10.4"/>
          <path class="cls-4" d="M531.2,1066.2s6.6,11.5,75,13.2c68.4,1.7,106.9-.6,120.8-2.1,13.9-1.5,30.3-5.3,38.4-3.6,8.1,1.7,9.1,3.6,15.3,2.5,6.1-1.1,15.2-10,15.2-10"/>
          <path class="cls-4" d="M513.8,1066.2v222.9"/>
          <path class="cls-4" d="M525.7,1066.2v221.6"/>
          <path class="cls-4" d="M804.1,1066.2v222.9"/>
          <path class="cls-4" d="M815.9,1066.2v221.6"/>
          <path class="cls-4" d="M542.2,1087.4s-7.6-1.7-7.2,13.6c.4,15.3,0,24.6,0,24.6"/>
          <path class="cls-4" d="M545.6,1093.8s-2.8,1.9-2.5,5.3c.2,3.4,0,5.7,0,5.7"/>
          <path class="cls-4" d="M574.5,1129.9s9.1,9.3,17,15.5c7.8,6.2,15.1,8.5,15.1,8.5"/>
          <path class="cls-4" d="M580.8,1147.1s15.7,20.4,42.4,23.1c26.7,2.8,48.8-3,48.8-3"/>
          <path class="cls-4" d="M775.6,1149.4s-7,8.3-11.7,12.5-14.4,10.4-14.4,10.4"/>
          <path class="cls-4" d="M786.8,1145.8l-10,13.2"/>
          <path class="cls-4" d="M795.9,1164.3v15.3"/>
          <path class="cls-4" d="M843.6,1134.6s-.2,18.7,13.6,26.3c13.8,7.6,22.5,8.5,22.5,8.5"/>
          <path class="cls-4" d="M868.7,1157.1s8.3,3.4,19.1,4.9c10.8,1.5,13.4,1.3,13.4,1.3"/>
          <path class="cls-4" d="M907.5,1103.4h20.6"/>
          <path class="cls-4" d="M824.1,1185.7s.4,4,3.6,4.5c3.2.4,81,1.5,81,1.5"/>
          <path class="cls-4" d="M531.2,1188.7s2.1,7.9,17.8,7.9,77.2-4.7,100-4.9c22.9-.2,136.6.8,141.3,0,4.7-.8,5.5-4.5,5.5-4.5"/>
          <path class="cls-4" d="M580.4,1247.6l8.1,9.2"/>
          <path class="cls-4" d="M574.5,1254.2l17.7,23.9"/>
          <path class="cls-4" d="M700.4,1267.6s26.1-12,37.7-18.7c11.6-6.7,19.5-13.7,19.5-13.7"/>
          <path class="cls-4" d="M730.6,1265.3l27-13.9"/>
          <path class="cls-4" d="M897.3,1273.9l11.9-14"/>
          <path class="cls-4" d="M1160.3,456.4s14.6,3,19.3,3h4.7"/>
          <path class="cls-3" d="M1393.1,364v684.1"/>
          <path class="cls-17" d="M1256.6,532.3H153.3c-18.6,0-33.8,15.1-33.8,33.8v451.9c0,18.7,15.1,33.8,33.8,33.8h1103.3c18.7,0,33.8-15.1,33.8-33.8v-451.9c0-18.7-15.1-33.8-33.8-33.8Z"/>
          <path class="cls-6" d="M1238.3,543H166.8c-18.6,0-33.8,15.1-33.8,33.8v437.8c0,18.7,15.1,33.8,33.8,33.8h1071.6c18.7,0,33.8-15.1,33.8-33.8v-437.8c0-18.7-15.1-33.8-33.8-33.8Z"/>
        </g>
      </g>
      <g class="cls-10">
        <g>
          <path class="cls-7" d="M663,218.1h-.1c0-.5-.2-.9-.3-1.3-.5-1.4-1.6-2.4-2.4-3.6-.2-.3-.4-.7-.5-1-.5-.5-.9-1-1.4-1.5-.5-.6-1.2-1.4-1.2-2.3,0-.7.4-1.1.9-1.4.4-.2.9-.5,1.1-.9,0-.1,0-.2,0-.3.3-.6.3-1.3-.2-1.8-.5-.5-1.1-.8-1.8-.9-.8-.2-1.7,0-2.6-.2-.4,0-.7-.2-1-.5-.2-.3-.4-.6-.6-1,0,0,0-.1,0-.2-.7-1.5-1.5-3-2.4-4.4-3.4-5.4-7.3-10.4-11.7-15,0,0-.1,0-.2,0-.1,0-.3,0-.4-.1-.1,0-.2-.2-.3-.3,0-.1-.1-.3-.1-.4,0-.1,0-.3,0-.4-3.6-3.4-8.8-8.2-13-10.9-2.3-1.5-14.4-7.6-15-6.5-2,4.4-3.3,10.2-4.1,14.9-5.3-2.2-10.5-3-16.5-5.9-.4-2.2-.8-4.4-1.1-6.6-.1-1.1-1.6-2.5-2.5-1.5-1.4,1.6-2.3,4.5-3.2,6.4,0-.4.2-1.9.1-2.4-3.2-15.3-5.3-29-12.1-47.3-.4-1-1.6-.8-2.1.3-.5,1.1-1.1,3.5-1.5,4.6-3-9-8-14.9-13.3-20.9-.8-1-1.9-.2-1.9.9,0,1.3-1,2-1.1,3.3-4.8-3.6-7.4-6.5-12.1-10.1,3-2.8,9.8-10.3,11.3-11.7,1.6-1.5,3.1-1.2,5.2-1.6,8.1-1.5,18.1-6.6,25.1-10.9.8-.5-.7-1.1-1.7-1.5-2.1-.9-2.6-2-4.8-2.7,9-7.5,15.9-15.4,23.7-24.2,1.4,1,2.7-1.4,1.3-2.4-7.8-5.9-15.4-11.9-23-17.9,3-2,6.2-3.8,9.4-5.3,1.1-.5-1-1.1-2.1-1.4-15.8-3.9-31.7-8.5-48.2-8.1,1.4-2.6,3-4.4,4.9-6.7.1-.2.2-.3.3-.5,0-.2,0-.4,0-.6,1.2-.9,1.5-3.4,0-3-20.2,5.2-40.5,10.9-56.1,23-.4.3-8.4,9.8-10.7,15.2-1-2.4-1.8-6.7-2.4-9.3-.3-1.3-2.3.6-2.6,1.9-2.4,10.1-8.6,20.4-12,30.2-1.6,4.6-2.7,9.4-3.3,14.3-.6,4.7.8,8-.3,12.7-.4-.4-4.8-5.3-5.3-5.2-.1-.8-1.6-3-2-2.9-.2,0-.5.2-.6.5-.1.2-.2.5,0,.7,1.2,8.8,1.7,17.4,3.3,26.2.5,5.9,1.3,6.1,2.3,11.9.2,1.4.6,5.4.8,6.8l.2,2.2c-.3-.1-4.3-1.9-4.5-2.4-.7-1.9-2.5-1.1-.7,2.1,1.9,3.5,2,7.8,3,11.6.6,14.2,2,28.2,2.7,42.4l.5,11c0,2.2-.5,6.3,1.5,7.9,1.9,1.6,4.7-.3,6.2-1.7,1-1,1-1.5,1.7-2.7.4,1.4,3.7,12.2,8.3,8.6,2.8-2.2,5.1-3.7,6.2-7.1.8,1.9.9,1.8,2.4,3.2,1.7,2.2,4.7,4.6,7.5,3.3,3.1-1.5,5.1-6,5.8-9.1,2.1,2.5,3.1,5.5,7.6,3.5,2.9-1.3,4.5-4.5,5.4-7.9,1,3.8,2.6,7.5,6,9.5,3.6,2,7.4-.5,10.2-3.3.1,1.2.6,3.2.7,4.4.2,1.6.6,3.1,2.3,3.8,1.8.7,3.7,1,5.6.8,2.2-.3,4.2-1.6,6.2-2.3,0,1.2-.1,8.3,1.4,9.7s4.7,1.6,6.7,1.8c1.7.2,3.3-.7,5-.9-2.1,3.1-6.2,6.9-3.7,11,1.1,1.8,3.4,2,5.3,2.2,2.3.1,4.5,0,6.7-.6,0,.3-2.4,4-3.3,5.6-.9,1.7-2.3,4.1-.2,5.6,1.9,1.3,4.6.2,6.4-.6,2.2-1,4.3-2.2,6.2-3.7,0,1.8,0,3.5.7,5.2.9,2.2,2.8,3.6,5.2,3.6,2.5,0,4.9-1.6,6.9-3,1.1-.7,2.1-1.4,3-2.3.4-.4,1.2.4,1.2.9,0,.4.2.7.4,1,.3.3.6.4,1,.4,2.4,0,3.6-2.3,4.7-4.1,1-1.7,2.1-1.9,2.8-3.7.3,0,4.8-7.7,6.5-11.4.8-1.8,2.1-4.6,2.8-6.4.7-1.8,1.2-3.9,2-5.7.6-1.3,1-1,2.3-.7.8.1.9-.7,1.7-.4,1.7.5,3.4,1.3,5,2,1.7.7,3.4,1.4,5.2,1.9,3.1,3.9,8.5,3.7,13.2.3-.7,6.7-.9,14-1.3,20.5-.3,2.8.5,5.9,3.4,7.3,2.5,1.2,2.8-.7,4.3-2.3,0,.8,1.4,10.3,2.4,11.5.5.5,1.2.9,1.9,1,.7.1,1.5,0,2.1-.4.9-.5,1.6-1.3,2-2.3,1.4.8,3,1.5,4.4,1.1h0c.6,0,1.2-.3,1.7-.6,1.8-1.1,2.3-3,2.3-5,.8-2.4,1.1-5,.8-7.5,2.4,1.4,5.1,2,6.2-1.3.7-2.1.1-4.5-.3-6.6-.3-1.6-.8-3.2-1.4-4.7.5,0,1,0,1.5-.2.2,0,.4-.2.5-.3.5.2,1,.2,1.5,0,.5-.2.9-.5,1.2-.9.2-.4.3-.8.3-1.2,0-.4-.2-.8-.4-1.2-.2-.3-.5-.6-.9-.7Z"/>
          <path class="cls-12" d="M713.9,143.3c-2.1-.6-4.4.3-6,1.8-.2.1-.4.2-.5.4.2-.7.3-1.4.4-2.1,0-.1.1-.2.1-.4.5-2,.4-4.3-1-5.8-1.2-1.2-3.3-2.7-4.9-1.8-2.9-.3-5.4,2.6-6.4,5.1-.2-.3-.4-.7-.7-1-.6-.6-1.4-.9-2.2-1.1-2-.4-4.1.1-5.7,1.2-2.8,1.8-4.3,5.4-3,8.2-3.8,1.5-5.6,7.2-4.1,11.1,0,0,0,0,0,0-3.9,4.7-9.4,7.8-14.7,10.7-3.4,1.9-6.9,3.8-10.3,5.6-1.8,1-10.2,5.2-10,4.4.3-1.1.4-2-.7-1.8-2,.5-3.9,1.2-5.7,2.3,0,0,0,0,0,0,.1,0,.3,0,.4,0,.1,0,.2.1.3.2,0,.1.1.2.2.4,0,.1,0,.3,0,.4,1.2,1.2,2.3,2.5,3.4,3.8,2.2,2.5,4.2,5.2,6.1,7.9,1.9,2.7,3.8,5.5,5,8.6,0,.1.1.2.3.3.4.2.8.3,1.2.2.5,0,1,0,1.5,0,.4,0,.8.2,1.1.3.7.2,1.4.7,1.8,1.4.2.3.3.7.3,1.1,0,.4,0,.8-.2,1.1,0,0,0,.2,0,.3-.2.6-.6,1-1.2,1.3-.2.1-.5.3-.6.4,0,0-.1.1-.2.2,0,0,0,.1,0,.2,0,.3.1.6.3.9.2.4.5.7.8,1.1.3.3.6.7.9,1,.3-.2.7-.4,1.2-.7,2.7-1.7,6.5-4.3,9.4-5.7,15.2-7.3,36.5-39.2,39.7-45.8,3.4-2.7,6.6-6.1,7-10.4.2-2.4-.9-4.7-3.3-5.4Z"/>
          <path class="cls-18" d="M751.7,281c-3.8-7.1-10.4-14.5-16.8-19.4-.2-.2.1-4.7,0-4.7-.7-1.2-4.3-1-5.6-.1,0,2.6,1.1,3-.7,5.6-3.7,5.4-10.8,6.3-15.2,2.1-.9-.8-1.6-1.7-2.2-2.7-.8-.3-1.6-.4-1.9.3-5.2,2.6-11.1,7.1-14.7,11.6-3.9,5.1-6.9,12-7.4,18.5-.2,3.1.2,6.2,1.3,9.1.7,2,2.9,8,3.6,8.6,1.5,1.1,5,5.5,5.3,5.8,4.3,4.5,8.4,6.6,14.5,7.8.3,0,1.9.5,2.1.4,3.1,1,5.3,1,8.7.6.4,0,1.9.2,2.2,0,8.5-.2,15.2-2.1,21.2-7.9.4.1,2.7-1.8,3.1-2.2,2-2.1,5-8.5,5.2-9.1,3.1-8.1,1.3-17-2.5-24.3ZM746.9,304.7c-1.2,2.6-2.7,5.1-4.7,7.1-4,4.1-9.6,5.9-15.1,6.7-5.9.8-11.8-.2-17.1-2.8-4.9-2.4-9.5-5.7-11.4-10.8-.2-.6-.6-2.2-1.2-2.2,0-2.8-.9-3.2-2.2-5.6.9-.4,1.5-.4,2.5-.6.7,0,1.4-.1,2.1-.2,0,.6.5,0,1.3,0,4-.2,12.6-.4,13-.5.5,0,5,.7,5.5.6,11.3-.4,19-.4,30.3-.2,1.3,1.6-2.5,7.3-3,8.4Z"/>
          <path class="cls-15" d="M726,265.8c-.6.5-1.2.8-1.9,1.1-.2.1-.4.3-.6.5-.2.2-.3.4-.3.7,0,.3,0,.5,0,.8,0,.2.2.5.4.6-1.1,5.2-2,10.4-2.8,15.6-.3,2.6-.6,5.3-.9,7.9-.2,1.8.3,3.7,2.5,3.1,1.9-.5,2.1-2.7,2.3-4.3.3-2.7.5-5.3.7-8,.3-5.5.7-11.1,2.4-16.4.3-1.1-1.1-2.3-2-1.6Z"/>
          <path class="cls-21" d="M748.2,296.4c-1.8-.6-4.6,0-6.4,0-1.4.1-2.8.3-4.2.5-.1,0-.2,0-.3,0-6.6.2-13.2.2-19.8.2-.2-.1-.4-.2-.6-.2-6.5-.4-13.1-.5-19.6-.3-1.6,0-1.7,2.2-.5,2.7,0,.1,0,.2.1.3,3.2,6.2,7.3,12.3,13.5,15.7,4.5,2.5,9.7,3.5,14.8,3,.1,0,.3,0,.4,0,3.2-.2,6.3-1.2,9-2.9.1,0,.3,0,.4,0,.2,0,.3,0,.4-.1,3.6-1.4,6.6-4.1,8.5-7.5.1-.2.2-.4.2-.6.6-.7,1.2-1.4,1.7-2.2,1.2-1.8,2.1-3.7,2.9-5.6.5-1.2.8-2.6-.7-3.1Z"/>
          <path class="cls-11" d="M721.5,296.6c-.3,0-.7,0-1,.2-.3.2-.5.5-.6.8-.6,1.9-1,3.9-1.3,5.9-.2,1.3-.4,3.3,1.3,3.7,1.6.4,2.1-1.3,2.4-2.5.6-2.1,1-4.3,1.4-6.5.2-1.4-1.4-2.1-2.2-1.5Z"/>
          <path class="cls-12" d="M630.7,237.6c-2.6-4-3-8.4-2.6-12.9.3,0,.6-.1.8-.3.2-.2.3-.5.4-.8.2-3.6.7-7.1,1.4-10.6.3-1.5-2-2.1-2.3-.6,0,0,0,0,0,.1-2.5,1.4-6,3-8.2.3,0-.1-.2-.2-.3-.3-.1,0-.3-.1-.4-.1-.1,0-.3,0-.4,0-.1,0-.2.1-.4.2-2.4-2.7-6.1-3.4-9.7-4.2-1.5-.3-3.6-1.3-4.9,0-1.5,1.4-2.5,3.9-3.4,5.8-2,4.2-3.5,8.7-5.4,13-1.8,4.2-4.1,8.1-6.4,12-.2,0-.3.2-.4.4-.6,1-1.6,2.1-2.8,2.1-.3,0-3.5-1.3-3-2,.9-1.2-1.1-2.4-2-1.2-.2.3-.4.6-.4,1,0,0-.1.1-.2.2-1.5,2.1-4.5,3.3-7,4.1,0-.1,0-.3-.2-.4,0-.1-.2-.2-.3-.3-.1,0-.3-.1-.4-.1-.1,0-.3,0-.4,0-1.5.4-3.3,1-4.5-.4-.5-.7-.9-1.5-1-2.4,0-.6,0-1.2,0-1.7,0-.2,0-.4-.1-.6,0-.2-.1-.3-.2-.5-.1-.1-.3-.3-.4-.3s-.3-.1-.5-.1c-.2,0-.4,0-.5.1-.2,0-.4,0-.6.2-2.6,1.8-6.5,3.5-9.8,2.6-3.4-1-2.3-5.5-1-8.2.1-.2.2-.4.3-.6.1-.2.2-.4.4-.6.8-1.3-1.2-2.5-2-1.2-.1.2-.2.4-.3.5-2.7.2-5.7-.4-7.2-2.9-1.8-3.1.1-6.6,2.3-8.9,1-1.1-.5-2.7-1.6-1.7-.1,0-.3,0-.4,0-2.4.9-5.9,0-7.6-2-.9-1-.8-2.6-1.2-3.8-.5-1.2-1.3-2.4-.8-3.7.4-1-.6-1.6-1.4-1.4-.1-.1-.2-.2-.4-.3-.1,0-.3-.1-.5-.1-.2,0-.3,0-.5,0-.2,0-.3.1-.4.3-1.1,1-2.4,1.6-3.8,1.7-1.4.1-2.5-.5-3.9-.5-.2,0-.3,0-.5,0-.2,0-.3.2-.4.3h0c-.8-1-1.4-2.2-1.5-3.4,0-.3-.1-.5-.3-.7-.2-.2-.4-.3-.7-.4,0-.5-.1-1-.1-1.5,0-.2,0-.5-.2-.7-.1-.2-.3-.3-.5-.4-.2,0-.5-.1-.7,0-.2,0-.4.2-.6.3-.9.9-2,1.5-3.2,1.8-1.2.3-2.5.2-3.6-.2-2.3-.7-5.3-3-5-5.7,0-.2,0-.4,0-.5s-.2-.3-.3-.4c0-1.1-1.9-1.4-2.4-.1-.8,2.1-2.4,4-4.3,5.1-.9.5-1.8.9-2.8,1.1-1.7.4-2.6-.1-3.7-1.4,0,0,0,0,0,0-.3-.9-1.9-1-2.3,0-1,2.6-3.1,4.9-5.8,5.6-2.9.7-6.1-.4-7.5-3.2,0-.2-.2-.3-.3-.4,0-.1,0-.3,0-.4,0-1.5-2.3-1.5-2.4,0,0,1.5-1.7,3.8-2.8,4.7-1.4,1.1-3.1,1.2-4.8,1.2h0c-.8-.3-1.6-.7-2.3-1.2-.7-.6-1.2-1.2-1.7-2,0,0,0-.1,0-.2-.2-.5-.4-.9-.5-1.4.1-.2.3-.4.4-.6.1-.2.2-.3.2-.5,0-.2,0-.4,0-.6,0-.2-.2-.4-.3-.5-.1-.1-.3-.2-.5-.3,0-.2,0-.4,0-.6,0-.2,0-.4-.2-.6-.1-.1-.3-.2-.6-.2-.2,0-.4,0-.6.2-.1.1-.2.3-.2.6,0,.3,0,.6,0,.9,0,0-.1.1-.2.2-.9,1.5-4.1,3.7-5.8,3-.1,0-.3,0-.5,0s-.3,0-.5,0c-.3-.4-.6-.8-.7-1.3-.4-1.3-2-1.2-2.5-.3-.2.2-.3.4-.3.6,0,.2,0,.5,0,.7,0,.1,0,.2.1.3,0,0,0,0,0,0-1.3,3.5-1.8,7.1-2.2,10.7-.5,3.9-1,7.8-1.4,11.8,0,0,0,0,0,.1l-4,14-1.9,6.8c-.5,1.8-1.5,3.7-.7,5.5.4.8,1.6.7,2,0,.7-1.2,1.7-2.2,2.8-3.1,0,3.3-.9,6.6-1.4,9.8-.6,3.7-1.2,7.4-1.7,11.1-1,7.1-1.9,14.3-2.6,21.5-.1,1.1,1.3,1.5,2,.8l.3-.3c-1.2,8.9-2.2,17.8-3,26.7-.1.1-.2.3-.2.5-4,16-6.5,32.4-7.4,48.9,0,0,0,.1,0,.2-2.5,3.6-3.9,11.3,2.4,11.5,4.2.1,7.7-3.6,9.6-7.4,1.4,3.3,4,5.9,7.8,5.9,3.7,0,5.5-2.4,6.1-5.4,1.9,2.3,4.6,2,6.8.5,1.5,1.8,4.3,1.2,6.4.6,1.3-.4,2.5-1,3.4-2,.9,1.5,3,1.3,4.5.9,2.3-.6,4.4-2,5.7-4,2.8-4.3-2.9-8.3-6.7-9.5-.4-.8,0-1.4.6-2.7.4-1,.7-2,.8-3.1.4-3.1.8-6.1,1.5-9.1,1.5-6,3-12.1,4.5-18.1,0-.2,0-.4,0-.6,1.8-5.9,3.7-11.8,5.5-17.7,0,0,0,0,0,0,2.4-7.1,5.1-14.1,8-20.9l.7,1.9c0,.3.2.5.5.7.2.2.5.2.8.2.3,0,.5-.2.7-.4.2-.2.3-.5.3-.8.7-5.8,2.2-11.4,4-17,0,.3.2.6.3.9.4,1.2,2.3,1.1,2.3-.3,0-6.7,1.6-13.3,4.8-19.2.2,0,.3,0,.5,0,.2,0,.3,0,.5-.2,1.9.3,4.2,2.2,5.5,3.2,1.5,1.1,2.9,2.4,4,4,0,.1-.1.2-.1.3-2.4,8.7-4.5,17.4-6.3,26.2-.3,1.3,1.5,2.1,2.2.9.4-.7.8-1.3,1.3-1.9-.8,8.2-1.7,16.4-2.7,24.5-.2,1.2,1.6,1.5,2.2.6l1.6-2.6c0,.5,0,.9-.1,1.4,0,1.2-.2,2.5-.2,3.7-.1,2.4-.2,4.7-.2,7.1,0,4.9.2,9.7.7,14.5.9,9.5,2.7,18.9,5.2,28.2,0,.3.2.5.5.6,0,.1,0,.3,0,.4,0,.8-.6,1.1-1.1,1.8-.9,1.2-1.5,2.7-1.8,4.2-.4,2.9.4,6.3,3.6,7.1,1.4.4,2.9.2,4.2-.6.2,0,.3,0,.5,0,.2,0,.3,0,.5-.2,1.4-.9,2.5-2,3.3-3.4.8,3.1,4.4,3.7,7.3,2.8,1.8-.6,3.4-1.8,4.4-3.4h0c.3.6.8,1,1.3,1.2.5.3,1.1.4,1.7.4,2.7,0,5.4-2.3,5.9-5,.5-2.8-1.2-5.6-3.5-7.1-1.5-.9-3.2-1.5-4.9-1.7-.3,0-.7-.1-1.1-.2-.3-1.5,0-3.7,0-4.5,0-1.8.2-3.6.4-5.4.3-3.6.8-7.2,1.3-10.8.1,0,.3,0,.4,0,.1,0,.3,0,.4-.2.1,0,.2-.2.3-.3s.1-.2.1-.4c3.8-18.5,7.7-37.2,15.7-54.3.2,0,.4,0,.6-.1.2-.1.3-.3.4-.5,0,0,0-.2.1-.2,0,.7.4,1.4.8,2,.4.5.8.8,1.4,1,.5.2,1.1.3,1.7.2,1.5-.3,2.7-1.6,3.8-2.6l1.5-1.4c.2,0,.3,0,.5,0,.2,0,.3,0,.5-.2l.5-.4c1-.5,1.1-.5.5-.2-.1.3-.5.6-.6,1-.2.5-.5,1.3-.3,1.9.4,1.1,1.6,1.2,2.5.8,2.4-1.1,4.5-3.4,6.2-5.6,0,.7.1,1.4.6,2,.8.8,2,.5,2.8,0,2.5-2,2.6-5.3,3.5-8.2,9.2-6.7,18.8-13.1,26.8-21.2.2-.2.3-.4.3-.6,0-.2,0-.5,0-.7l2.6-2.6c2.9-3,5.9-5.8,8-9.4.1,0,.2-.2.3-.3s.1-.2.2-.4c0-.1,0-.3,0-.4,0-.1,0-.3-.2-.4ZM499.2,284.5s0,0-.1,0l.3-.6c0,.2,0,.5-.1.7Z"/>
          <path class="cls-16" d="M718.1,225.5c-.2-.2-.6-.4-.9-.4-4.2-.2-9.1,1.5-9.8,6.3-.7,4.4,3.7,7.4,7.5,8.1,3.9.7,9.1-.6,9.7-5.2.6-4.1-2.7-7.6-6.4-8.8Z"/>
          <path class="cls-16" d="M724.8,254.3c1.2-1.2,2.1-3.4,1.6-5.1-.2-.9-.7-1.7-1.4-2.3-.7-.6-1.6-1-2.5-1.1-1.5-.2-3.4.9-4.6,1.6,0-.7,0-1.4,0-2.1.1-.3.2-.7.1-1,0,0,0-.2,0-.2.3-1.7-2.4-2.5-2.6-.8-3.7,0-7.5,1.8-8.1,6-.4,3,1.4,5.2,3.8,6.6-.1.2-.2.4-.2.6-.6,3.9.8,7.3,4.3,8.9,2.5,1.1,6.7,1.3,9,.3,2.6-1,4.4-3.3,4.4-6.2,0-2.7-1.7-4.2-3.8-5.2Z"/>
          <path class="cls-16" d="M996.2,405.1c-5-3.1-10.7-4.7-16.5-5.7h-.4c-.1-.1-.2-.2-.4-.2-2.9-.9-5.9-1.6-8.9-2-1.4-.2-2.8-.3-4.2-.4-.4,0-.8,0-1.1,0-2.2-2.8-4.3-5.7-6.2-8.8-.1-.2-.2-.3-.4-.4-2.6-4.6-5-9.3-7.2-14.1-1.6-3.7-3-7.4-4.3-11.2,0-.2-.2-.4-.4-.6-.2-.2-.4-.3-.7-.3-1.5-4.5-2.8-9-4-13.6,0-.2-.1-.4-.3-.6-.1-.2-.3-.3-.5-.3,3-10.4,4.9-21.2,5.7-32,.2-.2.3-.4.4-.6,0-.2,0-.5,0-.7-1.9-9.2-4.2-18.4-10.7-25.4,0-.3,0-.6-.2-.8-2.4-3.6-5.5-6.6-9.2-8.9-3.7-2.2-8.5-2.8-11.6-6-.1-.1-.3-.2-.4-.3-.2,0-.3-.1-.5-.1-.2,0-.4,0-.5.1-.2,0-.3.2-.4.3-11.7-5.5-25-7.1-36-14.1-.2-.2-.5-.2-.8-.2,0-11.9,1.2-23.7,3.6-35.3,0-.2,0-.4,0-.5,0-.2,0-.4-.2-.5.3-.7,0-1.6-.9-1.7-8.3-1.3-16.6-1.5-24.9-1.3-4.2,0-8.3.2-12.4.4-.9,0-2,0-3,.2.1-1.2.3-2.4.4-3.6.2-2.1.4-4.2.7-6.4.9-.7.7-2.6-.8-2.5-7.9.5-15.8,2.1-23.2,4.9-1.6.6-.9,3.3.7,2.7l.7-.2c2.4.8,5.4.6,7.3,2.2.1.1.2.2.4.2,2.7,2.7,6.2,5.4,5.8,9.5-.1,1.2,1.6,1.8,2.4,1,2.4-2.3,5.6-2.7,8.7-2.8.1.2.3.3.5.4,2.3,1.3,4.9.8,7.3,1.5,2.8.8,5.1,2.8,6.7,5.2,2.9,4.4,4.4,10.5,3,15.8-.2,0-.3.2-.4.3-.1.1-.2.3-.3.5-1.5,4.6-3.5,9.1-7.9,11.6-3.7,2-8,2.5-12.2,2.8,0-.2-.2-.3-.3-.5-.1-.1-.3-.2-.5-.3-4.6-1.8-9.5-3.7-12.6-7.7-.7-.9-1.2-1.8-1.6-2.8,0,0,0-.2,0-.3.4-.7.2-1.7-.5-2,0-.2-.2-.4-.3-.6-1-1.7-3-.7-4.3,0-.2,0-.3.2-.4.3s-.2.3-.2.5c-3.3,0-6.6-.2-9.7-1.3-4.1-1.5-7.6-4.2-10.1-7.8,0-.1-.2-.2-.3-.3,0-.4.1-.8.2-1.1.4-1.7-2.3-2.5-2.7-.7-.6,2.9-1.1,5.8-1.5,8.7-.2.1-.3.3-.4.4,0,.2-.1.4-.2.6-.2,2.7-.3,5.3-.3,8-14.4-3.4-28.5-8-42.7-12.4-.1,0-.3,0-.4,0-.3-4-1.1-8.1-3.5-11.3-2.5-3.3-6.8-5.6-10.9-4.7-3.8.7-7.2,4.6-5.4,8.5,1.4,3.2,5.1,5.1,8.5,6.2.5,3.5,1,7.5-.2,10.8-.7,1.9-2.5,2.7-3.3,4.4-.7,1.6-.2,3.4.8,4.7,2.1,3.1,5.4,5.7,8.5,7.9,2.2,1.6,4.6,3,7,4.3,0,0,.1.1.2.1,0,0,.2,0,.3.1,1.1.6,2.3,1.1,3.4,1.5.2,0,.4.1.6.1.2,0,.4-.1.6-.3l.7.3c1.8.7,3.6,1.4,5.4,2.1,3.8,1.4,7.6,2.6,11.4,3.8,6.2,1.8,12.6,3.3,19,4.5,0,0,0,.1.1.2.9,1.1,2.1,1.8,3.5,2,.9,2,1.8,4,2.8,6l2.8,6.1c0,.2.3.4.5.5,4.2,8.4,8.9,16.5,14,24.4,0,.1.2.3.3.4-8.5,10.4-16.4,21.3-23.5,32.7h0c-4.3.2-8.7,1.6-10.1,6.3-.6,1.9-.2,4.1,1.5,5.3,2,1.4,4.4,1,6.5.2,0,0,.1,0,.2,0,.5.9,1.3,1.6,2.2,2,4.5,2.3,8.6-1.2,10.9-5,.2,0,.3,0,.5,0,.2,0,.3,0,.5-.2,0,.9.3,1.7.5,2.6.4.8.9,1.5,1.6,2,1.7,1.3,4.2,2.2,6.3,1.6,1-.3,1.8-.8,2.5-1.6.6-.8,1-1.7,1.1-2.7.1-1.4-.1-2.9-.8-4.2,5.1-4.3,10.1-8.8,14.7-13.6,2.3-1.5,4.5-3.1,6.5-4.9,5.8,3.9,12,7,18.6,9.2.3.6.4,1.3.4,1.9-.2,1.5-1.3.9-2.3.5-2-.8-3.8-.4-5.6.7-3,1.8-5.5,4.9-4.3,8.6.3.8.7,1.4,1.2,2,.5.6,1.2,1,1.9,1.4.7.3,1.5.5,2.3.5.8,0,1.6-.2,2.3-.5,1.2-.5.7-.6,1.9,0,.9.4,1.8.6,2.7.7,1.9.2,3.9-.3,5.5-1.4.2-.1.3-.3.4-.4,2.8,3.7,7.8,3.9,11.5,1.4.5,1.2,1.4,2.3,2.6,3,.7.4,1.5.7,2.4.8.4,0,.9,0,1.3.1.5.2,1,.7,1.5,1,1.5.9,3.3,1.3,5,1.2,1.8,0,3.5-.6,4.9-1.6.9,1.2,2.1,2.1,3.5,2.6,1.4.5,2.9.6,4.3.4,3.3-.7,5.7-3.4,6.6-6.5,3.9.3,7.8.7,11.6.6,3.1,0,6.1-.6,8.6-2.4.2,0,.3-.2.4-.3h.1c0-.1.2-.3.2-.3.1,0,.2-.2.3-.3l.4-.4c.2,1,0,2.1,0,3,0,1.5,0,3,.2,4.5.4,2.9,1.1,5.8,1.8,8.7,1.3,5.4,2.7,10.8,4.5,16.1,3.4,10.3,8.2,20.2,15.6,28.1.1.1.3.3.5.3.2,0,.4.1.6,0,6.3,6.4,13.5,12.1,22.8,12.8.1,0,.2,0,.4,0,3.3,1.1,7.2,1.3,10.7,1.2,3.4,0,6.8-.8,10-2.2,4-1.8,7.4-5,9.2-8.9.2,0,.4,0,.6-.2s.4-.3.5-.5c5.6-10-.5-21.3-9.4-26.7Z"/>
          <path class="cls-12" d="M845.5,225c-5.1-1.2-10.5.8-15,3.7-.4-3-1.2-6-3.3-8.4-2.2-2.5-5.4-3.7-8.5-4.7,0-.2-.1-.4-.2-.5-.1-.2-.3-.3-.5-.3-9.4-4.2-22.1,6.8-21.7,16.5.2,5,3.2,10.6,7.5,13.3,2.4,1.5,5.3,2,8.3,2.1.2.2.4.3.6.4,3.5,1.3,7,0,10.6-.4,1.1,2.9,1.3,6.2,3.3,8.8,1.9,2.4,4.8,3.6,7.6,4.6,3.7,1.2,7.1,1.6,10.9.6,3.2-.9,6.7-2,9-4.5,9.2-9.7,4.9-28-8.6-31.1Z"/>
          <path class="cls-20" d="M730.5,250v-.2c0-.1-.1-.2-.2-.3-.2-.7-.5-1.3-.7-2-.5-1.6-.9-3.3-2.2-4.5-.8-.7-1.9-1.2-3.1-1.2-.6,0-1.3,0-1.9.2-.3,0-.5.1-.8.2v-.2c0-1.8-2.8-1.8-2.8,0,0,1-.2,2.4.9,3.1,1,.7,2.1-.1,3.1-.3.4,0,.7-.1,1.1-.1.1.3.3.5.6.7,1.5.8,2.3,2.3,2.8,3.9.2.7.5,1.5.8,2.1.8,1.6,3.2.2,2.3-1.4Z"/>
          <path class="cls-8" d="M752.1,214.6c-1-2.5-5-3.9-7.3-4.9-2.5-1.1-8-3.7-8.5-4-5.7-2.8-11.6-5.1-17.6-7.1-6-1.9-12.3-3.7-18.7-2.8-.2,0-.4,0-.6.2-.2.1-.3.3-.4.5-2.4.2-4,2.2-4.6,4.7-.9,3.9-.9,8.2-.4,12.2.3,3,2.7,3.5,5.3,3.1,1.5-.2,3-.6,4.5-.6.8,0,1.7.2,2.5.4,1.5.5,2.8,1.3,4.4,1.2.6,1.9,1.1,4.1,2,5.7,1,1.9,3.6,1.6,5.5,2,2.2.3,4.1,1.5,5.5,3.2,1.2,1.5,2,7.8,1.8,8.2-2.8,4.1-6.2,3.4-6.5,4.6-.3.9-.3,2,0,2.9,0,.1,0,.2.2.3.4.6,1.1,1,2.3.7.8-.2,1.7-.3,2.6-.1.1.6,2.8,3.3,3.2,5,.3,1.2-.3,2.5-.7,3.7-.3.9.5,1.7,1.3,1.8,2.6.2,8,1,9.4-2,1.4-3,.8-7.5,0-10.7,0,0,0-.2,0-.3,0,0,0-.1,0-.2,0-.2-.2-.4-.4-.6-.2-.2-.4-.3-.6-.3-2-1.6-4.6-2.5-6.1-4.6-.4-.5-.7-1.1-.9-1.7.2-1.2.8-4,.9-4.5.1-1,.3-2,1.1-2.7.8-.7,2.1-.9,3.1-1.1,1.1-.3,2.3-.4,3.5-.5.6,0,1.8.8,2.3.4,1.1-.9.8-4.9.9-5.1.4-.2.3-1,.3-1.5,0-1,0-2,1.1-2.4.8-.3,1.9.3,2.7.6,1.1.5,2.2.9,3.4.9,2.3,0,4.8-2,3.8-4.5Z"/>
          <path class="cls-2" d="M631,211.4c-1.2,8.1-2.4,16.3-.9,24.3.3,1.7,1.1,3.7,2.8,4,1.7.2,3-1.5,3.9-3.1.2,1.8.4,4,.6,5.8.4,2.9.8,9,5.1,7.9.7-.2,1.4-.6,1.9-1.1.5-.5,1-1.2,1.2-1.9,1.3.9,3.2,1.7,4.8,1.4,1.5-.3,2.6-1.5,3.2-2.9.6-1.4.6-2.9.6-4.4l.2-6.6c.6,1.3,2.5,1.8,3.9,1.8.7,0,1.4-.3,2-.7.6-.4,1-1,1.3-1.7.2-.8.3-1.6.3-2.4-.1-3.4-1.1-6.6-2.9-9.5.4.4,1,.7,1.6.8.6.1,1.2,0,1.8-.2.6-.2,1-.6,1.4-1.2.3-.5.5-1.1.5-1.7,0-1-.3-1.9-.7-2.8-1.5-3.3-3.9-6.1-6.4-8.8.6-.3,1-1,1.5-1.4.6-.4,1.2-.9,1.4-1.6,0-.4,0-.8-.2-1.2-.2-.4-.5-.7-.8-.9-.7-.4-1.5-.6-2.3-.6-2.3-.2-4.5,0-6.7.4"/>
          <path class="cls-2" d="M627.3,212.6c2.3-7.9,7.1-14.9,13.8-19.8"/>
          <path class="cls-2" d="M627,213.6c5-4.2,10.7-7.4,16.8-9.5"/>
          <path class="cls-2" d="M590.4,191.2c12.2,4.2,22.6,12,30.6,22-10.3-4.6-21.4-7-32.7-7.2"/>
          <path class="cls-2" d="M602.9,208c.4,0,.5.6.3,1-3.4,10.4-8.4,20.2-14.8,29.1-1,1.4-2.4,2.9-4,2.6-1.8-.4-2.4-2.6-2.2-4.4-.7,1.3-2.3,2.8-3.4,3.7-1.6,1.4-3.3,2.7-5.4,3.3-2,.6-4.5.2-5.9-1.4-1.6-1.8-1.4-4.6-1.1-7-2.8,2.2-6.1,3.8-9.6,4.5-1.6.3-3.5.1-4.4-1.2-.9-1.3-.4-3.1.3-4.5,1-2.2,2.3-4.2,3.9-6-3,2-7,1.8-10.3.4-.5-.2-.9-.5-1.3-.8-.5-.5-.8-1.1-1-1.8-.8-2.9.9-6,3-8.2,1.8-2,4-3.7,6.4-4.9-2.1,1.1-4.5.8-6.8.3-1.1-.2-2.2-.5-2.8-1.4-.7-1.1-.3-2.5.3-3.6,1.9-3.1,7.4-6.3,11-6.4-1.5-.8-2.7-2.2-3.2-3.8-.6-1.8.6-3.9,2.3-4.7,1.7-.9,3.7-.9,5.6-.5,2.4.4,4.6,1.3,6.6,2.6.6-.4.9-1.5,1-2.2.9-8.3,2.6-16.5,5-24.5.4-1.4,30.8,8.9,33.3,9.9,1-3.9,2.1-7.7,3.1-11.6.3-1.1.6-2.3,1.4-3.1.9-.9,9.4,3.5,10.6,4,3.3,1.7,6.4,3.7,9.3,6,9.9,7.8,18.7,17,23.7,28.8"/>
          <path class="cls-2" d="M480.2,129.7c7-9.9,16-17.7,25.6-25.1-1.2-1.7-2-3.5-5.3-5.5-.1,0,13-6.3,26.3,1-1.2-2.8-2.2-5.6-3.1-8.5,10,3.9,19.4,9.8,26.7,17.7l1.3-4.6c0-.2,0-.3.2-.4.4-.5,0-.8.5-.4,6.8,5.7,11.8,13.1,14.7,21.4,1.1-2.3,2-4.7,2.5-7.2.5-.2,9.2,25.4,11.4,38.4.4,2.3.7,4.6,1.1,6.9.2,1.6,1.3,4.9.9,6.4.6-1.9,1.5-3.7,2.5-5.4.4-.7,1-1.4,1.8-1.2.5.2.8.8,1,1.3.8,2.3,1.2,4.7,1.3,7.1"/>
          <path class="cls-2" d="M538.5,99.1c4.3-3.3,8.1-7.3,11.3-11.7"/>
          <path class="cls-2" d="M527.9,87.8c8.7.7,17.4.1,25.9-1.6,4.3-.9,8.5-2.1,12.6-3.6,5.1-1.9,10.6-4.8,14.6-8.5-2.5-1.2-4.8-2.3-7.3-3.3,4.2-3.6,8.2-7.1,12.3-10.9,5.1-4.7,10.2-9.5,14-15.3-8.7-5-14.9-13.8-23.9-18.2,3.5-1.9,6.6-4,10-6.1.3-.2,0-.2.1-.5l-23.3-5.4c-4.2-1-8.4-2-12.7-2.5-5-.7-10.1-.8-15.2-.4,2.8-3.4,4.8-7.3,6.7-11.4-9,2.6-17.9,5.3-26.8,8.1-8.4,2.7-17,5.5-24.5,10.4-7.4,4.8-13.9,11.6-16.7,20-1-3.5-2-6.9-3.3-10.3,0-.2-.1-.3-.2-.4,0,0,0,0-.1,0,0,0,0,0-.1,0,0,0,0,0-.1,0,0,0,0,0,0,0-2.1,6.4-4.4,12.9-7.3,19.1-3,6.4-5.7,13-7.5,19.8-1.9,7.1-2.8,14.5-1.9,21.8-3-1.7-6.8-7.8-8.3-9.7-.6.3-.5,1.1-.4,1.8,1.2,8,2.5,16,3.4,24,.9,8.2,2.7,16.3,3.3,24.5-1.8-1.7-3.8-3.1-6-4.3-.4.8,0,1.7.2,2.5,4,10,4.3,21,4.5,31.6.2,12.1.8,23.6,2.6,35.5"/>
          <path class="cls-2" d="M457.1,184.5c-1.5,3.4-3.7,6.5-4.8,10.1-.6,1.9-.6,4,0,5.9.1.5.4.9.7,1.3.3.4.7.7,1.1.9.7.2,1.4.2,2,0,2.9-.8,4.4-4.2,5.8-6.6.1.9.5,1.8.7,2.7.3,1.6.5,3.3,1.3,4.7.8,1.5,2.1,2.7,3.7,2.9,1.7.2,3.3-.8,4.6-1.9,2.1-2,3.5-4.7,3.9-7.6.2,2.1,1,4.1,2.4,5.6.5.6,1.1,1.2,1.7,1.6,2.5,1.6,6.1,1,8.3-1.1,2.2-2,3.2-5.2,3.2-8.2,0,.9.2,1.8.6,2.5.4.8,1,1.5,1.7,2,.7.5,1.6.8,2.5.9.9.1,1.8,0,2.6-.3,1.5-.6,2.6-1.8,3.6-3.2,1.4-2.1,2.4-4.5,2.4-7.1.4,1.8.8,3.9,1.4,5.6.6,1.7,1.5,3.5,3,4.5,3.8,2.6,9,.7,11.7-2.6-.5,2.2-.3,4.4.5,6.5,1.1,3,4.8,3.4,7.5,3,2.3-.4,4.4-1.3,6.4-2.5-.6,2.8-.8,6.4.8,8.8,1.2,1.8,3.4,2.7,5.5,2.9,2.1.2,4.3-.2,6.4-.7"/>
          <path class="cls-2" d="M638.6,179.6c2-.9,4.1-1.6,6.2-2v2c12.5-5.8,24.1-10.9,34.7-19.9"/>
          <path class="cls-2" d="M689,149c-1.6-1.8-4.6-1.8-6.6-.5-1.8,1.1-3.6,3.4-3.7,5.6,0,1.4,0,2.9.6,4.1,1.6,3.6,6,3.7,9.2,2.3"/>
          <path class="cls-2" d="M683.2,147.2c-.5-1.4-.5-2.9,0-4.2.7-1.8,2-3.3,3.6-4.2,1.7-.9,3.6-1.1,5.5-.6s3.4,1.6,4.5,3.2c1.1,1.6,1.5,3.5,1.2,5.4"/>
          <path class="cls-2" d="M695.7,139.8c1.2-2.2,3.3-4,5.7-4.4,2.5-.4,5.2.7,6.2,3,.3.8.5,1.7.6,2.7.2,1.9,0,3.9-.8,5.6"/>
          <path class="cls-2" d="M659.8,211c19.9-9.6,34.4-27,46.6-45,1.5-2.2,2.9-4.6,4.6-6.7,1.7-2.1,3.9-3.5,5.2-5.9,1-1.7,1.4-3.7,1.2-5.6-.1-1-.5-1.9-1-2.7-.5-.8-1.3-1.5-2.1-2-1.7-.9-4-.7-5.4.6"/>
          <path class="cls-2" d="M706.4,158.5c4.4-3.4-1.8-5-4.6-4.2-1.8.5-8.7,3.6-5.7,6.4.6.5,1.5.6,2.3.6,2.9,0,5.7-1.1,8-2.8Z"/>
          <path class="cls-2" d="M625.3,217.8c-1.6-.4-3.3-.6-5-.5l1.3,2.5,3.6-2Z"/>
          <path class="cls-2" d="M607.4,222.8c-3.5,1.4-6,4.9-7.1,8.6-.2.7-.4,1.4-.1,2.1.5,1.2,2,1.5,3.3,1.2,5.2-.9,9.2-5.1,14.8-4.8.8,0,1.6.2,2.4.2.6,0,1.2,0,1.7-.4,1-.7,1.1-2.2.5-3.2-.6-1-1.7-1.7-2.8-2.1-3.9-1.6-8.5-3.2-12.6-1.5Z"/>
          <path class="cls-2" d="M619.6,223.6l2.5-5"/>
          <path class="cls-2" d="M603.4,226.6c1.9,1.7,3.7,3.5,5.4,5.4"/>
          <path class="cls-2" d="M609.3,231.6c.3-3,.7-6,1.2-8.9,1,2.3,2.2,4.7,3.4,7,1-2,2.2-3.9,3.6-5.6.8,1.8,1.6,3.6,2.4,5.4"/>
          <path class="cls-2" d="M548.6,373.2c1.7,1.4,4.5,1.4,6.2,0,1.8-1.4,2.6-3.8,2.3-6-.2-1.1-.6-2.2-1.3-3.1-.6-.9-1.4-1.8-2.4-2.4-1.8-1.3-3.7-2.3-5.9-2.4,1.2-13,3.5-25.8,6.8-38.4,3.1-12.1,7.4-23.7,11-35.6.3-1,.8-2,1.8-2.2,0,.8,0,1.7.3,2.4,0,.4.3.7.6,1,.3.3.7.5,1,.6.4,0,.8,0,1.1-.2,1.1-.4,2.2-1,3.1-1.7,1.7-1.1,3.2-2.3,4.7-3.7,0,.6-.2,1.3-.5,1.9-.2.6-.3,1.3-.1,1.9,0,.3.3.6.5.8.2.2.6.3.9.3.3,0,.6-.2.9-.4,2.7-1.6,4.8-4.1,6.2-6.9.2,1.2,0,3.4,1.4,4,.8.3,1.7,0,2.3-.6,2.1-1.9,2.8-6.1,3.4-8.8,10.9-6.2,20-14.4,28.7-23.3,3.4-3.5,6.7-7.1,9.4-11.2"/>
          <path class="cls-2" d="M536.9,374.4c.9.7,1.9,1.3,3,1.7,1.1.3,2.2.5,3.4.3,1.2,0,2.3-.5,3.2-1.1,1.9-1.4,2.4-4.2,1.8-6.5-.6-2.3-2-4.3-3.4-6.2"/>
          <path class="cls-2" d="M526.6,364.6c-1.2,1.1-2.1,2.4-2.8,3.9-1,2.4-1,5.5.8,7.4.6.6,1.3,1.1,2.2,1.5,3.1,1.2,7-.2,9-2.9,2.1-2.7,2.5-6.4,1.8-9.7"/>
          <path class="cls-2" d="M522.5,259.8c-3.2,10-5.6,20.2-6.9,30.6,1.6-1.6,3-3.4,4-5.3-1.6,9-2.4,19.3-3,28.5.5.3,1-.3,1.3-.8l3-5.5c-1.7,19.1.1,38.4,5.5,56.9"/>
          <path class="cls-2" d="M477.6,358.5c4.1-24.6,11.3-48.6,21.2-71.4.3,2,.7,4.2,1.5,6.1l5.2-22.5c0,2,.8,3.9,2.1,5.3.5-7.6,2-15.2,4.4-22.5"/>
          <path class="cls-2" d="M474.9,372.9c3.7,1.1,8-1.5,8.8-5.3.8-3.8-2.1-7.9-5.9-8.4"/>
          <path class="cls-2" d="M465.2,374.2c3.4,1.8,8,0,9.6-3.4,1.6-3.4.3-7.9-2.8-10.1"/>
          <path class="cls-2" d="M458.2,373.9c2.3,1.4,5.5.8,7.3-1.2,1.8-2,2.1-5.1,1-7.6-1.1-2.4-3.5-4.2-6-4.9,4.8-24.8,11.1-49,18.6-73.1.1,2.3,1,4.4,2.1,6.4,2.2-8,4.4-16,6.6-24l.6,6.4c2.3-6.3,5.2-12.6,10-17.2,7.1-6.9,17.9-8.1,24.1.9"/>
          <path class="cls-2" d="M443.3,370.8c-.6,2.1.2,4.4,1.7,5.9,1.6,1.5,3.7,2.3,5.9,2.4.9,0,1.9,0,2.8-.4,1.6-.7,2.7-2.3,3.2-4,.5-1.8.6-3.6.1-5.4-.5-1.8-1.4-3.4-2.7-4.6"/>
          <path class="cls-2" d="M443.1,372.7c0,2.9-2.8,5.3-5.4,6.6-2.6,1.2-6.2,1.5-8.2-.6-.7-.9-1.2-1.9-1.4-3-.3-1.4-.2-2.9.3-4.3.4-1.4,1.2-2.7,2.2-3.7-.2-25.7,9.2-50.8,10.1-76.4-.3,1.4-1.4,2.5-2.6,3.4,1.2-15.1,3.2-30.5,6.4-45.3-1.4,1.8-2.8,3.2-4.2,5.1-.7-1.3-.5-2.9-.2-4.4,1.8-8.5,4.7-16.6,5.9-25.2,1.2-8.8,2.4-19.5,5.7-27.9"/>
          <path class="cls-2" d="M839.9,225.2c-4.2.6-8,2.6-10.9,5.7-3.6,3.8-6,8.2-6.1,13.6,0,2.6.5,5.2,1.6,7.5,1,2,2.3,3.7,4,5.1,5.5,4.8,13.9,6,20.5,2.8,6.6-3.2,10.9-10.6,10.3-18-.7-9.5-9.8-18.1-19.4-16.8Z"/>
          <path class="cls-2" d="M830.4,229.3c.8-5.2-3-10.1-7.5-12.7-2.3-1.3-4.8-2.2-7.4-2.6-9.2-1.3-17.2,5.3-19.3,14.2-1.4,6,1.4,12.3,6.1,16,5.4,4.2,13.3,4.3,19.7,3"/>
          <path class="cls-2" d="M828.9,241.8c.7-.7-.2-2.1-1.1-1.6-1.2.7.2,2.5,1.1,1.6Z"/>
          <path class="cls-2" d="M803.3,231.9c-.2-.1-.5-.1-.7,0-.2,0-.4.2-.6.5-.1.2-.1.5,0,.7,0,.2.2.4.5.6.2.1.5.2.7,0,.2,0,.4-.2.6-.5.1-.2.2-.5,0-.7,0-.2-.2-.5-.4-.6-.1,0-.2-.1-.4-.1-.1,0-.2,0-.4,0-.1,0-.2.1-.3.2,0,.1-.1.2-.1.4"/>
          <path class="cls-2" d="M819.7,248.6c-1,1.2-2.1,2.3-3.3,3.3-.8-1.1-1.5-2.2-2.1-3.4,1.8.2,3.6.2,5.4,0Z"/>
          <path class="cls-2" d="M816.7,249.5c-.5,4.4-.2,8.9.8,13.2"/>
          <path class="cls-2" d="M811.1,259.3c.8,1,1.7,1.9,2.8,2.5,1.1.6,2.3,1,3.5,1.1,1.2.1,2.5,0,3.7-.4,1.2-.4,2.3-1,3.2-1.8"/>
          <path class="cls-2" d="M795.5,234c-3,9.8-4.2,20.2-3.6,30.4"/>
          <path class="cls-2" d="M811.4,213.7c9-4.2,18.8-6.5,28.7-6.9-.2,3.9-.4,7.7-1.1,11.5,13.9-.2,27.9-.3,41.8.9-2.8,13-4.5,26.3-4.9,39.7"/>
          <path class="cls-2" d="M739.7,242c-2.3-.7-4.6-1.6-6.6-2.9-1.1-.7-2.3-1.5-3-2.7-1.4-2.1-1-5.1.5-7.1,1.6-2,4.2-3,6.7-2.8s4.9,1.3,6.9,2.9c1.8,1.5,3.2,3.3,4.1,5.4,1.1,2.4,1,5.6,1.5,8.3,14,3,28.1,7.4,41.7,12"/>
          <path class="cls-2" d="M707,230.3c-.9,2.6.3,5.6,2.3,7.4,2.1,1.8,4.9,2.5,7.6,2.7,3.8.3,6.8-.8,8-4.6,3.2-10.1-14.7-14.4-17.9-5.5Z"/>
          <path class="cls-2" d="M715.7,248.7c1.4-1.8,3.4-2.9,5.6-3.2,1.3-.2,2.7,0,3.6.8,1.1.9,1.3,2.5,1.5,3.9.1.8.1,1.6,0,2.5-.3,1-.9,1.8-1.8,2.4-3.4,2.8-9.2,3.1-13,1-2.3-1.2-4-3.6-4.1-6.2-.2-5.6,6.5-7,10.7-7.6"/>
          <path class="cls-2" d="M718.5,240.7v5.7"/>
          <path class="cls-2" d="M721.7,245c3-3.9,4.2-9,4.5-13.8.4-6,2.8-15-4.1-18.7-3.3-1.8-7.6-1.1-9.8,2.1-2.1,3.2-1.5,7.7,1,10.6"/>
          <path class="cls-2" d="M723.9,242.9c4.6.9,9.5,1.3,13.9-.4"/>
          <path class="cls-2" d="M710.8,256.7c-.5,1.4-.5,2.9,0,4.3.4,1.4,1.3,2.6,2.5,3.5.9.6,1.8,1,2.8,1.3,2.6.9,5.4,1.3,8,.6,2.6-.7,5-2.8,5.4-5.5.5-2.7-1.5-5.7-4.2-5.9"/>
          <path class="cls-2" d="M728.8,256.3c3.1.6,8,0,9.3-3.5.2-.8.3-1.6.3-2.5v-7.5"/>
          <path class="cls-2" d="M730.7,247.2c-.2,2.1-.3,4.2-.3,6.4"/>
          <path class="cls-2" d="M723.4,267c-1,11.9-3,23.8-4.7,35.6-.2,1.3-.3,2.6-.3,3.9,0,.4,0,.7.3,1,.2.2.4.3.6.4.2,0,.5,0,.7,0,.5,0,.9-.3,1.3-.6s.7-.6.9-1.1c.4-.8.7-1.8.9-2.7,2.8-13.4,4.2-26.9,5.9-40.5"/>
          <path class="cls-2" d="M710.2,261.6c-7.4,3.6-14.2,8.9-18.5,16-5.4,8.9-7.1,20-1.7,29.3,4,6.9,10.7,12.8,18.2,15.5,15.8,5.6,39.2.3,46.1-16.6,7-17.3-7.1-33.2-19-44-.4,0-.2.2-.4-.2-.1-.3-.2-.7-.2-1.1,0-1.3,0-2.7,0-4"/>
          <path class="cls-2" d="M704.7,273.6c2.9-3.4,6.5-6.1,10.6-7.8"/>
          <path class="cls-2" d="M742.4,310.7c3-3.4,7.3-9.8,7.5-14.5-5.5-.8-11.2.1-16.8.1h-37.4c0,0-.2,0-.3,0-.1,0-.2,0-.2.2,2.1,7.1,7,14.9,13.7,18.5,10.5,5.7,25.5,5.1,33.6-4.3Z"/>
          <path class="cls-2" d="M739.5,218.6c1.5-.6,3.1-.8,4.7-.4,1.5.4,2.9,1.2,4.4,1.3.9,0,1.8-.3,2.6-.9s1.3-1.3,1.6-2.2c.6-2-.4-2.5-1.9-3.5-3.9-2.6-8-4.8-12.3-6.7-8.5-3.9-17.5-6.7-26.6-8.9-3.1-.8-6-.9-9.2-1-2,0-5.4-.9-7,.6-1.3,1.3-1.3,5.5-1.5,7.2-.3,3-.4,6-.3,8.9,0,.9,0,1.9.5,2.6.9,1.6,5.2.7,6.9.9,3,.4,6,.9,8.9,1.8"/>
          <path class="cls-2" d="M742.3,218.5c-.9,2.7-1.4,5.4-1.7,8.2"/>
          <path class="cls-2" d="M744.6,270.6c16.1,8.4,34.3,11.9,51.4,17.6"/>
          <path class="cls-2" d="M795.1,284.1c4.7,14.2,12.3,28.4,20.4,41"/>
          <path class="cls-2" d="M829.6,310.4c-7.2,7.5-14.1,15.4-20.4,23.7-3.1,4.1-6.2,8.3-9.1,12.5-1.5,2.2-2.9,4.4-4.4,6.6-.9,1.4-1.6,4.2-3.1,5.1-.3.1-.6.2-1,.2-4.1.2-7.5,2.7-8.3,6.8-.4,1.9-.2,4.2,1.7,5.3.9.5,1.9.8,2.9.8,1,0,2-.2,2.9-.7"/>
          <path class="cls-2" d="M796.8,360.2c-3.2.5-5.4,3.6-6.1,6.8-.3,1.3-.4,2.7.2,3.9.9,1.7,2.9,2.4,4.7,2.6.8.1,1.7.1,2.5,0,1.8-.3,3.5-1.3,4.6-2.8,1.1-1.5,1.9-3.2,2.2-5"/>
          <path class="cls-2" d="M805.2,365.4c-.2,1.4,0,2.8.4,4.1.2.7.5,1.3.9,2,.8,1.3,2.1,2.2,3.5,2.7,1.5.4,3,.3,4.4-.4,1.4-.7,2.4-1.8,3-3.2.6-1.4.6-3,0-4.4-.6-1.6-1.8-2.9-3-4"/>
          <path class="cls-2" d="M817,364c12.9-10.4,26.1-20.7,36.3-34,3.8-4.9,7.1-10.3,9.8-15.9"/>
          <path class="cls-2" d="M838.3,347c6.7,4.2,13.8,7.8,21.5,9.9,11.4,3,23,2.6,34.6,2.6"/>
          <path class="cls-2" d="M887.9,361.3c-2.1-1-4.5-1.4-6.8-1.2-2.3.3-4.6,1.5-5.9,3.5-.8,1.2-1.2,2.6-1.3,4-.1,1.7.3,3.6,1.4,4.9,1.4,1.5,3.5,2,5.6,2.4"/>
          <path class="cls-2" d="M883.6,365.2c-.9.6-1.7,1.5-2.2,2.5-.5,1-.9,2.1-.9,3.2,0,2.3,1.2,4.6,3.3,5.5,1.1.5,2.3.6,3.5.6,1.6,0,3.2-.4,4.3-1.5"/>
          <path class="cls-2" d="M895.9,364c-2.1,1.4-3.7,3.5-4.4,6-.4,1.1-.4,2.3-.2,3.5.3,1,.8,1.9,1.6,2.6,1.1,1.1,2.4,1.8,3.8,2.2,1.5.4,3,.3,4.4-.2,2.2-.7,5.6-3.3,5.5-6,4.2,0,8.5.1,12.7.2,2.3,0,4.6,0,6.6-.9,2-1,3.7-3.2,3.2-5.4-.4-1.7-1.8-2.9-2.8-4.3.6-.7,1.4-1.8,2.1-2.4"/>
          <path class="cls-2" d="M898.3,320.2c-1.5-1.1-3.3-1.5-5.2-1.9-2-.4-4-.4-6-.2-6,.9-10.9,5.8-12.6,11.7-1.3,4.3-1.1,8.6,1.2,12.4,2.2,3.6,5.1,6.8,8.4,9.5,4.4,3.6,9.3,6.5,14.2,9.4"/>
          <path class="cls-2" d="M864.8,361.4c-.7.2-1.4.6-2,1.2-.6.5-1,1.2-1.3,1.9-.3.7-.4,1.5-.3,2.3,0,.8.3,1.5.7,2.2.7,1.1,1.7,1.9,2.8,2.4,1.4.7,3,1,4.6.9,1.6,0,3.1-.6,4.5-1.4"/>
          <path class="cls-2" d="M860.4,359.4c-.5-.5-1.1-.9-1.7-1.1-.6-.2-1.3-.3-2-.3-1.4.1-2.7.7-3.7,1.6-2.5,2.2-3.1,6.9-.8,9.5,2.3,2.6,7.1,2.5,10.1,1.3"/>
          <path class="cls-2" d="M855.9,357c-2.6,0-5.3,0-7.7,1.1-2.4,1-4.4,3.2-4.8,5.7-.3,2.5,1,5,3.1,6.3,1.1.6,2.3,1,3.5,1.1,1.2,0,2.5,0,3.6-.5"/>
          <path class="cls-2" d="M876.7,257.7c12.1,7.3,26.5,8.9,39.3,14.8,12.5,5.8,23.3,15.8,28.2,28.9,2.8,7.5,2.8,14.1,1.9,21.9-.9,8.5-2.3,17.1-5.6,25.1-.8,1.9-1.7,3.7-2.7,5.5"/>
          <path class="cls-2" d="M927.9,370.7c.8,8,2.9,15.8,4.5,23.6,1.4,6.8,3.8,13.4,7,19.6,4.8,9.1,11.5,18.2,20.5,23.5,8.9,5.2,20.5,8.3,30.7,6.2,12-2.4,20.8-15,16-27.3-.3-.7-.6-1.4-1-2.1-5.4-9.3-15.3-13.6-25.4-15.6-3.1-.6-6.3-1.1-9.5-1.4-3.5-.3-5.2.3-7.3-2.7-10.1-14.9-17.4-31.6-21.5-49.2"/>
          <path class="cls-2" d="M718.3,218.3c0,0-.2,0-.2,0,0,0-.1.1-.2.2,0,0,0,.2,0,.2,0,0,0,.2,0,.2,0,0,0,.1.2.2,0,0,.1,0,.2,0,0,0,.2,0,.2,0,0,0,.1,0,.2-.2.2-.3-.2-.7-.5-.6"/>
          <path class="cls-2" d="M699.4,215.6l.8-14.3"/>
          <path class="cls-2" d="M694.8,207.1c0,.1.2.2.3.3.1,0,.2.1.4.2s.3,0,.4,0c.1,0,.3-.1.4-.2.2-.2.3-.5.3-.8s-.1-.6-.3-.8c-.2-.2-.5-.3-.8-.4s-.6,0-.8.2"/>
          <path class="cls-14" d="M682.2,211.1c-12-.6-24.1-.9-36.1-.9-.1-.1-.3-.2-.5-.2-.2,0-.3,0-.5,0l-1.3.3c-1.3.3-1,2.3.3,2.3,12.7,0,25.4.3,38.1.9,1.5,0,1.5-2.3,0-2.4Z"/>
          <path class="cls-14" d="M676.9,218.2c-2.5-.6-5.1-.6-7.5,0-1.5.4-.8,2.7.6,2.3,2-.6,4.2-.6,6.3,0,1.5.4,2.1-1.9.6-2.3Z"/>
          <path class="cls-14" d="M649.8,221.2c-.8-.2-1.6-.1-2.4.2-.7.3-1.3.9-1.7,1.7-.1.3-.2.6-.1.9,0,.3.3.6.5.7.5.3,1.4.2,1.6-.4,0-.3.3-.5.6-.6.3-.1.6-.2.8-.1,1.5.4,2.1-1.9.6-2.3Z"/>
          <path class="cls-14" d="M642.5,232.3c-1-2.5-1.4-5.2-1.3-7.9,0-1.5-2.3-1.5-2.4,0-.1,2.9.4,5.8,1.4,8.6.6,1.4,2.8.8,2.3-.6Z"/>
          <path class="cls-14" d="M613.6,239.5c-1.3-.1-2.6-.2-4-.2-1.5,0-1.5,2.4,0,2.4,1.3,0,2.7,0,4,.2.6,0,1.2-.6,1.2-1.2,0-.3-.1-.6-.4-.8-.2-.2-.5-.3-.8-.4Z"/>
          <path class="cls-14" d="M601.8,238.1c-.8.8-1.4,1.7-1.8,2.6-.4,1-.6,2.1-.6,3.1,0,1.5,2.4,1.5,2.4,0,0-.8.1-1.5.4-2.2.3-.7.7-1.3,1.2-1.9,1.1-1.1-.6-2.8-1.7-1.7Z"/>
          <path class="cls-14" d="M584.6,224.1c-1.1.9-2.6,1.4-4.1,1.3-1.5,0-1.5,2.3,0,2.4,2.1,0,4.1-.7,5.7-2,1.2-1-.5-2.6-1.7-1.7Z"/>
          <path class="cls-14" d="M580.6,212.1c-1.8-1.9-2.9-4.3-3.2-6.8-.2-1.5-2.5-.9-2.3.6.5,3,1.8,5.7,3.9,7.9,1,1.1,2.7-.6,1.7-1.7Z"/>
          <path class="cls-14" d="M587.5,206.4c-.4.3-.8.6-1.3.8-.5.2-1,.2-1.5.2-1.5,0-1.5,2.3,0,2.4.8,0,1.6,0,2.4-.4.8-.3,1.5-.7,2.1-1.3,1.1-1-.5-2.7-1.7-1.7Z"/>
          <path class="cls-14" d="M587.2,188.5c0,.5,0,1.1-.4,1.5,0,.1-.2.2-.4.2,0,0-.1,0-.1,0,0,0,0,0,0,0-1.1-1-2.8.6-1.6,1.7.5.4,1,.7,1.7.7.6,0,1.2-.2,1.7-.5,1.1-.8,1.5-2.2,1.5-3.6,0-1.5-2.3-1.5-2.4,0Z"/>
          <path class="cls-14" d="M583.5,184c-.5-.4-1.2-.6-1.8-.6-.7,0-1.3.2-1.8.5-.5.4-1,.9-1.2,1.6-.2.6-.3,1.3,0,2,.4,1.5,2.6.9,2.3-.6-.2-1,.8-1.3,1.5-.8.1,0,.3.1.4.2.2,0,.3,0,.5,0,.1,0,.3-.1.4-.2.1,0,.2-.2.3-.3.2-.3.2-.6.1-.9,0-.3-.3-.6-.5-.7Z"/>
          <path class="cls-14" d="M604.6,165.4c-1.1.3-1.7-1.2-2.1-2,0-.3-.3-.5-.6-.7-.3-.2-.6-.2-.9-.1-.6.2-1.1.9-.8,1.5.4,1.1.9,2.2,1.8,2.9.4.4.9.7,1.5.8.6.1,1.1.1,1.7,0,1.5-.4.8-2.7-.6-2.3Z"/>
          <path class="cls-14" d="M608.3,146.5c-.3-.2-.6-.2-.9-.1-.3,0-.6.3-.7.5-.4.6-.7,1.3-.8,2-.1.7,0,1.5.2,2.2,0,.3.3.6.6.7.3.2.6.2.9.1.2,0,.3-.1.4-.2.1,0,.2-.2.3-.4,0-.1.1-.3.1-.4,0-.2,0-.3,0-.5-.2-.4-.2-.8-.1-1.2,0-.4.3-.8.5-1.1.4-.5,0-1.3-.4-1.6Z"/>
          <path class="cls-14" d="M621.4,145.7c-1,.3-2,.8-2.7,1.6-.7.8-1.2,1.8-1.5,2.8-.3,1.5,2,2.1,2.3.6.1-.7.4-1.3.9-1.8.5-.5,1-.8,1.7-1,1.5-.4.8-2.7-.6-2.3Z"/>
          <path class="cls-14" d="M626.1,157.2c-.7.7-1.2,1.4-1.5,2.3-.3.9-.5,1.8-.5,2.7,0,1.5,2.4,1.5,2.4,0,0-.6,0-1.2.3-1.8.2-.6.6-1.1,1-1.5,1.1-1.1-.6-2.8-1.7-1.7Z"/>
          <path class="cls-14" d="M640.5,157.4c-1.2.7-2.7,1.1-4.1.9-1.5-.1-1.5,2.3,0,2.4,1.9.1,3.7-.3,5.3-1.2,1.3-.8.1-2.8-1.2-2.1Z"/>
          <path class="cls-14" d="M687.2,201.9c-18.2-4-36.5-8.1-54.7-12.3-1.5-.3-2.1,2-.6,2.3,18.2,4.2,36.4,8.3,54.7,12.3,1.5.3,2.1-2,.6-2.3Z"/>
          <path class="cls-14" d="M679.8,193.4c-3.6-1.5-7.1-3.1-10.6-4.8-1.4-.7-2.6,1.4-1.2,2,3.7,1.8,7.4,3.5,11.2,5,1.4.6,2-1.7.6-2.3Z"/>
          <path class="cls-14" d="M680.8,205.5c-11.1-1-22.2-1.9-33.3-2.9-10.7-1-21.4-2.3-31.6-5.8-1.4-.5-2.1,1.8-.6,2.3,10.2,3.4,20.9,4.8,31.5,5.8,11.3,1.1,22.7,2,34,3,1.5.1,1.5-2.2,0-2.4Z"/>
          <path class="cls-14" d="M633.1,183.8c-3.6-.1-7-1.2-10.1-3.1-1.3-.8-2.5,1.3-1.2,2,3.4,2.1,7.3,3.2,11.3,3.4,1.5,0,1.5-2.3,0-2.4Z"/>
          <path class="cls-14" d="M622,189c-1.7-.3-3.2-1.2-4.3-2.5-1-1.1-2.7.5-1.7,1.7,1.4,1.6,3.3,2.7,5.4,3.1,1.4.3,2.1-2,.6-2.3Z"/>
          <path class="cls-14" d="M617.9,173.7c-.9-.2-.9-1.4-.9-2.1,0-1.5-2.5-1.5-2.4,0,.1,1.8.6,3.9,2.6,4.4,1.5.4,2.1-1.9.6-2.3Z"/>
        </g>
      </g>
      <path class="cls-12" d="M1268.8,763.6c-1.4-2.6-4.1-4-7-3.7-.7-2.4-2.4-7.5-4.2-11.1,1.5-4.5,2.3-9.2,2.6-13.9.7-10.9-2-20.7-7.8-28.4-.2-3.3-1.4-22-6.8-35.6-5-12.4-8.5-25.3-10.6-38.5-1.4-9.6-1.4-15.4-1.4-15.5,0-.3,0-.6-.2-.8l9.2-8.5c.2-.1.3-.3.4-.5s.1-.4.1-.6c0-.2,0-.4-.1-.6,0-.2-.2-.4-.4-.5l-16.1-13.7,3.6-8.1c0-.2.1-.4.1-.6,0-.2,0-.4-.1-.6,0-.2-.2-.4-.4-.5-.2-.1-.3-.3-.5-.3-.4-.2-5.5-1.8-12-3.5,0-.2-.2-.4-.4-.6-2.5-2.5-6.9-17.5-9.5-27.6,1.9-.4,4.8-1.3,6-3.8,1.1-2.3.7-4.2.2-5.3-.4-.9-.9-1.6-1.6-2.3-.7-.6-1.5-1.1-2.4-1.5-1.1-.4-2.6-.2-3.8.2,0-.8,0-1.6-.2-2.4-.2-.8-.6-1.5-1.2-2.1-.5-.6-1.2-1.1-1.9-1.4-.7-.3-1.5-.5-2.3-.6-1.8,0-3.5,1.2-4.8,2.4-.8.8-1.3,2.2-1.6,3.3-1.4-1-3.1-2.5-4.6-2.3-1.4.1-2.4,1.6-3.1,2.3-.6-.5-1.2-.8-2-1.1-1.8-.6-3.6-.8-5.2.1-1.7.9-3.1,2.4-3.8,4.2-2.4-1.8-5.7-3.2-9-.8-2.2,1.7-2.7,4.4-1.8,7.5.3,1.1.7,2.1,1.3,3.1-2,3.2-9,15.7-11.5,33.2-2.7,19.1,1.5,35,2.1,37.1l1.2,76.5c0,.2,0,.5.2.7.1.2.3.4.5.5-.5,1-1,2.1-1.6,3.3-3.2,7.4-4.1,14.1-3.3,19.9.8,5.1,2.5,9.5,5,12.9,2.4,3.2,5.4,5.5,9,6.6-.6.9-1.4,2-2.2,3.2-1.7,2.6-2.9,5.3-3.2,6.8-.5,0-1.7,0-2.3,0-2.7.1-3.9.3-5.3,1.6-.8.7-1.4,1.6-1.7,2.6-.3,1-.4,2.1-.3,3.1.1,1,.5,2,1.1,2.9.6.9,1.3,1.6,2.2,2.1,1.1.6,2.2.9,3.5.9-.6,1.1-.9,2.2-.9,3.4,0,2.1.8,3.9,2.8,5.5,1.4,1.1,3.3.9,4.9.7,1.6-.2,2.1-1.1,3.2-2,.7,1.7,2.1,3.8,4,5,.8.6,1.8.9,2.8.9.7,0,1.5.1,2.1,0,3-.9,4.8-2.6,5.3-5.5.2-1.1.2-2.2,0-3.3,1.1-1.6,4.5-6.5,7.5-12,4.8-8.7,6.3-14.3,4.6-17.4l4.3-3.5c1.3,5.4,2.6,12.1,2,16.7-.8,7.4-6.7,17.5-11.9,26.6-3.7,6.6-7.2,12.3-8.1,16.1-2.3,9.7-.1,26.2,9.9,32,2.2,1.3,4.7,1.3,7.3,1.3s2.6-.2,4.3-.7c6.8-1.9,12.4-6.7,14.8-11,3.7-6.9,6.5-14.1,8.5-21.6,3.4-13,4.6-25.7,3.6-37.8-.4-4.5-.8-9.5-1.2-13.2,1.5,1.4,2.7,2.9,3.1,3.8.4.8.9,2.7.8,3.9-.2,1.9-.8,4.5,0,6.1.9,2,7.9,10.1,10.7,13.2-.7,1-1.2,2.1-1.4,3.2-.3,1.2-.3,2.4,0,3.5.4,2.2,1.9,3.6,3.9,4.3.6.2,1.2.3,1.8.3,1.2,0,2.4-.4,3.3-1.2.6-.5,2.1-2.5,2.5-3.1.3.4.7,1.1,1.2,1.4,1.5,1,3,2.5,5.2,1.5,2.1-1,3.3-2.7,3.5-4.7,0-.7,0-1.4,0-2.1,1.6.2,3.4-.1,5.1-1.8,2-2,2.4-5.6.8-8.5ZM1187.6,556.1c.6.5,3.2,14.7,4.4,18.5h-.3c-5.5,1-8.6,4-10.4,6.5-.4.5-.9,1.6-1.2,1.6,1.1-9,5-22.1,7.5-26.6Z"/>
      <path d="M1158.4,700.2c-.4,0-.8-.2-1.1-.4-.3-.3-.4-.7-.5-1.1l-1.2-79c-.6-2.1-4.8-17.9-2.1-37.1,2.5-17.5,9.5-30,11.5-33.2-1.6-2.8-3-7.7.9-10.6,2.2-1.6,4.8-1.9,7.3-.7.5.2.9.5,1.4.8,1.7-2.7,5-5.7,9.6-4.2.8.2,1.5.6,2.1,1.1.6.5,1.1,1.2,1.5,1.9,1,1.9.8,4.2.6,5.7,1.4.2,2.7.8,3.7,1.7,1.2,1.2,1.9,2.7,1.9,4.7,0,4.5-3.9,6.5-6.6,7.1-1.3,3.3-6.1,16-7.2,25.6-1.3,11,1.4,29.4,1.4,29.6,0,.4,0,.8-.3,1.1-.2.3-.6.5-1,.6-.4,0-.8,0-1.1-.3-.3-.2-.5-.6-.6-1-.1-.8-2.7-19-1.4-30.4,1.3-11.4,7.5-26.5,7.7-27.2.1-.3.3-.5.5-.6.2-.2.5-.3.7-.3.2,0,4.8-.6,4.8-4.3s-.3-1.9-.9-2.5c-1-1-2.9-1.1-3.5-1.1-.2,0-.5,0-.7-.1s-.4-.3-.6-.5c-.2-.2-.3-.4-.3-.7,0-.2,0-.5,0-.7.3-.9.9-3.6,0-5.3-.2-.4-.4-.7-.7-.9-.3-.3-.7-.4-1-.5-4.5-1.5-6.7,4-6.8,4.3,0,.2-.3.5-.5.6-.2.2-.4.3-.7.3-.3,0-.5,0-.8,0s-.5-.2-.6-.4c-.3-.3-3.1-3.4-6.1-1.1-3,2.2.3,7.3.3,7.4.2.3.3.5.3.8s0,.6-.3.8c0,.1-8.8,13.4-11.6,32.8-2.8,19.4,2,35.8,2,36,0,.1,0,.3,0,.4l1.2,79.2c0,.2,0,.4-.1.6,0,.2-.2.4-.3.5-.1.1-.3.3-.5.3-.2,0-.4.1-.6.1h0Z"/>
      <path d="M1175.9,777.5c-1.1,0-2.2-.3-3.1-.9-1.9-1.2-3.1-3.3-3.7-5-1,.9-2.5,1.7-4.1,2-.8.1-1.7,0-2.4-.2-.8-.2-1.5-.6-2.2-1.1-2-1.6-3-3.4-3.1-5.5,0-1.2.3-2.4.9-3.4-1.2,0-2.4-.3-3.5-.9-1.7-1-2.7-2.7-3-5-.4-3,.7-4.8,1.7-5.7,1.4-1.3,3.5-2.1,6.2-2.2.6,0,1.2,0,1.7,0,.3-1.6,1.2-3.6,2.9-6.2.8-1.2,1.6-2.3,2.2-3.2-3.6-1.2-6.6-3.4-9-6.6-2.5-3.4-4.3-7.9-5-12.9-.9-5.8.3-12.5,3.6-19.9,1.4-3.3,3.1-6.4,5.1-9.3.1-.2.3-.3.4-.4.2-.1.4-.2.6-.2.2,0,.4,0,.6,0,.2,0,.4.1.5.2.2.1.3.3.4.4.1.2.2.4.2.6,0,.2,0,.4,0,.6,0,.2-.1.4-.2.5-.1.1-10,14.5-8.1,27,2.1,13.9,10.4,16.9,13.9,17.6.3,0,.5.2.7.3.2.2.4.4.4.6,0,.2.1.5,0,.8,0,.3-.2.5-.3.7-3.8,4.7-6.3,9.4-5.9,10.4.1.2.1.5.1.8s-.1.5-.3.7-.4.4-.6.5c-.3,0-.5.1-.8,0-1.4-.2-5.4-.4-7.1,1.2-.7.7-1,1.7-.8,3.1.2,1.4.7,2.3,1.5,2.8,1.6.9,4.1.3,4.9,0,.3-.1.7-.1,1,0,.3.1.6.4.8.7.2.3.2.7.2,1,0,.4-.2.7-.5.9-.7.6-2.4,2.5-2.4,4.4,0,1.1.6,2.1,1.9,3.1.3.3.7.5,1.1.6.4.1.8.2,1.2.1,1.8-.2,3.5-2.1,4-2.8.2-.2.4-.4.7-.5.3-.1.6-.1.9,0s.6.2.8.4c.2.2.3.5.4.8.2,1.2,1.2,4.4,3.1,5.6.4.2.8.4,1.3.4.5,0,.9,0,1.3-.2,1.9-.6,3-1.7,3.3-3.4.2-.9.1-1.9-.1-2.8,0-.2,0-.4,0-.7,0-.2.1-.4.3-.6,2.8-4,5.3-8.1,7.7-12.3,6.2-11.3,4.9-14.1,4.4-14.7-.3-.3-.4-.7-.4-1.1,0-.4.2-.8.5-1,.3-.3.7-.4,1.1-.4.4,0,.8.2,1,.5,2.5,2.9,1.2,8.6-4,18.2-3,5.5-6.3,10.4-7.5,12,.2,1.1.2,2.2,0,3.3-.5,2.9-2.4,5-5.4,5.9-.6.2-1.3.3-2,.3Z"/>
      <path d="M1190.3,742.2c-.3,0-.5,0-.7-.2-.2-.1-.4-.4-.4-.6,0-.2,0-.5,0-.7,0-.2.2-.5.4-.6l9-6.9c.3-.2.6-.3.9-.2.3,0,.6.2.8.5.2.3.3.6.2.9,0,.3-.2.6-.4.8l-9,6.9c-.2.2-.5.2-.7.2Z"/>
      <path d="M1198.3,828.5c-2.6,0-5.1-.6-7.3-1.9-10-5.8-12.2-22.3-9.9-32,.9-3.8,4.1-9.5,7.8-16.1,5.2-9.2,11-19.6,11.9-26.9,1.4-12.4-7.3-32.5-7.4-32.7,0-.2-.1-.4-.2-.6,0-.2,0-.4,0-.6,0-.2.2-.4.3-.5.1-.2.3-.3.5-.4.2,0,.4-.1.6-.1.2,0,.4,0,.6.1.2,0,.4.2.5.3.1.1.3.3.3.5.4.9,9.1,21,7.7,34.3-.9,8-6.9,18.7-12.2,28.1-3.5,6.1-6.7,11.9-7.5,15.3-2,8.6-.2,23.7,8.4,28.6,2.9,1.6,6.2,2,9.8.9,5.9-1.7,11.3-6.5,13.3-10.2,2.1-3.7,5.3-11.5,7.8-20.9,3.3-12.6,4.5-25,3.5-36.7-3.5-40-8.4-45.8-8.6-46.1,0,0,0,0,0,0l2-2.3c.6.5,5.9,6.3,9.5,48,1.1,12.1-.1,24.8-3.5,37.8-2.6,9.7-6,17.7-8.1,21.6-2.4,4.3-8.4,9.8-15.2,11.7-1.6.5-3.2.7-4.9.7Z"/>
      <path d="M1247.3,782.3c-.8,0-1.5-.1-2.2-.4-1-.4-1.9-1-2.5-1.8-.7-.8-1.1-1.8-1.3-2.8-.2-1.2-.2-2.4,0-3.5.3-1.2.7-2.3,1.4-3.2-2.8-3.2-9.8-11.2-10.7-13.2-.7-1.6-.5-3.6-.3-5.5.1-1.2.3-2.4.2-3.3-.2-1.2-3-4.3-5.5-6.4-.3-.3-.4-.6-.5-1,0-.4.1-.8.4-1.1.2-.3.6-.5,1-.5.4,0,.8,0,1.1.3,1,.9,6.1,5.3,6.6,8.3.2,1.3,0,2.7-.1,4.1-.2,1.5-.4,3.1,0,3.9.6,1.3,6.8,8.7,11,13.5.3.3.4.7.4,1.1,0,.4-.2.8-.5,1,0,0-2.1,2.1-1.5,5.1,0,.5.3,1,.6,1.4.3.4.8.7,1.3.9.5.2,1,.2,1.4.2s1-.2,1.4-.5c1.7-1.3,2.2-3.8,2.2-3.8,0,0,0,0,0,0,0-.4.3-.7.6-.9.3-.2.7-.3,1.1-.2.4,0,.7.3,1,.6.2.3.3.7.3,1.1.2.6.5,1.1.9,1.6.8,1.1,2.5,1.2,3.8.8.7-.2,2.5-.9,2.6-2.9,0-.8-.2-1.5-.6-2.2-.3-.2-.6-.4-.9-.7-.3-.3-.4-.6-.4-1,0-.4,0-.7.3-1,.2-.3.5-.5.9-.6.3,0,.7,0,1,.1.4.2.7.5,1.1.8.8.4,2,.7,3.4-.7,1.1-1,1.2-3.2.2-4.8-.6-1.1-2-2.8-5.1-2-.4,0-.8,0-1.1-.2s-.6-.5-.7-.9c0,0-2.3-7.9-4.7-12.4-.1-.2-.2-.4-.2-.6,0-.2,0-.4,0-.6,1.5-4.5,2.4-9.1,2.7-13.8.6-10.5-1.9-19.4-7.4-26.7-.2-.2-.3-.5-.3-.9,0-.2-1-20.9-6.6-35.1-3.6-8.9-8.3-23-10.8-39.2-1.5-9.8-1.4-15.6-1.4-15.9,0-.2,0-.4.1-.6s.2-.3.3-.5c.1-.1.3-.2.5-.3s.4-.1.6-.1c.2,0,.4,0,.6.1.2,0,.3.2.5.3.1.1.2.3.3.5,0,.2.1.4.1.6,0,0,0,5.9,1.4,15.5,2,13.2,5.6,26.1,10.6,38.5,5.4,13.6,6.6,32.3,6.8,35.6,5.8,7.7,8.4,17.5,7.8,28.4-.3,4.7-1.2,9.4-2.6,13.9,1.9,3.7,3.5,8.8,4.2,11.1,3-.2,5.6,1.1,7,3.7,1.6,2.9,1.3,6.5-.8,8.5-1,1.1-2.4,1.7-3.8,1.8,0,.5,0,.9,0,1.4-.1,2.7-2,4.9-4.8,5.6-3.3.9-5.8-.3-7-1.8-.5.8-1.1,1.5-1.9,2.1-1,.8-2.3,1.2-3.5,1.2Z"/>
      <path d="M1229.5,619.2c-.3,0-.6,0-.9-.3-.3-.2-.4-.4-.6-.7s-.1-.6,0-.9c0-.3.2-.6.4-.8l11-10.2-15.7-13.3c-.3-.2-.4-.5-.5-.8,0-.3,0-.7,0-1l3.4-7.6c-5.4-1.7-23.3-7.1-32.9-6.4-10.5.8-12.3,9.7-12.4,10,0,.2-.1.4-.2.6-.1.2-.3.3-.4.4-.2.1-.4.2-.5.2-.2,0-.4,0-.6,0-.2,0-.4-.1-.6-.2-.2-.1-.3-.3-.4-.4s-.2-.4-.2-.5c0-.2,0-.4,0-.6.5-2.1,1.4-4.1,2.7-5.9,2-2.7,5.7-6.1,12.4-6.6,12-.9,34.8,6.7,35.7,7,.2,0,.4.2.5.3.2.1.3.3.4.5,0,.2.1.4.1.6,0,.2,0,.4-.1.6l-3.6,8.1,16.1,13.7c.2.1.3.3.4.5,0,.2.1.4.1.6,0,.2,0,.4-.1.6,0,.2-.2.4-.4.5l-12.2,11.3c-.3.3-.6.4-1,.4Z"/>
      <path d="M1190.5,622c-.4,0-.7-.1-1-.4-.3-.2-.5-.6-.5-.9-.4-2.7-1.7-3.3-2.4-3.8-.2,0-.3-.2-.5-.3-.3-.2-.5-.5-.6-.9,0-.4,0-.8.2-1.1l1.8-3c.2-.3.5-.6.9-.7.4,0,.8,0,1.1.2.3.2.6.5.7.9.1.4,0,.8-.1,1.1l-1,1.8c1.1.8,2.5,2.3,3,5.4,0,.4,0,.8-.3,1.1-.2.3-.6.5-1,.6,0,0-.1,0-.2,0Z"/>
      <path d="M1189.9,607.6c-.3-.2-.6-.2-.9-.2-.3,0-.6.2-.9.4-.2.2-.3.4-.4.7-.2.9.2,4.1.2,4.1,0,0,6.3.9,6.7,0,.9-1.8-3-4.1-4.7-5Z"/>
      <path d="M1193.8,577.4c-.3,0-.6-.1-.9-.3-.3-.2-.5-.5-.5-.8-.2-.6-4.7-15.2-4.6-21.4,0-.2,0-.4.1-.6,0-.2.2-.3.3-.5.1-.1.3-.2.5-.3.2,0,.4-.1.6-.1.2,0,.4,0,.6.1.2,0,.3.2.5.3.1.1.2.3.3.5,0,.2.1.4.1.6,0,5.7,4.4,20.3,4.5,20.5.1.4,0,.8-.1,1.2-.2.4-.5.6-.9.7-.1,0-.3,0-.4,0Z"/>
      <path d="M1215.9,579.9c-.2,0-.4,0-.6-.1-.2,0-.4-.2-.5-.3-.7-.7-2.7-2.7-7-17.1-2.1-7-3.7-13.5-3.7-13.6,0-.2,0-.4,0-.7,0-.2.1-.4.3-.6.1-.2.3-.3.5-.4.2-.1.4-.2.7-.2,1.1,0,4.4-.5,5.2-2.3.2-.4.4-.9.4-1.4,0-.5,0-1-.2-1.4-.4-.9-1.2-1.7-2.2-2.1-.7-.2-2.8.4-4.3,1.2-.3.1-.6.2-.9.2-.3,0-.6-.2-.8-.4-.2-.2-.4-.5-.5-.8,0-.3,0-.6.1-.9,0,0,1.1-2.7,0-4.2-.3-.3-.6-.6-1-.8-.4-.2-.8-.3-1.2-.3-.5,0-.9,0-1.3.2-.4.2-.8.4-1.1.7-1.1,1.1-1,3.6-.7,4.9,0,0,0,.2,0,.2,0,.4,0,.8-.2,1.1-.2.3-.6.6-1,.6-.4,0-.8,0-1.1-.2-.3-.2-.6-.6-.7-.9,0,0,0-.1,0-.2-.4-1.4-2.6-3.2-4.4-3.1-1.3.1-1.6.8-1.7,1,0,0,0,0,0,0l-2.9-.7c.3-1.1,1.5-2.9,4.3-3.2,1.5-.1,3.2.4,4.6,1.4.2-1.1.8-2.2,1.6-3,.6-.6,1.4-1.1,2.2-1.4.8-.3,1.7-.4,2.6-.4.8,0,1.6.2,2.3.6.7.3,1.4.8,1.9,1.4.5.6.9,1.3,1.2,2.1.2.8.3,1.6.2,2.4,1.3-.4,2.7-.6,3.8-.2.9.3,1.7.8,2.4,1.5.7.6,1.2,1.4,1.6,2.3.5,1.2.9,3-.2,5.3-1.2,2.5-4.1,3.4-6,3.8,2.5,10,7,25.1,9.5,27.6.2.2.4.5.4.8,0,.3,0,.6,0,.9-.1.3-.3.5-.6.7-.2.2-.5.3-.8.3h0Z"/>
      <path d="M1194.4,596.7c1.1,0,1.9-.9,1.9-1.9s-.9-1.9-1.9-1.9-1.9.9-1.9,1.9.9,1.9,1.9,1.9Z"/>
      <path d="M1210.1,609.7c1.1,0,2-.9,2-2s-.9-2-2-2-2,.9-2,2,.9,2,2,2Z"/>
      <path d="M1210.1,622.9c-3.1,0-6.1-.9-8.6-2.6-2.6-1.7-4.6-4.1-5.7-7-1.2-2.8-1.5-6-.9-9,.6-3,2.1-5.8,4.3-8,2.2-2.2,4.9-3.7,8-4.3,3-.6,6.1-.3,9,.9,2.8,1.2,5.3,3.2,7,5.7,1.7,2.6,2.6,5.6,2.6,8.6,0,4.1-1.6,8.1-4.6,11s-6.9,4.6-11,4.6ZM1210.1,594.9c-2.5,0-4.9.7-7,2.1s-3.7,3.3-4.6,5.6c-.9,2.3-1.2,4.8-.7,7.2.5,2.4,1.7,4.7,3.4,6.4,1.7,1.7,4,2.9,6.4,3.4,2.4.5,4.9.2,7.2-.7,2.3-.9,4.2-2.6,5.6-4.6,1.4-2.1,2.1-4.5,2.1-7,0-3.3-1.3-6.5-3.7-8.8s-5.5-3.7-8.8-3.7Z"/>
      <path d="M1194,607.2c-3.2,0-6.3-.9-8.9-2.7-2.6-1.8-4.7-4.3-5.9-7.2-1.2-2.9-1.5-6.2-.9-9.3.6-3.1,2.2-6,4.4-8.2,2.3-2.3,5.1-3.8,8.2-4.4,3.1-.6,6.4-.3,9.3.9,2.9,1.2,5.5,3.3,7.2,5.9,1.8,2.6,2.7,5.8,2.7,8.9,0,.5,0,1.1,0,1.6l-3-.3c.3-2.7-.3-5.4-1.6-7.7-1.3-2.4-3.3-4.2-5.8-5.4-2.4-1.2-5.2-1.5-7.8-1.1-2.7.5-5.1,1.7-7,3.6-1.9,1.9-3.2,4.4-3.6,7-.5,2.7,0,5.4,1.1,7.8,1.2,2.4,3,4.5,5.4,5.8,2.4,1.3,5.1,1.9,7.7,1.6l.3,3c-.5,0-1.1,0-1.6,0Z"/>
      <path d="M1172.5,764c-3.2,0-5.9-2.8-5.9-6.2s2.6-6.2,5.9-6.2,5.9,2.8,5.9,6.2-2.6,6.2-5.9,6.2ZM1172.5,754.7c-1.6,0-2.8,1.4-2.8,3.1s1.3,3.1,2.8,3.1,2.8-1.4,2.8-3.1-1.3-3.1-2.8-3.1Z"/>
      <path d="M1251.6,771c-1.2,0-2.3-.4-3.2-1.2-2.1-1.9-2-5.6.3-8.1,2.3-2.5,5.9-3,8-1,2.1,1.9,2,5.6-.3,8.1-.6.7-1.3,1.2-2.2,1.6-.8.4-1.7.6-2.6.6ZM1253.4,762.4c-.5,0-1,.2-1.4.4-.4.2-.8.5-1.1.9-1.1,1.3-1.4,3-.5,3.8.9.8,2.6.4,3.7-.8,1.1-1.3,1.4-3,.5-3.8-.3-.3-.8-.4-1.2-.4h0Z"/>
    </g>
  </g>
</svg>