<svg width="703" height="1498" viewBox="0 0 703 1498" fill="none" xmlns="http://www.w3.org/2000/svg">
<g clip-path="url(#clip0_103_198)">
<path d="M-833.687 5.89753C-833.687 5.89753 -769.414 -1.34809 -713.37 0.463313C-657.325 2.27471 -179.111 13.1431 -133.904 5.89753C-88.6969 -1.34806 14.348 0.831997 21.5837 4.26243C28.8194 7.7089 36.0552 15.8522 36.0552 15.8522C36.0552 15.8522 148.833 12.2294 256.632 12.2294C364.432 12.2294 710.209 5.83342 771.233 8.01351C832.256 10.1936 963.78 3.7976 1089.22 8.01351C1214.66 12.2294 1317.71 -1.70074 1364.48 0.174784C1411.26 2.0503 1424.82 7.93338 1424.82 7.93338V1497.72L-835 1478.12L-833.703 5.89753H-833.687Z" fill="#DDBE8D" stroke="black" stroke-miterlimit="10"/>
<path d="M402.788 184.683C399.971 185.356 397.249 186.927 394.528 187.776C392.943 188.257 391.518 188.257 390.27 187.921C388.108 188.594 385.915 189.219 383.674 189.652C377.991 190.742 372.276 190.934 366.513 190.902C352.282 190.79 338.099 191.014 323.884 191.64C294.813 192.922 266.078 194.429 236.975 193.788C183.716 192.634 128.871 199.526 76.6526 185.965C75.5641 185.676 74.6677 185.244 73.8993 184.683H31.7656V219.308H471.559V184.683H402.788Z" fill="#C6A683"/>
<path d="M938.263 184.683C936.951 186.51 934.87 187.857 932.116 188.049C920.782 188.882 909.657 187.135 898.467 185.917C897.987 185.949 897.49 185.981 897.01 185.997C885.228 186.686 873.398 187.873 861.6 188.049C859.743 188.081 858.238 187.568 857.054 186.718C852.988 187.119 848.921 187.504 844.871 187.728C790.379 190.87 735.823 187.295 681.316 186.414C627.368 185.548 573.388 186.67 519.44 186.686C517.167 186.686 515.422 185.901 514.158 184.683H497.781V219.308H959.714V184.683H938.247H938.263Z" fill="#C3A27D"/>
<path d="M476.778 28.9023L31.9739 35.0739L31.2695 51.12H476.778V28.9023Z" fill="#C3A27D"/>
<path d="M959.716 32.0446L495.27 29.4316L497.783 51.1204H959.716V32.0446Z" fill="#C3A27D"/>
<path d="M477.896 39.4023H458.91V293.768H477.896V39.4023Z" fill="#C3A27D"/>
<path d="M705.71 1113H-0.316406V1132.01H705.71V1113Z" fill="#C3A27D"/>
<path d="M476.072 1147.4H452.572V1491.39H476.072V1147.4Z" fill="#C3A27D"/>
<path d="M142.619 1332.97C140.042 1333.22 137.465 1333.48 134.887 1333.7C125.33 1334.54 115.774 1335.24 106.169 1335.42C97.172 1335.59 87.8392 1335.18 78.9547 1336.89C67.5568 1339.1 55.0864 1343.8 46.0258 1333.56C45.8497 1333.37 45.6896 1333.16 45.5455 1332.95H35.8125V1361.02H452.554V1332.95H142.603L142.619 1332.97Z" fill="#C3A27D"/>
<path d="M462.976 1131.77C462.624 1132.73 462.096 1133.65 461.279 1134.42C458.158 1137.38 454.764 1139.56 451.162 1141.16C449.257 1142.8 447.288 1144.36 444.695 1145.04C441.541 1145.89 438.339 1145.8 435.314 1144.9C420.33 1146.04 403.906 1142.24 389.834 1142.24C375.939 1142.24 363.245 1146.5 349.734 1149.02C335.615 1151.66 321.191 1150.67 306.912 1150.32C302.878 1150.22 298.828 1150.11 294.794 1150.01C283.972 1150.13 273.167 1150.01 262.345 1149.92C262.073 1149.92 261.785 1149.92 261.513 1149.92C247.265 1150.35 233.098 1151.73 218.835 1151.7C212.639 1151.7 206.46 1151.44 200.297 1151.07C184.897 1151.6 169.497 1152.08 154.065 1152.08C138.633 1152.08 117.599 1155.05 103.431 1146.41C102.103 1146.31 100.774 1146.23 99.4453 1146.13C91.105 1145.48 83.0849 1144.39 75.0328 1142.09C66.6605 1139.72 58.6083 1136.92 49.8038 1137.14C45.7217 1137.25 43.2885 1134.77 42.488 1131.74H32.8672L35.8287 1179.04H476.071L478.056 1131.74H462.96L462.976 1131.77Z" fill="#C3A27D"/>
<path d="M17.0742 3.33374V277.464" stroke="black" stroke-width="3" stroke-miterlimit="10"/>
<path d="M31.9727 11.7664V277.465" stroke="black" stroke-width="3" stroke-miterlimit="10"/>
<path d="M31.9727 35.0761C31.9727 35.0761 234.236 30.0908 273.569 31.3572C312.901 32.6235 371.203 35.509 401.714 35.0761C432.226 34.6433 440.582 29.4336 471.318 28.9847C502.054 28.5359 918.348 35.0761 918.348 35.0761" stroke="black" stroke-width="3" stroke-miterlimit="10"/>
<path d="M478.33 29.4314V276.006" stroke="black" stroke-width="3" stroke-miterlimit="10"/>
<path d="M495.268 29.4314V276.006" stroke="black" stroke-width="3" stroke-miterlimit="10"/>
<path d="M57.282 203.021C57.282 203.021 50.8466 207.093 50.4944 215.236C50.1422 223.379 50.4944 254.959 50.4944 254.959" stroke="black" stroke-width="3" stroke-miterlimit="10"/>
<path d="M62.0312 214.901V228.992" stroke="black" stroke-width="3" stroke-miterlimit="10"/>
<path d="M109.84 266.5L124.071 277.464" stroke="black" stroke-width="3" stroke-miterlimit="10"/>
<path d="M263.848 101.855C263.848 101.855 274.701 112.724 288.708 116.571C302.716 120.418 311.76 119.056 311.76 119.056" stroke="black" stroke-width="3" stroke-miterlimit="10"/>
<path d="M194.697 84.2058C194.697 84.2058 243.971 121.315 257.53 127.663C271.088 133.995 297.758 133.995 297.758 133.995" stroke="black" stroke-width="3" stroke-miterlimit="10"/>
<path d="M43.7227 174.276C43.7227 174.276 43.7227 194.65 207.343 194.185C370.963 193.721 395.391 188.158 403.507 187.389C414.057 186.411 421.789 184.856 426.079 185.93C433.171 187.709 439.67 188.302 445.993 186.924C458.416 184.215 464.979 176.055 464.979 176.055" stroke="black" stroke-width="3" stroke-miterlimit="10"/>
<path d="M525.555 44.8201C525.555 44.8201 562.166 51.1519 582.512 52.0656C602.858 52.9633 618.675 52.0656 618.675 52.0656" stroke="black" stroke-width="3" stroke-miterlimit="10"/>
<path d="M714.499 137.154L703.197 119.056" stroke="black" stroke-width="3" stroke-miterlimit="10"/>
<path d="M506.117 180.609C506.117 180.609 515.162 189.442 546.57 188.528C577.978 187.614 919.689 188.977 919.689 188.977C919.689 188.977 934.161 189.249 941.845 188.592C947.816 188.079 948.632 183.767 948.632 183.767" stroke="black" stroke-width="3" stroke-miterlimit="10"/>
<path d="M41.6895 1131.77C41.6895 1131.77 52.3189 1150.11 161.687 1152.82C271.071 1155.53 332.719 1151.79 354.922 1149.42C377.126 1147.05 403.395 1140.94 416.282 1143.65C429.168 1146.36 430.865 1149.42 440.694 1147.72C450.523 1146.02 464.931 1131.77 464.931 1131.77" stroke="black" stroke-width="3" stroke-miterlimit="10"/>
<path d="M13.9023 1131.77V1488.22" stroke="black" stroke-width="3" stroke-miterlimit="10"/>
<path d="M32.8848 1131.77V1486.18" stroke="black" stroke-width="3" stroke-miterlimit="10"/>
<path d="M478.074 1131.77V1488.22" stroke="black" stroke-width="3" stroke-miterlimit="10"/>
<path d="M497.062 1131.77V1486.18" stroke="black" stroke-width="3" stroke-miterlimit="10"/>
<path d="M59.3313 1165.72C59.3313 1165.72 47.133 1163.01 47.8054 1187.44C48.4777 1211.89 47.7734 1226.81 47.7734 1226.81" stroke="black" stroke-width="3" stroke-miterlimit="10"/>
<path d="M64.7406 1175.9C64.7406 1175.9 60.3384 1178.97 60.6746 1184.38C61.0107 1189.8 60.6585 1193.55 60.6585 1193.55" stroke="black" stroke-width="3" stroke-miterlimit="10"/>
<path d="M110.848 1233.61C110.848 1233.61 125.431 1248.55 137.966 1258.39C150.5 1268.23 162.042 1271.97 162.042 1271.97" stroke="black" stroke-width="3" stroke-miterlimit="10"/>
<path d="M121.027 1261.11C121.027 1261.11 146.112 1293.7 188.822 1298.11C231.532 1302.52 266.798 1293.37 266.798 1293.37" stroke="black" stroke-width="3" stroke-miterlimit="10"/>
<path d="M432.561 1264.85C432.561 1264.85 421.371 1278.09 413.911 1284.87C406.451 1291.65 390.859 1301.51 390.859 1301.51" stroke="black" stroke-width="3" stroke-miterlimit="10"/>
<path d="M450.524 1259.08L434.596 1280.21" stroke="black" stroke-width="3" stroke-miterlimit="10"/>
<path d="M464.928 1288.61V1313.06" stroke="black" stroke-width="3" stroke-miterlimit="10"/>
<path d="M541.371 1241.08C541.371 1241.08 541.035 1270.96 563.063 1283.18C585.09 1295.39 599.001 1296.75 599.001 1296.75" stroke="black" stroke-width="3" stroke-miterlimit="10"/>
<path d="M581.375 1277.07C581.375 1277.07 594.598 1282.5 611.887 1284.87C629.176 1287.25 633.242 1286.91 633.242 1286.91" stroke="black" stroke-width="3" stroke-miterlimit="10"/>
<path d="M643.424 1191.18H676.305" stroke="black" stroke-width="3" stroke-miterlimit="10"/>
<path d="M510.188 1322.9C510.188 1322.9 510.86 1329.34 515.95 1330.03C521.041 1330.7 645.441 1332.4 645.441 1332.4" stroke="black" stroke-width="3" stroke-miterlimit="10"/>
<path d="M41.6895 1327.64C41.6895 1327.64 45.0833 1340.21 70.1681 1340.21C95.253 1340.21 193.56 1332.74 230.17 1332.4C266.781 1332.07 448.714 1333.65 456.174 1332.4C463.634 1331.15 464.931 1325.27 464.931 1325.27" stroke="black" stroke-width="3" stroke-miterlimit="10"/>
<path d="M120.34 1421.9L133.227 1436.61" stroke="black" stroke-width="3" stroke-miterlimit="10"/>
<path d="M110.848 1432.32L139.102 1470.57" stroke="black" stroke-width="3" stroke-miterlimit="10"/>
<path d="M312.211 1453.81C312.211 1453.81 354.024 1434.58 372.546 1423.93C391.083 1413.29 403.73 1401.99 403.73 1401.99" stroke="black" stroke-width="3" stroke-miterlimit="10"/>
<path d="M360.57 1450.19L403.745 1427.89" stroke="black" stroke-width="3" stroke-miterlimit="10"/>
<path d="M627.248 1463.99L646.234 1441.58" stroke="black" stroke-width="3" stroke-miterlimit="10"/>
</g>
<defs>
<clipPath id="clip0_103_198">
<rect width="703" height="1498" fill="white"/>
</clipPath>
</defs>
</svg>